<mxfile host="app.diagrams.net" modified="2022-05-28T15:50:16.183Z" agent="5.0 (Windows NT 10.0; Win64; x64) AppleWebKit/537.36 (KHTML, like Gecko) Chrome/101.0.4951.67 Safari/537.36" etag="qUI5mUwSs0wHe5yA0Kwf" version="17.5.1" type="github" pages="4">
  <diagram id="a2Ihvy7AlS8uKA_00mvc" name="Page-1">
    <mxGraphModel dx="730" dy="331" grid="1" gridSize="10" guides="1" tooltips="1" connect="1" arrows="1" fold="1" page="1" pageScale="1" pageWidth="850" pageHeight="1100" math="0" shadow="0">
      <root>
        <mxCell id="0" />
        <mxCell id="1" parent="0" />
        <mxCell id="5y31lYQcJFJTwJl5I7z8-1" value="first create packages and classes and interfaces" style="rounded=0;whiteSpace=wrap;html=1;" vertex="1" parent="1">
          <mxGeometry x="230" y="150" width="310" height="180" as="geometry" />
        </mxCell>
        <mxCell id="5y31lYQcJFJTwJl5I7z8-2" value="packages&lt;br&gt;1-controller&lt;br&gt;2-exception&lt;br&gt;3-model&lt;br&gt;4-repository&lt;br&gt;5-service" style="rounded=0;whiteSpace=wrap;html=1;" vertex="1" parent="1">
          <mxGeometry x="230" y="340" width="160" height="110" as="geometry" />
        </mxCell>
        <mxCell id="5y31lYQcJFJTwJl5I7z8-3" value="the service package have a sub apckage service.impl&amp;nbsp;&lt;br&gt;impl stand for implenemtation" style="rounded=0;whiteSpace=wrap;html=1;" vertex="1" parent="1">
          <mxGeometry x="410" y="340" width="160" height="110" as="geometry" />
        </mxCell>
      </root>
    </mxGraphModel>
  </diagram>
  <diagram name="model" id="W1h-dzbuUQgYOgaZedD1">
    <mxGraphModel dx="609" dy="276" grid="1" gridSize="10" guides="1" tooltips="1" connect="1" arrows="1" fold="1" page="1" pageScale="1" pageWidth="850" pageHeight="1100" math="0" shadow="0">
      <root>
        <mxCell id="5IY0WvX8JllmGWZsHJ7O-0" />
        <mxCell id="5IY0WvX8JllmGWZsHJ7O-1" parent="5IY0WvX8JllmGWZsHJ7O-0" />
        <mxCell id="5IY0WvX8JllmGWZsHJ7O-4" value="create a class in model package for each entity and that model class is responsble for table and it is columns and will use annoations&amp;nbsp;&lt;br&gt;1-Entity to make the class as entity&lt;br&gt;2-Table to give it aname" style="rounded=0;whiteSpace=wrap;html=1;" vertex="1" parent="5IY0WvX8JllmGWZsHJ7O-1">
          <mxGeometry x="410" y="340" width="230" height="110" as="geometry" />
        </mxCell>
        <mxCell id="5IY0WvX8JllmGWZsHJ7O-6" value="" style="shape=image;verticalLabelPosition=bottom;labelBackgroundColor=default;verticalAlign=top;aspect=fixed;imageAspect=0;image=data:image/png,iVBORw0KGgoAAAANSUhEUgAAAtMAAAIeCAYAAAB5goNbAAAAAXNSR0IArs4c6QAAAARnQU1BAACxjwv8YQUAAAAJcEhZcwAAEnQAABJ0Ad5mH3gAAGqFSURBVHhe7d29juQ4mv/7PBdw7P89rL1oYHQdPeYYAxR0Be201YG1xtsoo6xAWwusU4MtK8PtaWt300mraw0Z3cYW8qDLO0C7R+ehRFIkRVISQ/Gm+H6AB1WpkERJERnxCyYlPbUAAAAAihCmAQAAgEKEaQAAAKAQYfqKjvVT+/QUVH3Uj15Rs28rtS3Vvm30pPNo2n2l9rtq9+dtCAAA4CyyYfpz/V37w9Of2x+q9+3PDxd2vrRfj5/aj+oY1C962roI05cJ09HjLFVVVVvvj2fYx2O7rytZ/7mPHwAAuLZ0mG4+tR9UkNb1Yf9FP/Ag3P0/U5j2HOs+5BGmV5cK00Ot3P7Fjh8AALg2eqZTCNObC9P+oW3a5rhv6659VXW72pEnTAMA8DAYM51CmN54mDaObd2F6RWPPWEaAICHEYTpl/ajCZBBfYzljOP7/nEJm1/l/yZ8fqg/tV/bL+3Ppmf76Tt/ebOcTFc93t2yVb9st3z1qf2cSCFfG9nGyqxXl/z88fhF2gzJNpj1doH4y9Db3pUs5w5fsds1Vf12r2pJmG76Mbl9j2pfVVW3+2O4UTooqnVKwDO9sJVuo9mbdVR+0PTCYNMe93X/sy61fHL3Z2+bkgnTcjxMm3V02fnyYVqYYz/qnTa91zP2x65joqIBe0E7I3IM9fGuzvmNBAAARK0TpiXMuuOrVdh0w3Ff79vPejE3TH8Ig7EtZ37t6z41ry4J4X6gdsP0p+H/Qdnx4PcQpp2QGSs/UOkwLaFsGM6gSsKrBGR3OS9I2jAdLudUbDsXbZsSD9ONXc86PdaTYdrsb7gd9stGvLz9OSFML2onZLdd1YpDVQAAwCwTY6aHAJkN06q6IOuE124ZCal2uIQTQMPQ6vREe4HZHV4RtDX0XPtt+idK+o+p6rZJcYdxjEK4uMVhHk5w8nuHVe/xEMiGVThDGHRQ9IJbt45IoPUCmt+W6kGNBt3F26aM21ZBup83WP8JJsO0PU5+m43qka/37bHxN2TYxkR4Ncdi5jCP4nY69EwDAHBNq4Vp87hdxgRUJ5TadYxCuMvtHTe9024ojvUKx5ZRwnCvJ3fcx8a94LcYpk0QToUmG5TtOoYwbZYZwrQJaPkwHRtiEduO5dum+G3beap1e1hLw3Sa2e51wnTaRDsAAODqVgrTQxi1y5gAOhGmx5fci4VcJyzHepGTYXsiMOfcXJiOhN7QKMSZkDiEsXHozYTpVBgcbWvJtinDcrUZZ31yAB07JUzHxjIPtV6YLmoHAABc3Y2HaR2M3WAbDdPutm49TOeClQ6FVwvTS7ZNcdq2Y7jXD47zx0z7bZvl0pXY1oVhurgdAABwdfRMp9AzXRCml2yb4i93rWEeQ7vOttmAHRvqYrZ7hTB9SjsAAODqbi9MR3uhU2FZiy6jbClMD6Fwalzy8Ph5wnQsnC7fNmXcdjTYnigbpr0wq6eJ/HbIcV0pTJ/UDgAAuLrbCtPqGtJ6uje/8K7yIYHZXs1DlhkCc7idJ4Rp76TGSIBf24wwbeeRqvbBFTPstZ3d3uFTw7Qs515hQv4/tBMEvMXbpkTaFib8TodREzalzTo9bzRMq31xr58dtmX3x902dT1o9/J/qZBrjnt4LCJOakdxju+M8A4AANblh2kn5GbLBOUVwnSq8sM/4vVh1IN8Spj2v0z4tUa4HgJXusYhyvZkRiu4+YptY1jPojCdrDAU95ZtmxIP08N0qUxADNtLfQ+x4TxR8SCee36qtuq2Lx1yk22O9ue0dsLlU38ZAAAA53FjYfq77u6Jn5swSA/6uyX6N2/5UL1vfzbXj/acFqbV8p/3/t0Z+7pemFaid8vrrlOsZ7AKw7RMM234oVp+lsQaXA7ZM3/blFSYVuYEatk/Pc+cnmmv1L5125XdmWBfhv3v15kLubrn2+yDbTeynSe1I5y/CmT/sgEAAFaXHeZxNk6YHvdAA1hm+GJGzzQAAJdFmAbuWdO0e9vzHh9+AwAAzocwDdyloTfaBOnY3SoBAMB5EaaBu2TCtBn7rScDAICLIkwDAAAAha4TpgEAAIANIEwDAAAAhQjTAAAAQCHCNAAAAFCIMA0AAAAUIkwDAAAAhQjTAAAAQCHCNAAAAFCIMA0AAAAUIkwDAAAAhQjTAAAAQCHCNAAAAFCIMA0AAAAUIkwDAAAAhQjTAAAAQCHCNAAAAFCIMA0AAAAUIkwDAAAAhQjTAAAAQCHCNAAAAFCIMA0AAAAUIkwDAAAAhQjTAAAAQCHCNAAAAFCIMA0AAAAUIkwDAAAAhQjTAAAAQCHCNAAAAFCIMA0AAAAUIkwDAAAAhQjTAAAAQCHCNAAAAFCIMA0AAAAUyoTpt/b1sGt3796177qS/x9eZSoAAAAAJR6m3567EL07PLdvJj2/vbbPOwnVu0P7qicprwcTtv3a7Xbt4fkc4Vu2Q4X8nWybngIAAABcwzhMmyD9HIuqb32gPgxxOhWmh9q10VWV0tv3jjANAACAKwvCtA7LuaD6evACsgnTTr4Wb+3b63N7UOvqArXfm30SwjQAAABuhB+mu6AcBuPQa3tw5omHaaOftwvU+ZXOR5gGAADAjfDCdBeMJ0Nq33tthoHkw7TQAX3cO216r3f68b52u0P7/BpsgV3HREW3fUE7AAAAwAJOmO57kYex0v3VPIbwKf/vTj70x01PhmnTkxyMnX579sNtWN6Y7RPC9KJ2AAAAgAWGMJ0YC+2VDqvdY3PDtB3qEYbpQ3e1kFd7uZDeW7InW1s4zKO4HQAAAGCCDdN9D64OljawBj+7AdoN1vLY0jCdpnu+VwrTaRPtAAAAABNsmHYDshkaYQOyDrD9kIiFwzwyYTo2lnmo9cJ0UTsAAADABBumxwHZCb96SET/cOmYaT+0muXStU6YLm4HAAAAmBAJ0+PhD31PtQnX/omKU2HangDohl8bsNVyYSRecZjHKe0AAAAAE2aF6T4w6591QDXhORumvTCrp4lowLYkrK8Upk9qBwAAAJiQCdN9T3R41Ys+PA9DQKJh+u2tfVVX0eiWkwrDrF2nO45aXQ/aWSYZcs0YbNU7ri7Ul3FSOwAAAEBe9AREE5BthSfvOcl5NG9Q6rJ048A7BOJx7drdRI9xss1RD/Rp7QAAAAA50TDdhdAuaJowbHqr3Xl60WAr4Tt2bWfPm2rDDelqmVfVqa3XmQu5uufbbJNtNxLcT2oHAAAASLNhWpJlFzSH4RAAAAAAcoYwrU/s4/baAAAAwDxDmBYMewAAAADm88K0xOn+hD11G3G3g1pdneOwaw/0WgMAAABWEKaVPjgPl45T4dqcUKhnAQAAABAL0wAAAADmIEwDAAAAhQjTAAAAQCHCNAAAAFCIMA0AAAAUIkwDAAAAhTJhOrxEnro83qtMvV+vz7tuX9Rl/rjKHwAAAE4VD9Pm1uIqdJrU+fbaPu/UNafHd0js75yYKQnh65HtUCF/tzQQ6xvSdLVrp+8/U9oOAAAAHsU4TJsgHU2bb32gDsLxRcO03r53BSF3Uc/0Ce0AAADgMQRhWoflXIB8PUgg9Xt2TZhetQM65VIhlzANAACACX6Y7oLyVCjuh0u48xCmAQAA8Ii8MN2F4snw2Pdeu8NAFodpE1S7BWac6KhD/mRFtj06BCW1oUXt6N58mZ7cf7NegjkAAMCmOGG673EeQnIfck2A3O3k/93Jh+Nx0+Vh+tAedBAdlbuymw7Tanf0cUqsd/HxAQAAwF0YwnQXJIex0NEQqkNk95iTDKPzOjU6mdGEafO4rMvM8WYD7fiqIZ1Thl+Ydc9JtYvaMVcKiW1z7jEAAADcMxum+95VHfhskAx+1iG0C89OyDwlTI+vGmKGTSQuX3eTYXo4BqP90W2O9xMAAAD3zoZpNyCbYQs2c+pg2QfCFYd5RIPqfYbp+PwT+wIAAIC7ZsO0G5D7cOwEQB1C+4cJ03GR7T5lWwEAAHDzImHahMJhjG/fU21CYniiImHaMD365tiMevgBAACwKbPCdB+W/fHTbkAkTBv6ZMNumfFxBAAAwLZkwnQfZsOra4yGgIiLhmkTWKV2z8H1qKcsCdOF7dhj8Xzo9pETDwEAALYregKiCYS21DWm3Z+DMDqaP6wwvJ4UpjPtjdY3BOJ0pXuO57fjMPvWVXofAAAAcP+iYboLoV2gfdfuDmqaCbjuPINLh2k1z6vq+TXbZGrlMD2/HVf+WAEAAGA7bJiWRCwBkJ7U0w1hevawFwAAANylIUzr3mLG+J7IjMumVxoAAGDzhjAt+uEaXH2ilDpZ04yXplcaAABg+7wwbccYq9uIu92qb28StHftgV7rMe+Ew77o3QcAAHgMQZhW+uDsBcSd/Hx49gM2em6YluN04CABAAA8jEiYBgAAADAHYRoAAAAoRJgGAAAAChGmAQAAgEKEaQAAAKAQYfqsmnZf1+2+0T8CWFezb6tqL79pAABcRyZMh5fIU5fHe73eXf3MJegW3lmwvxFNUBe6o8qxfmqfnp7aijSdJofmW3kV/pPUt/t+0q/yr/pZ1Y93duh+qodttyXTMKHwdWB+x57qo54CAMBlycdUhLm1+EGCq0mub6/t806CqLqhi56kAnc3LQyrsTr19tp3FqabfcWH/Ezf68D0vTlU8u9UiLpVhOlypa8DvrQCAK5JPqYCJkhH7+Knw7MNo7cfpj2vh35bzh2m1Z+eVZB+qlUewIRciPpJT7pLZj8I07OUvw6Obd39vlUMqQIAXJx8TLl0OM4F1i6Q7trUHbPfnnddYF39ltp3E6abdl/1PWV0Ss8zClESiMyf/AnTj+Ok18Gx7v8SxPhpAMCFyceUQ4fNfNZ8bQ+ZeR4+TPOhvtiPVR+Y7J/yTYiS6b/qSXeJML3Iaa8DvsQCAK5DPqoG3fjiybDa916nwvL8MP3Wvr0+t4ddP7+p3e7QPr9GlvXC9Fv7+nzofzbLSUCeDNlLwvRbeAJmZtscZvzm5Ae6GQrSzdjIcpUeGqJK/i/T42G8aZvjvq0rPSZbV1XV7f4YLqH//K3akPZqHTbUuhU7rlvai25vE25Xqp0rkE1Q45NNz6WqbyV0/RjZj67HUwVaWeZ7Hdi+1QHXPcnN9ogqMm+3bj3fqC35eTLgyfq6+fU6sqS9H2U+s/6ujcT+mNDpba/LtBsLoQuOm1W4jNofdxm1PcltXoP5Iht9MQMAcB7yEWf0Pc5DCO7D5BAk5f/dyYfhuGnf3DBt5kvVaHkbpg8SwMfzdzUVkueGadNWotL7ZsZuzhgrbcN0bUPuqCKhYAjA8fJPwtLbIwHYb6Nq93sdPGwF22zHfcfrqid7SdNeSAvKXA3C6MK0CnJS7nw/OkHalB1OYNqQQBguZ0sey5IDOne+JftjvwAk1mtOghwF14XHrXOGZc4XqBf8/gEAsBL5aNO6oDmMhY5eBUP3WnePnRymD93VQl7t5UJ6bybwvnOvGiKCgOv2RKse7v6x9FjuzqwwbU6q3LUHWZm7OrVt2Xa83uYJQVh1e6Ib08MWCQWNhOCq3rfHxszdiy9jwoWq/uQsL4x3bZo/j7snbw3TapnotqTa6bfbP9lrKuT3tc4JYrZnVoKc2/P6q+y4CXHu1R/MWFwz3e2NVoFUrSM5xECX2xOdamdE5jNtJDnthL3dPznbGQZQs0+xscSpx5YeN6VkGRvmZRnXrzKf6q0+X5iOvZYBADgv+cjr9SFYB1inF9j7WYfQ3HCQ+cM8UkyYTYfpQ2Soxax254RpPU9qPdl2lvyZ2QnT417eklBglomHadPGEHrNfJG29H6kep/NOtzHLxamZaNVUIv2iAoTlN3HTbg009wwbQJnLkzHwl+snRG9rbkwPbUeu63BOkxgHS2XOj4Fx61oGWEDeOS4ndvsYVYAAKxEPvJ6bkA2gdFmTh1k+wC5zjAPJTZmeqhEmE6N6V4QlHPzmO2fqtj+xUJmkgnT0RMV82E6NmZ6qFiYHqaNt3Hc1rxgPHM/V2bD5US5AS/sqY2FwGSYluluj6ylg2a213nGPKN2Q6ntSExPra/kuJUs0zH7rUq2Rw2niR7DM1j0OwgAwArk467nBuR+iIczlEGH0P7hdcJ0dBiJV9cJ09Pb1de1wrS941uyTg/T0230dY3AYnpkp+rewnRsuIbRbX9kO5Zsc8lxK1nGkm0ZjTWXn8/dW02YBgBcmnzE9YaAPB5m0QdkE67DExV9s8J0dsjGxDCPC/VM51aTVDLMY0mYdoaG1KMraphl1uuZXvKncrNMvsZfDpYyQXhJKNtkz7QI9yN3bEqOW8kyMWp8tXulEnMllXNgmAcA4NLko62XC9N9b63+WYfaVNicE6bNPPFgLGG9IEybHuVsCF4pcCdlA3KgIEzbwBpdRoLzSmF60ZcC7VJhek5ADZ0jTNuT7HKHaMa2Jsc+a7Ftdbm91tle7oLjVrRMjjmmqW1cQR+mV3idAQAwk3ys9cZhuu+JDq+uMRoCEpjVM23X6a5HXXfavXZ0KkzLdPcKIPp60NFlQrOCct/z3u1Dd7URPXmWcXhNKumZNiHXm66uO22usBG2XRim7XIyX3flED35RphwrHo4f5qxbaeGaa8N+b/by5oNhXPCqJlHSm2PG9zdYRapnmsb6mVZtb2p0K0sPW5K0TJyzLqrfwTzu1cAOU+YXvD7BwDASuRjrdeFZN3rOxo3HJ4kmAmjs8K0E1jHtWt3uZ7pZMUCfq4dU5EA7oX6WKVD++w/M5eEaSfkjqtqq7V6phUvoMfqioFFGjahLFVuWDspTGcqFnBNW7kKg6TZnlRle7+D7UyF7s7C49YpWGbqGJw6bCSp4C8qAACcSj7aem6Y7kJoF2j73ll1teW+t9qdJ25emBZvqg03pEuIlpCuOp37MB8G1uGOiX7QHZYbKwzTimzfc3AHxMllFPOBPjXUoyhMi0YCsnclD323RJmvD/IrhWlF2toHd0Ac6ophWpFtHd1hz6lzhunwetCukjCtqF7b8IS9ub3BZtuT47tdC46btXSZxPxLereXM69jxksDAC5LPuK0bghEevgG5uJDfRMk9HVhcE5AvTITps/W43sP5n6JBQBgZUOY1sMoJnuUMc30Ol+79xbl7iVMywus6/m9g9B/PuYvMJG/rgAAcGZDmBbx4RUoYa9uQff0fbqDMO2e0PfIvdLmPIVh6BIAAJfjhWk7xri7YoaepOgrZhzotV7EfsgTqO/PrYZps11O5a7gsXXHmi+tAIDrko/iUB+cvRPv1El/iy8TB5V89hV/er5L9xCmZdseepy00uzbWoI0v2IAgGuJhGkAAAAAc9gw/f/8v/8fRVHUzdf/+b//r65ij1EURVHUpYswTVHUXRVhmqIoirqlIkxTFHVXRZimKIqibqkI0xRF3VURpimKoqhbKsI0RVF3VYRpiqIo6pbqOmH67+/bH57+3NX7v/1vfJ5R/W/7/E2/TFj/9vfY/FssjsGt17//tb+2uFd/fY7OS2Xq9bn9yzd/ssfwL87rmzBNURRF3VI9VJj+z79+1y/zzfv2+TU+z20XYVpVNLC6dcXwSpheoV7/tf3n4BgSpimKoqhbrTsK0379518XBsnX/2jf6/lPafeWavEx2Ejdcpj26u/1bW3PnZR9fr/51/bfI196CdMURVHULdXjhGmp+++Z9uvRw7TbW3mTRZguqKb9l2/U8/un9l8Sv6OEaYqiKOqW6qHC9NaKMB1//GaKMF1QJkzX7b9HHydMUxRFUbdVfpi2Ife7ruf2f+Tn984Y3fff/Ef7n2FvUS4Ypx4Lp7/+R/tvbjt/jbQT1Lwg+d/tv+l5wpoTPv/n72q7dG+2rvffvJ/ctqVV2s7sMP36v+1//k09l34bP8jP//a3/27/J7aM1P+8yvGTedzhMedYZmktC9PP7V9MoH391/YvXVB7av9ZB9z/+ps5ye1P/vrMuN1uvkba/JM3jlct/1+2jUQtCdOvz+2/SBtm/V0b39Ttv/y9CeY1YTOz/6bdb/51vI2vkX2JtuNUyTLFRZimKIqi7quSYXoUvGxJyHNXcmqYnttOUOcN0xI+zZCQWMmXinWC4WntzDsG6ZMWbangHiz3P3/LbJfU6LkuXKakisK0hD8TpPv6U/svf9Oh05YT4GyYDpdzaiokzw3TMp8bVMP657/5odV+AUisN3l8Iif2uRW2U7zMSUWYpiiKou6rEmFal9MT7QWlv/73sJITw3RXc9oJqmSIw9xlvG0Ieoi7nte/rhOmT21ndpiWwN71DHs93Wp6annnS8hou/ovAP82CsYly5SVCYup8gOeDtNd9eNwh95oqa6HOTJONwiRbk/0f/3dPJYe19vVnDDttOP3djftvzvb6Qdjs0+xwJl6bNjHv8jxcXus/8uG+XB/SpY5tQjTFEVR1H1VOkyPekXdXl6nJ/PUMD23naDOF6bntX96nd5OyTHwKvX8eFc+8YNxskqWKazSMG2mD2HaBLZ8mP5LZDiDWUe2Z3ZGmJ5aT6oX2hyD0XK6zdnTdUW3o2SZE0uFdLXO3DEjTFMURVG3VMkwPQrG3nABJ/ydGKZntxPU2cJ0dttWrBXaWXIMzLhsbyyzU/42RIaGdOOec2PZS5Ypq6JhHk5P5zgEZsJ0bNyxqhmhb3qeSLthpbYjOj29PhvKJ8oNxiXLlJX71wOpb9K90qoI0xRFUdQtVWGY7k9QnFwm9VhJO0GdK0y7Qy/G27ZerdHOvGMQCbmRij4PyfHcEpL/HtvmkmWW1/bCdC486u0fbceybZ7qzTflBuOSZcoqEqYTv/eqCNMURVHULRU902Flt23FWqGdpV8O3LHpXc3ahv/terXHITn9RadsmflFz3Rf4X6Yn2PHJfdYqkqWOa2cceKZ40qYpiiKom6p5odpd0ysO845uYzfI+o9VtJOUGcL0+HY39g8a9QK7czZn2GecZBd3jvuP6fzjnvJMvm6hTA9axtmBG6znlTv7nhb3XJ7rSd6ueeE/7BKljm5JvZDijBNURRF3VLNC9PqyhJ6+igQRcOvH6BUzQrTuXaCOluYDrc9vDKFGnu8ytU8Tm9nzv74gdlc63l8ST7/eVDjq9+3z3//X/8KIGq6s0z4Oli8TGFdNkzLct7+yLz2etDpwNfVkt7rbnuCq3nYdtI91/ZY/K2/ukYqlLtDKf75r/HbdI+rZJlTizBNURRF3Vclw3Sqxj2Y4+BsyznhLRWmUzVqxw3tmVraTlejS/BJqE/tk6pMj/myWthOyTHILeNc43v2MqbCY1ayTGGZAJksL7yeGKaTFQu4Q/hM1zgkmu2JV3AzmbC87UyH7q4kuOf3KRJgS5Y5qQjTFEVR1H3VzDAtobi7K2EQcG1JoPZ6OtVVHFQv6NDT7Ic1mT92Rz7bjrtus8wlw7Sq/9V3DXTnzWxfcS1op+QY6OW80N5dZSPz/Eip61yr5zRsT92ZUfU+u/OeskxJXTdM/ylz98OyMK1KXbv6L9/4oXpeb7DZdqnU+G639J0W4/uWCLAlyxQXYZqiKIq6r1pwAiJFPVBNjJm+nRrC9OVOFDxnEaYpiqKo+yrCNEXF6l7CtBlzffOhf25F/koQFGGaoiiKuqUiTFNUrO4gTA+39N5Kr3RfdhiPHPvYMBfCNEVRFHVLRZimqFjdapiOjOVOX8HjTiuyj+6XBcI0RVEUdUtFmKaoWN1DmP5GXeljY0Ha1Ouzd0ImYZqiKIq61fLDNEVR1I0XYZqiKIq6pbJhGgAAAMAyhGkAAACgEGEaAAAAKESYBgAAAAoRpgEAAIBChGkAAACgEGEaAAAAKESYBgAAAAoRpgEAAIBChGkAAACgEGEaAAAAKESYBgAAAAoRpgEAAIBChGkAAACgEGEaAAAAKESYBgAAAAoRpgEAAIBChGkAAACgEGEaAAAAKESYBgAAAAoRpgEAAIBChGkAAACgEGEaAAAAKESYBgAAAAoRpgEAAIBChGkAAACgEGEaAAAAKESYBgAAAAoRpgEAAIBChGkAAACgEGEaAAAAKESYBgAAAAo9UJh+a18Pu3b37l37riv5/+FVpp7bW/u869t7Pn9jAAAAuKDHCNNvz12I3h2e2zcTaN9e+5C7O7SvelLPhN9M7WQ9eu5phGkAAICt2n6YNkE6mmR10D24cZowDQAAgHk2HqZ1kM2F39dDNui+Pe+6AB0P43MQpgEAALZq22G6C8rvWq/jeeS1PWTmIUwDAAAgZdNh+vUwZ0hGH3ZTYXlZmA5PcuxDtPmXMA0AALAtGw7TfY/zEIL7oGtC7m4n/+9OPtQ9x4mu6dlhWo/NNusfF2EaAABga7YbpoOx0F0vdRhwda9199hJYdoM5ZD5ZD32iiHKm4R6hnkAAABs0mbDdB+C9WXvTK+xuQye+VkH6NxwkFlhWo/NjgdyxkwDAABs1WbDtBuQTSC2Wde7XN7pwzxMr3d8FYRpAACArdpomPYDch92nTDrXeWDMA0AAIAyDxCmTZgd7nTYB2QTbsMTFX2EaQAAAKQ8ZJjuw68/fjrRMT0rTOfmMY8RpgEAALbngcJ0H2bfzMmCOkyPhoAE5oRpE8i79bzq+d5e22fnUnyEaQAAgO15iBMQzTAMW+oa0+7PXre0Cd+Zilz5Y9SGKVn3VGAHAADAfXqIMC0/6Ws9v2t3BzXNCcyjYFwWptVy/t0Pd+1B91ITpgEAALZps2FaEiwBFgAAAGe13TDtXUsaAAAAWN92w7Toh1cMV/EAAAAA1rTpMN2Nle7GOEugdjuo3/rxzQd6rQEAAHCCjYdpJTwxUIVr+fnw7AdsAAAAYKEHCNMAAADAeRCmAQAAgEKEaQAAAKAQYRoAAAAoRJgGAAAAChGmgYfWtPu6bveN/hEAgEfT7Nuq2ssnYpkHCtPhJfLU5fFeZSq246193vXP7bUuId7fKCgoeZ3dqmP91D49PbUVaRrYhOO+6n+n6/JgADwa81n4VB/1lGUeI0ybW4sfntX9WvS01z54qRu66EmhNzVP5BrVh2dCeJo+Zjs51nrK5YzDtA23E4H27Xm3SvC9pzDd6A/d0jePvGO7r6uTvumfzy1v2/Y0jT7e6rVmqqraen/k+CeVvkaPbW2Pc3Xlvzg17b5ynvNcPcDv4rH+h+zrRNW/67nF8Zf4PE8v8rr4pd0f/9AzBprf5HctttxQ1d5ZNph/9HHgPG4fS27buNy21jsG4+rb+UNec2baL/LbEOHtrz/PKZ1L2w/TJkhHuyp1+BqFnb4XexSKnIqvD+Z4v7uRMC1PpH7OcreVN8u9a1fNvabtWwzT6k9a3QdZHX/DOZVZ/y1+SN7ytm1KIx9O+gtboviLSMIJr9Hb6ZkmTA/ckJcuN3g2+5foPG5VbvDU5iznBeYgsHpBW7GPv9gvZ7NCsa6hreXHoKQdd5nRF4NgG8aPmy+jy7+IbjxM65CUC3Zd4PGHBbi9i91QEHdhdSvy5wO3Ik+5tTBtbimfG/phtjkbuAvcbJgePuTGbyYrIUw/PPtnU6lKXmiNe7Dlh+O+bmvCdNxGX6Pmr2GP/SVqRu+pGEKhP08j4TbXkzwsN4TfnFH4rn7zXnPD46ltnbc/vjMu43w5CL8YePsa+SLSOdby+PLfvW2HaR1m8lmmD1t2HtuTuXIv5aO4uTCtntL++Uz9NWGtIR4jtxqmC98sFiFMPzbzGpM62xe2LSNMb9jvbW0CXRBcB05wjM3j9iZ7oXB5SB33/rrLTWxHZ87+hM65TGI+d3hHdvmyzqZNh+kuRE2Guj6AmaA1d4xtlOq1DsZY73aH9vk1sgUmdHbtLDw5ckk7ot8nHTD1OHCznJp+iC73JrM+t4edP9wl2o7zBSRbqedi4f70xsuofTH/ernZbF+0/dwQjwXHIGZOmM5++Yh/ObCKjpt681z4RpEa83oM3o6cAJWtSEDot0n/aU23NywTaavTyKz7tpZtcddfVXW7X3HbOqonNTgG0XYcsW3zywyxmfHmfYkvQCs66WSeJcfahM6unXA5+b9MTx6vhc/pLb9G3b8C2Jpz7Ef7caZjrU2H6cLfhey2SXu5bSv43T6JG+pSvaNT8ySDoRMkU+v2DPNX1dBrOxx75/Fw+IcxZ39CZ15m3KvvfsmY0WNvXmPJF+HYhsN03+M89Eb2wWMIHfJ/CR4qsnaBpQs8M4YEpNihAvEa9YraMH2QsDaev6tYCFvajjBh+vB8SC4bNmV7axPltXNKmC7Yn6llxs9f5nm16xoP8Vh0DGLOGaZLjlvHjAmbOVbafEglynuvOTkMqJPS6mR74fuaPYEyUd4H9gnbNnUMYsFgatv6Gp4DO3/izduEpQXv7VdUPu5w8bG2IaqWwDqev6vYQSt4Tm/5NVoUpqW9ixxrx3SYdo5ZYl3R34ULvg5OlhmGYE3OM937mly3y5m/PkaCs/d4P2lkzv6EzryMO5xDbbf787z2Fn5Oiu2G6S7IDCHE9ji7pQNM95gKPIlgFQ1VXkAaQo8aS+3GmDfZjn6dQSAKwpDbE62W6aeHAa+gHeHtu9dzKV8wEkMc3lTwPjy3r2/+ytLbpmXDYahkf8wy+pj5C+kvJuljEIbM3BCP4mNgmPki67aKwnTZ66BjP3TmvUXYD67gQ8VcoSG5GtNOLJxGeGHA6xVq7AlV4TY3KtTU+/bYBNtmQ0nijXDRtpmeMhWiGm9+1U7/QRyGxuGKCn5vpeoB66ePj3/uzXv5G3vKvJBfEIJdNqD42xtt2zsOBcc6CENuD2T6dVDynN7yazRg1j16jTmc4+b32jr7IuU/PSXH2jcnTBf9LmS3zTwWPqdlr4NThUEvZpgn0Yua6qV1Ame8gqEfdn7VTmRIh/d4t8TInP0JnX0Z90tF7Ywxzw7vcA2vjbnP/2bDdB+SdNixgSX4WYecLmipMGMDrh+SJsO0Dk2p3kCzvPe4bSu2XCJElbQjbJBU4VNPs7JhLsZs2wphumR/sgE1FT6FWS7YLnNscnl3bOIYGNlt1bLHa93XQWfOB61l3lDCUDjDwjBggkr0z7GLg4XZ7hWCij5eqQ//aDjIrT/zmD0GYVsT27DETYfpU451dLnEB2JJO+JmX6OhGb/jqX007HPlrqPkWAem2jUW/y442xZ7r4q2W/g6ONWcEwRTJx9abmh2wvR4/HNQQZgcAmrfztTPY8vHaCtzjoFvaTvu/KbmttUzr8HMr5Fns2HaBmT5vwkXNtPoANOHDR1Y1IM24GZCUiQgmfVPlRduCkJUUTuiLDBKe5HxwkOdHqZL9ie/L5kwLVs7HuphpqWf76JjYJwpTJe+DpTFHxDmg1mV6o2be23ghWFg6RuXkR+XfHpQsaFiovzjWdIzLaLbNS+k3BQbbBLHX4kEvqJjnX0u48eu7Dm93dfoyGSYnvGairVfcKxDs99/om1l2pg6Xmu93k42JxRGeogD8V7a5cHWhtpRT3S/3tHjI4nhJlnLt7OkHfcYqZo9nESb/VrVNhqmnYAs+gDmBBIdcvqH3XlnjJmOBCQT8Kbq1DBd1I4oCdPTbZ0epkv2J78vuTA9LGvXNxF2i4+BcaYwXXLcjKVvEJ1GwmEYBuTnbG/1wjBQElRsME3W6UFluo2+wuOZ/6BOBY5IWFh4HG+D+TKRCVaRcFN0rLPHJx6+Sp/TW32NjswO05kvO+Y5dNsvONah+e8/C38Xpo7XWq+3kzmhMHUSXWoIh5UKo0sDZ36MdLX/bYVtjZlxDEIl7RRt24Aw3XEDsgkkQ/Dpe/ZMQOkDdB88zLzxINKJBCTTU5jLTCMn9EguakfkA2iE2bZumXDrxsfTsyBMl+zPKWE6fO6y6zrlGBhnCtOlr4PO5Adtnuplc8/+V3/yjloYBhYHFbP+bpmwhYmwsGDbzBvqssM1BAH/S4i64oEaP6tniwjfwMvaTzPry1c+EE0z+5/5IMr0FC7a1+xzGQ94pcf0Vl+jI7PDdOZ5jrVfcKxD4es7J5w3+7xNHa+1Xm+ncnp+kz2lU/MkhngsDo/O/MMxcIP6UMljNGd/Qre8jGPp7/tDhuk+ROmfdZgxwcQEle7xGYGsMyc0hQpCVFE7YmmYtscgum3mJL/Tw3TJ/phti33ZGZ67RJhW2949rrY9P8TjpGNgLAnTkXUNJzqu8zronPIh7TLrWSkMLH3jMh+E8fWrnvSVtq3ky4deZskiA7dHcCJwFbDHLVunhmm3Hdn22Lpix7XkWGefy0TAK2lH3OxrNDRj/8y+pEKt2Xbv8ZJjHYiuN2nB78LE8Yo+d4Wvg1PEh2f4svO4gTkcIrE0PNr5/bHE43HXd3byoTYss2ystNG/Zua/Fz5QmO4DSXglhj5oumHFhKx+uuqVdHOMXd4LMsMy/dUf9OSckjBd0o5YGqZtWPPal+Mg0/vgpyoVJJ1tfM5cK7tzwnFT22YWiFw72z9uA3ssDhOB9KRjoEVfKyH3eJmGnKusdLXO66CnP6BmBTT1ga/OdD+qS7F6hjPkU+sx7agPzulx1kuDiv0g9N7s5CNXpvfbtda2OfNO9CobNkSp2znLgQuP3RR7LPQl2OYFj1szHDf1HKmeWXcv7NUfvCd8+bGWg50JUamAV9COuN3XaCB6bAN228L1q3H95otQcNwuHqadYz71u2C3TY6nt82yXXZ/wmNd9joYyPLdPvfLz1l8zol38Xn+aI97986HL6PX4dLAOcyfDuXRxx1z9id0+WXmjst2mddG6vdz7CFOQDQBylZ4QlkYduwl1jIVLuOFrFgFwasoTIul7YjFYdoJa+Patbtu29JBcnS8TcX29YT9GZXsYP9YOkwPvdd9pY9JyTHILWNqvD/hNrnzpi71V3LcjPmhYPiwSVX+8zq+TOzDeHFQyW5b1Va5XiyxZNtkZif8xCpox3ywp8p8QdGzj3jL58PJTevG2jv7HavwCS891ksD3tJ2xO2+Rqd/T2Pt2C990VJfgPSMxhXC9OzfhanfudSyBa8DIzx+0deF15OcKj80x4ZZeFX9EtmXGcsFodKGzXB8dbjNyfHXM08kXHwMQjPb8Sw/YdFjvmzO/2V/jDDdhRwdjlVPnupr7sOqO09I90KO7n6nru2b6HHVPaTxkBOEm9IwrSxpRywP06L7QuH3jprrOvfrS4c1tf2v6hrN5hibSh3rhfvTrd+bv/8LgjIVpoee7dS6HYuPQVmY7o+Xvz/mMobZ/Vl83DTzRhH9UAzo60n7HzjTY3976pq18mEVBqpIu8uDihidGKm2S0KqrLxfX/qDcMm2daLHwVQseJntUqEpEVqSO2uCidSc5+im6Z7Y4Bion5NfKJYc61MC3uLntH/s9l6jZWFaiV1pJPm7fY0wbdebaldLhml9vPVsUQtfBwP13PbzJXumR728sXICYjJ4vkgbEqKPqeEbTnhMlRcqnYA6Gl8dBPPU+Gt3W3NjtJceg9Dcdlwly1jDa27J7/pmw7SkEAkUmVAFPKyyNwvMY3usEh/i6kYe+Q9qnh+gN/N3IRv0gQWWdDY5thumdQ9k8qocwCOzPTm5nhcsN+PDf+rYF76ZA5sz93eBMI1VmL/y5P/CErPdMC2mhyMAj8vtQcVahjCtPtjDP5er27DbccSRD3735DSeFjyyRb8LhGmswAzlKjnpe9Nh2o5hVbcRdzuo3/oxtwd6rfHg7JsHyW09pjctW/UQtG1P9VAlb+bA3Sv9XSBM40T2PJfCz8KNh2klPFlNhWt1gtfSS4oBW6R6Upf/SQsTEic1RU+8cwOEenz5NbqAbSj9XSBM41TyGqolSJe+fh4gTAMAAADnQZgGAAAAChGmAQAAgEKEaQAAAKAQYRoAAAAoRJgGAAAAChGmcUVf2p+rP7c/PI3r44Ne9vi4f2mfnv7RVvVvhZfo+aPdV/+QdbxwuTsAAC6AMH0Gn+vv+lBYvW9/vplA86X9evzUflTbVr/oaddGmPb93tYSpFWYLg/DhGkAAC6JML225lP7wQmFH/Zf9ANX5m7XzYRp3+d6OG70TNMzDQDAPSBMn8FN9kwTph8EYRoAgEsiTD8KwvSDIEwDAHBJ2w7Tx/c6nH3X9RB/lZ8/OGN0P1Sf2s+jwOGM4+1C55ehp1mv6+No6MZL+9E+7lc0FNrtkkoE26/7oU1vqEgj27NX++Fuk5T8/HH/0n7Vs3XcdrLVH5+R5qX9WfbdHbbStXM8z9CVJWH6q2zbx9gxkG3zjoEy+Tp4H3kd9Lpx5mE7QZ0a/I+1Cr9B1b/rR3P+kGVf2spbth8mkg/TTbuvK5nnqa1I3AAAnORhwvQofNqSIKVn77lh+lPyBDl/LPTCMO3NH7avuCfmuY+nT9izpYKhnvukMB2M/R7VGXq354Zp94tGtORLUvxLxZLXgTNcZ6KuEqab34IQHVYmTDd7WfZJ5lFVtyduPgAAD+1BwrQupyfaC2ReMBwHVtsT6wbMMLA55oRCt/3RPMkhGbJtEvC6HmgvKKnpE20uGubhhH2v11b10uvpUqeGyNCsdbvPqfeXBf95877sjF4HZp8y+xMcL/tcqx5xMz3zGih2/KUPw9kwbYZyqBMVf28b97XQ/N7Wk8M86JkGAGAtjxOmR8En1TvshzI/1LmPjXsyjVmhMBNuh6CdGH4R4+xr9AoiC8J0vn3nuE2G8mWmj5t7/Ce2zX1+vDAdPG+p4+ZMD7dlOD7p10CxOWE6Ow9jpgEAuKSHCdPjgJkKxvMCc87c3tthvkT7iZ5PM47XhuOgTg3T7vZna+We2enjNtUrnAjbuddB6rEb7pk2w0Lq6DEiTAMAcEmE6e5xt5fzcmE6un1OiBsv625buk4L0/Pa6OrSYdrdh0TbwzpODNNiasx09rktRZgGAOCuEKa7x6/TM+21pcNhbgiBO85aze9dgSK7r6IoTMeGUpzPTfVMO+sKT1rMXf3jZIRpAADuyuOG6WQv5yXDdDg+eQiLsUAc7XXV3KB9Wpj213WW3teE6eM2EfRTz2lBmLbHIBraz2hGmG7MXRL3f+gpA/MYYRoAgMt4zDDtjnuV8oPbZcO029v6oTbbG+8R9gOzGccbXgc7Ehg77j7H12+5oVTm9a8r/UVf43n9uzvOOW7uMfB652WbhuctWP6UMK2Olbp29aWC6YwwPVwWTwLzUQfq5vd2L1+S+iA9Faab9qiv5vFU7QtvWw4AAJSHCdOpGgfPgjA9o52uEj3CbojMzeeH3KCcoQjxMB1px1a+pzteE4F8jtz+OOXvj/v8xOtDePwKwvT0tkVuklPk97a2AThVv4yuBR29NrUqCeH9Y7kwfZQ2zXWmuTweAACneNAw/Z0ELtWrGQudlw/TYXDL9mbLvB/dMCkhug91+SEiPXP3RGf5rhLBWPX2Ru6AmD52CxWF6V5/F8OgR171lsfuzlgSpmeE9q5OHgZSFqbV2Gj/7ocvba17qafDtDjWMo8O1PHB1wAAYIYHPgERSBt68SNfNLxhQiv00F/F0DtNzzQAAOUI08CIE5YTPc/ZsH3rGnUHRDPMo+JERQAATkCYBkaCnufwBMz98Lq6+NU+TuKPlVZBuj6SpAEAOAVhGoiYPgFT1b31SpswXbVVvW/J0QAAnI4wDSSoSwCOTsBUryV70icAAHh02w7TAAAAwBkRpgEAAIBChGkAAACgEGEaAAAAKESYBgAAAAoRpgEAAIBChGkAAACgEGEaAAAAKESYBgAAAAoRpgEAAIBChGkAAACgEGEaAAAAKESYBgAAAAoRpgEAAIBChGkAAACgEGEaAAAAKESYBgAAAAoRpgEAAIBChGkAAACgEGEaAAAAKESYBgAAAAoRpgEAAIBChGkAAACgEGEaAAAAKESYBgAAAAoRpgEAAIBChGkAAACgEGEaAAAAKESYBgAAAAoRpgEAAIBChGkAAACgEGEaAAAAKESYxpk17b6u232jfwQAALej2bdVtZdPa5R6oDD91r4edu3u3bv2XVfy/8OrTL2e14PZFqdkm7bkWD+1T09PbUWavj55Cr6V3/h/kvp230/6Vf5VP6v6ccZT9Ouxbb+vhmWmlv1Jr//bWpbV03CHVnjt3DvzXuZVLb8QGSXLLKaCkFrvwjB0kW27K1/az/v37Yfqz+0PT269bz/rOcp8aX8erbOvjzdyuO1r4aGf/9PI2+ADeHvuQvTu8Ny+mfT89to+7yS87g5tMr6qebwArubftYfndUL41sN0s6/4Bb0x3+vw8715SuTfuYHIDU9hpZY17eXmuYYfJdx/K18KCPjznfLa2QLC9JalA+8jhGnFvB7o+Cojb4MbZ4L0cyz+vvWBOhJg355346DrVHx9J3g99OveSpg2b/BPtfrMxY3IBaKf9KSU0bIz3GTPtHxWdL2shOlFTnntbM6xXh4+S5aZozBMe861bffi+H4IudWn9vMZ8+Tn+jbDtPqFrrvP7IphmQXkbXDLdFjePad7krsQu2u9bGyCrQrNaiiI+5j88Pp8aA+E6Yym3Vfql/KpfdiOjhs1CkQmWE4FIpm/C04Siu8eYbpI8WtniwjTmzIE3O/an88cJG83TAvzOmD89GLyNrhhOqDm8+lre/Dm6X/ugvTagTlnS2GaX8ib9aMe72z/LC//zgqW8qZPmH5sxa+dLSJMbwph2qAjrJS8FW5XNyY51yvd6XuvbXA2oXZyuQg9xrpb3gTy3aF9fp2xpjlhWg9ZiW+b7oX3etn1FwO1Tln20D3e97Yrw1CWnf+Fw7TTTVx+4qYZezX5y2g+BLoZG1mu0kNDVMn/ZXr8fa1pm+O+rSs9JltXVdXt/hguof90pdqQ9mr9RqHWrdhx3dJedHubcLtS7WycHJu5Yfonmaeb162J5cwyXVCTUmOa3eWTQ0v0vKaHtCsJd6P5zfZP1RrBULap2x69z2rf3O3LDXmJneCpxnb/GNn/rqdYtSHtmWXUuhV3fHv02Mkyo+1KtHPTSt5DsuHThImJP3WfNUwveX8T3v7IMdjX/vtV7BiEluzPBt8TF4Xpxpyo+J0NxV3Jzx/3L+1XPVvKkjD9tXlpP8p6PyxpR5b5uY4sc/yiZ5jw4F+sSslb6Fb1QXLoXe5DYR8IVciV/3cnH/rjps1JgYt7pSUMeycqBjW5vnOGadlPE6T7knmedXu2nBMxbZgOl3MquZ1m3NWMsdL2g7C2IXdUkV/oIQDHyz+BQm+PvNn7bciHpXzouMuNttlsX6K2fqKG+bP+ZOkAZ5wSpr+XEOgFY6dGoVAOf2peVd788v/YPKNaOUzHrnzSVeR45E7wVGWuomF0z4+sP2zjx8h6vGEYE8ctbOemlbyH3HiYXvb+Juz+LHsf9czdn828J+ZOOPTrw94NoTOWq/InLM4N01/3QVgPyt8urfnkh+iw6hc9Y86Cz3BY8ta5UV04HYJl9MoZOpR2j+le2D6QTg0NCZjwKeX32qrx1UOAz67znGG6q366d2Jlt62R5Zz9UeXu05vZTjd8u+yH24xfw+CN2e1Bacybe+QXulE9L/W+PTb+G3d8GfPGoKr/gPQ+rLo2Yx+gw7RaJrotqXb67Z74wJ1h6oOzr9PbKVEapj3yREzOI7wAHvSQmpMYw3W4Adz1qxwr1Vud683uwuQawTnGrF+X2xOtep7N9HCcsQrTat6fguc6tYz7/KgefS+M6zZHQzOEmaaOm7v/qh2z3e78N63kPcSGz1sN00ve30T2GJjH1tifLb0nnhCma90z7LWvpg/L5ELyvDD90n7U83Th3Gnrq+oZ77YhDNOpZdT8errU9NCSmb8D8Mjb5jb1oVEHPhtCg591cB2Gg5SFaRNQU73PNsDmVnrmMG22bQjTJgznw/R4n2LtOJZ8yDgfAuMejZJfaLNMPEybNoY3azNfpC29H6meFrOOU3tibjlMe+RAmZC2yMzlTDCODoGQfY+FXxsKZ7zUPIn1rcasX+1PEPSVWMCdYpaJhenYdZ/NfKO29POR6n0267ib3umS95AbD9Npsfc34RyDOjLUYtZ71Zxt2/B74qJhHinOFUGivcbarGDr9TD7YTpl6MmO7YMTtGf0Ts8eqglL3ja3yR0vbQKkzak6LPZBUYfD7sGSMD0RLpVsCNbOGqaHXuRx8I8st7idwaI31BM+1GJjCoeKhelh2ngbx23Ne0M//YPjbsjB64LamcP0omBs1q1KQqMa3jArHMtTdpEwnVh/LkynbopjKhamzbRYEA7b8nqvM3V3YXrJe8gdhOn5728iuz9iQVDOzbPl98SlYfrr8dN4LLNTJ4fpWM95N1Y6fdk+d73Zqj5Njute9DmOjrxtbpEOfDqY9kM8nPCng2v/cGzedC/zmAmXiWEPHTN2mTDtKfxQi95swKvTw/R0G30RpifMXK4oTCty+EfhU37OrkeWucUw7Q11SdSpYXpOG6oI09cL08ve38SFwvSW3xPnh+l5w0NOD9NKP6TEXe9Q4QmF87arK8L0Wcjb5ha5AXkcdvtAacJgHzhNuLTDIHLB15MPl50H6pme+4HROeWDUGr8J02zzOlh2syz5LOyhGknXxMf7Jcgx6ELWrcWph2qV9e9Coi5ssWIHMubC9NmGanYMTDLrNUzfcpxvilbC9OL399Edn/ESmF6y++Jc8O0d1JgeHOXNYd5eL50PeHjYO1uqxum5/Wu5zDMYzl5W90iHfgSYbrvfdY/6+BoM6wJkt20WFocm+rNHgfYiCVh2tkXYzgx8MpheuqN3VXwoWbfaKPLSHAefdiUhemiD8sChOneGmHakmNlgqkbPi3z+A2FaTv8IrGM6X0/NUwXP4+3qiQY28AahFIxnOQ38TtX8v6wILDOf38TE++5s4LRnP3Z8Hvi3DCdm88N2uuGaZffA+0u77a/fL2+/jVzA587d0TeVrcoFqb78BdejWI0BESYcNyFTlnH5B0Q7TpVSA2u5mEvx5cIn8acMG3DsR+G3SuG+O1cIUyrN/zuzW78QTVS8kEY/bBT12V1r626Qpi2y8l83Zn1evKjkoNXFMJmLlcSplXA7K5IETw37lUpomFauCfvrR6oZXuWhml7nILp7r6oOjlMC7vvcszDK4ecx1H/fqnfpQVP8Bwl7yHu77bzHnD0QtxEkCgJlksC6+z3N2GPgUx3rwCirwcdXSY0a3+2+55Y0jP9wV7rub+6hpneP3ZimG7UmOz37c/HL/5VQ9R0px1vee+kxfEwkP6a1bLOyedtwWc4LHlL3aYuEOsw6IbjrtQ1pt2fRwHWBMZ0hb3MdnhItIKbonSGYJyuSA90sh1zTehrh2n1vty/4U5+zpz4QTiuqq26Zdw3gfEbw7wwLbwPsFg90JuN7KgKYHPCtAlruQpDblGYDtYZVm5dybHDiQC8iLyGFodpkdsfdUMV9e8aYVo9l25Aj1X4/JzE/J7rWjVPF72HqMVSvZ/mWs1L3ndMhe8Hay8Te38TwfEd13j/y7ZNbPQ9cW6Yzl7HuUr0TOeWcWrxMpGrcnjDUKI1YwjIrC9WCMnb5ja5YboLlToc7w5qmhOWo4Gx9/aq7hoYhFf5WQ3/iC0Tm1+1Fx8tUhamVZhVPdFmKIoKteY60ONe9uuEafvLmPizo1X4Qdg28kHgnemu73Qm8/VB3n1DNx8aw7TZYVqRtvbB3b6Gus8PjiKyo13QuqEwrV40o7sfSs3tcVXXrzYh1VYiAC8ibZeEabVceDJld6lAmW6OzyphWpGfY8fO1KphWrjhdfi9W0Hpe4g8pnqih99r/R4ij8T/xL12MDYVeQ9Z9P6mqJ7r/uof/vvUsNxY4bYpG3xPnB2mFdU77J7sZ+9IOFx+7uQwLVRP8uhOhmo+3WOdlLgD4odajfHOLNcxvzOMl15K3jY3qhs2kQl8OCN+IQE4nN5T3hOAGzW3Iwwj2w3Tunc1HI6BC7EfnvfZUwFgJV1Pax+keT8AbpX5a0XsLzmYst0wLfphD7GhErgE+6dduqKAxzMay8uHNHCrzLlOqw7DeiCbDtN2zLC6jbjbQa2uyHHY+VfkwFnYX1ACNe7MnLHfXtV6QfTseOaqrff9eGQAt8de9YXP6WLyEbB1fXAeTthT4VqdtJc6MRDrUuOn6ZHC/SFMA3gI8sW3liDNx3Q5+QgAAAAAUIIwDQAAABQiTAMAAACFCNMAAABAIcI0AAAAUIgwDQAAABQiTAMzHPUNaKp6O7dZbY6/tXX1Ivv1D6dekpcxPO77eav6Ny6hBACARpg+g8/1d+0PT39uf6jetz/fTOr40n49fmo/qm2rX/S0G9Ec231d+XdLm7zRg16mukS4NbdZVbWNa2Y3OhiPKxWmf5djMDXPNfwur4MXeR1MB3x3n6P3Jjj+0j9e/64nAAAwjTC9tuZT+0EFaV0f9l/0A1fmbtcNhWl7y/FUpe7IZO+udpme4m31TA/BuD7+oadNu8me6eY3eR3IviwM09HATJgGABQgTJ/BTfZM32KYNoFYhdSwF7ppJLzV6duQXzhMb8qWQmNBmK5rtf+R3nXCNACgAGH6UdxgmLa90qnAnEOYLvfoYfqoe+bD/SdMAwAKbDtMH9/34fHpu66H+Kv8/KHSgVLqQ/Wp/Tz6BP7S/mzm6ULnl6GnWa/r42joxkv70T7u18fo2EyzXVKJYPt1P7TpDRVpZHv2aj/cbZKSnz9KWPiqZ+u47WSrPz4jzUv7s+y7O2yla+e4ztAVG6bnBuJj3c8/VZH1HWv1mB7vrMdoD8tUErDGW9AvE1Qu+JuA383TyPLuOHD5v0xP7Wdz3Ld1lRvyUrcFXzniFoTGYy3zqXndmliuX0b3/Db9mOZh+Zf00BI9bxeOTVWR+c32T1UQsIcwbbbxF/+YJo/LH9GTNavql3Y/2hcnqEvQrys9r17nMNRE7Vc3ydf8IdvmH4N4O6HGvqar2xnQDgAP4WHC9Ch82nrfftaz99ww/Wn4f1D+WOiFYdqbP2xfcbbBe9ydnqjKmf+UMB2M/R5V4kvAIs4wDxWAI3nWt0KYrtXQkdgyUmG4KQ/TtYSoYDlTkeUnx413dUqYdk8enKggSJ4Spuv9L34wdmp0GEwPc6K8+VcI06a9au+E1ESYHgJwvLx1mGMtAdgE6b7ky4UcD3e5UZifOAZ+OwH3d2nNL14AgEkPEqZ1OT3Rbs+vHwzHgdX2xLoBU9bl9QI7PtfusnpiwG1/NE9ySIZsW617oL20qKZPtLlomIcT9lU4t22pXno9XSq1b4tIQHbDbVVJEGjCKByxcJiHF4yljb1N7mpstg6zuaBsgnxuHi/QqJMVh57oxn4RCIPOcKUQv3dc9WzrdeXanKU8THtm9mh7AdzrVf3DnsSYCu11EBgb3VudPARFwzzUT3+0+y7sOoE2GablS0H9m7wug22zod4Nxe6x7nvnvTAu625s2+647WGaOgbeK0Ha6UN2ZJy3Rc80AFzL44TpUfhN9Q77YdoPjO5jsR7l3qzAmQm3Q9BODL+IcfY1egWRBWE6375z3CZD+UyjYRdS6tJ4ua7qwjAdHWoxZ10Lw/Q40EjY6Xqrg0vr5dpeuI+zzQzFIwvDtBraMN6nWPg1QVIF3Uzva0xxmBZ6f8Kf5x+XSCB3wrTpSR7CtJkvEqZ126neZ7OObO80AOAqHiZMjwNmKhjPC8w5c3tvh/kS7Sd6v7vrRVfBWGanTg3T7vZnK9M7X6bpenArZ4jEWlfzMGE6l4WzloTp6DYlwvRFeqYDFwrTizbbrFuV6s3eR4J4zClh2g7J0Mtm9i9+gxtTsTA9TBsH4XGYHgJ3vgjTAHB7CNPd424P7OXCdHT7nNA7XtbdtnSdFqbntdHV6mF6MAyLSATgzYRptVhuzPQZbhJzi2FaaSSIhoE1dgKi66QwbabpUJvYP2/YSrROD9PTbfRFmAaA20OY7h6/Ts+015YOpsMQi3Hb3jhvmd+7Eslqwzzc/V8wzOQM7NCMWJrcTJgepvtX81BX/5hxUmaJWw3TDtUT7F4FxFwNY+TEMG3Dr1p/bP/M+rvlwiCbG+ZR1jN9yjEDAFzH44ZpN1x6PayXDNPh+ORhPHIsEA/rHYdcN2ifFqb9dU1t/zk9RJjW671oiLqDMG3ZMOsGVsfJYdpsr6w/sn9mmfj6VU96uG1lYbr4OQEAXN1jhmkntI4D42XDtHtC34fabG+8R9gPzOaa0uF1sBNh2jvhcqLH2Q3eMq9/Xekv7Vd1/Fa4u6O6DnOt7nwYXr2ju/uh6aVNDXMYxhqP7p4YcatherhxjSwj+z3nQiYnu7kwrUKpuorF76P9Vz3U2TBtw6sKq/lx1sneXx3IKzPExN0/s89u8JUwPFxhI9y2wjDt7kd35RA9ebb+uubda2nmF0wAwDoeJkynahw8C8L0jHa6SvQIu+E7N58fcoNyrqMdD9ORdmzle7rjNRHIZzABN1e5y3wll4+EieVhegjr6Qouc1fSM22WSZW6qsmMLwuLzA7TQ8BL1zjkFoXp0Xr9yq3LtDeqoDc5GaaFtw7vuOS27UUCuPp3jTAtvIAeq/GxHvivVy6PBwCX86Bh+rv2Q63GHMdC5+XDdBiSs73ZMu9Hu31S9s6H+SEiPXP3RGf5rhLBOHEHxPSxW0r1QKsbnAQn4MnP88YL98u7V//ol7+jMC1sj6I8VoXHwtT8DZ92c2FaxO5+qMLqrF5adf1qCaJdQHVqQZgeeqClwuMyOjFSbVffi97v60phWokeB1O5MC3MX0/Wfr0AALIe+ARE4PqGYR7x3udGviz0AYm72mGKO/Rp8hsIAGAlhGngakxvdabH3A4DIUwjo5HXkh32lDrPAABwDoRp4GqGMK2GhoTDGZrm2NbO4+QjjIXDkSbuHAoAWB1hGrgmd5xrsurzXG8aG2DC9BmvSw4AyCJMA9fWHNt9LWEoCNHqZMTVr+QBAABWte0wDQAAAJwRYRoAAAAoRJgGAAAAChGmAQAAgEKEaQAAAKAQYRoAAAAoRJgGAAAAChGmAQAAgEKEaQAAAKAQYRoAAAAoRJgGAAAAChGmAQAAgEKEaQAAAKAQYRoAAAAoRJgGAAAAChGmAQAAgEKEaQAAAKAQYRoAAAAoRJgGAAAAChGmAQAAgEKEaQAAAKAQYRoAAAAoRJgGAAAAChGmAQAAgEKEaQAAAKAQYRoAAAAoRJgGAAAAChGmAQAAgEKEaQAAAKAQYRoAAAAoRJgGAAAAChGmAQAAgEKEaZxZ0+7rut03+kcA96nZt1W1l99oAIDrgcL0W/t62LW7d+/ad13J/w+vMvV6Xg9mW5ySbdqSY/3UPj09tRVp+vrkKfhWfuP/SerbfT/pV/lX/azqx8hT9FM9PG5LpuGOFbwOFPO7/FQf9RQAgCJvnQ/g7bkL0bvDc/tm0vPba/u8k/C6O7TJ+Krm8QK4mn/XHp7XCeFbD9PNvuLD98Z8rwPT9+YpkX9zIeoewvSPsj3fVhII9c+YtvR1YPDlGADG5K1z40yQfo7F37c+UEcC7Nvzbhx0nYqv7wSvh37dWwnT6k/CKkg/1epzGjciF6J+0pOSzLy3FKZNLythepHy18Gxrbvf64qhWwCgyVvnlumwvHtO9yR3IXbXetnYBFsVmtVQEPcx+eH1+dAeCNMZTbuv+h4sOqVvyyhEmTA6GaIEYXozTnsd1P1fnBg/DQAdeevcMB1Q8/n0tT148/Q/d0F67cCcs6UwzYftzfpRQqcKTPZP+UvCKGF6M056HcjMfFkGgIG8fW5XNyY51yvd6XuvbXA2oXZyuQg9xrpb3gTy3aF9fp2xpjlhWg9ZiW+b7oX3etn1FwO1Tln20D3e97Yrw1CWnf+Fw7TTTVx+4qYZVzn5QWuGgnQzNrJcpYeGqJL/y3TzWe9r2ua4b+tKj8nWVVV1uz+GS+g/S6s2pL1ahwC1bsWO65b2otvbhNuVaucByPGZG6Z/lXm/14HNlBrX/GPsGBtySLvxz84yKtzZ3lPDbMdUzQqGE0zI1PusxpC72/et/JxqY8kx6HqKVRvSnllGrVtxTw4cHQtFlhltV6Kd1ZgvzNFfGgB4LPK2u1V9kBx6l/tQ2AdCFXLl/93Jh/64aXNS4OJeaQnD3omKQU2u75xhWvbTBOm+ZJ5n3Z4t50RMG6bD5ZxKbqcZUzljrLQN07UNuaOKfFgPAThe/slRenskAPttVO1+rwOBrWCb7bjveD3cSVhycLqwpkNeihv+YmWuIOExoTVRXog02zFVK4fpMBjbihyPpcegC9Oy/rCNHyPr8YZhTBy36LFexYLfcwDYOHm73agunA7BMnrlDB1Ku8d0L2wfSKeGhgRM+JTye23V+OohwGfXec4w3VU/3TuxstvWyHLO/qhy9+nNbKcbvl1eb/OEIKy6PdGN6fmKfFg3EoKret8eGz/MxpcxH/qq+pOmvDDetWn+bO2eVDVMq2Wi25Jqp9/u00/Cmvpi0NeNnOxlQuyMMK16VX8Ktln11JqQF47LNVcN+T4If7/KOlRvdbRHVpHHuzC5RnCOMevX5fZE5/Zn6TEwY5hVqaEXXhjXbY6GZggzTR03d/9VO2a7c1fnKBf7nQGAxyRvtdvUh0Yd+GwIDX7WwXUYDlIWpk1ATfU+2wCbW+mZw7TZtiFMmzCcD9PjfYq141jy518nTI97eUs+rM0y8TBt2hgCrJkv0pbej1Tvs1nHqb3TWwzTOSb8heHThsIZLxuPHJdLhelYL28s4E6JHQMTpmPXfTbzjdrSz0eq99ms41y907OHcwHAxslb7Ta546VNgLQ5VYfFPijqcNg9WBKmJ8Klkg3B2lnD9NCLPA7+keUWtzNYFDJNmI6eqJgP07Ex00PFwvQwbbyN47bmhdzTw/Rd0eFtTpiOjRd2KwzTdt2qZDk1vGFWOJbDf5EwnVh/LkwvOQYmTJtpsSActuX1XmfqXGF6rS+UAHDv5K12i3Tg08G0H+LhhD8dXPuHY/Ome5nHTLhMDHvomLHLhGlPYZi2d2JL1ulherqNvgjTY9EbvQQ1CtOKHMpR+JSfs73Vsswthumlx6AkTM9pQxVhGgDOS95qt8gNyOOw2wdKEwb7wGnCpR0GkQu+nny47DxQz3TRMI8lYdoZGlKPrqhhllmvZ/rcf8I27eRr/IXiKuRYdAEtF6ZlO82wiFgINoEwGqYdqldXjZW2gTDVpmnvlsJ0wTE4pWd68dCYlTDMAwB68la8RTrwJcJ03/usf9bB0WZYEyS7abG0ODbVmz0OsBFLwrSzL8ZwYuCVw3Q2IAcKwrQNn9FlJDivFKYXfSk4wdbCtB16kAifpud5Kkxbst8mmEaXMY8n2jvZxPpjYbrkGJSE6TnPxzn1YfpGXpsAcEXyVrxFsTDdh7/wahSjISDChOMudMo6Ju+AaNepQmpwNQ97Ob5E+DTmhGkbjv0w7F4xxG/nCmE6El6TSnqmTcj1pqvrTpsrbIRtF4Zpu5zM1105RE9+ZHPCm5nHDX3CvbqEqjAYq4DZXZEiOM7ucqkA7p68t3qglu1ZGqZLjkFRmBZ23+U5Ca8ccl4Lfs8BYOPkbXibukCsw6AbjrtS15h2fx4FWBMY0xX2MtvhIdEKborSGYJxuiI90Ml2zDWhrx2m5WN27p9/S8K0/RCPVdVWa/VMK15Aj9X2g4QJa7kaBePIPKbUzUTUv0uWUZUbypAcO5wIwIvI62FxmBZLj4GZf2mYVi9AN6DHKjzWq7jQX24A4B7IW+02uWG6C5U6HO8OapoTlqOBsff2qu4aGIRX+VkN/4gtE5tftRcfLVIWplWYVT3RZiiKCrXmOtDjXvbrhGn7QTs11KMoTItGArJ3JQ99t0SZrw/yK4VpRdraB3dAHIowrWoU1uQYhicSdtdnlukm+MaWGd39UC83p8f1JwmdJqTakp+vFaaXHoPiMK3Iz7FjZ2r9MG1+XxgvDQCKvNVuVDdsIhP4cEZ82AKbNffLMgA8iO2Gad27Gg7HwIWYXucH6L0FHof5S0/krzgA8KC2G6ZFP+whNlQCl2CvVEH3NLAJ5nyIYYgUAGDTYdqOGVa3EXc7qNUVOQ47/4ocOAv74UugxhXNGfvtVa0XhHWs+XIMADHysbF1fXAeTthT4VqdtJc6MRDrUuOn+ZMwroswvYJm39YSpPlVBgCffGwAAAAAKEGYBgAAAAoRpgEAAIBChGkAAACgEGEaAAAAKESYBgAAAAoRpoEZjvoGNFV9v7dQPtb/kH0Iqv5dPwoAAEoQps/gc/1d+8PTn9sfqvftzzeTvL60X4+f2o9q2+oXPe1GNMd2X1f69uO6qqqt97lr2uplqkuEW3MLZVX3e83s2w/Tv8tz+iLP6W+Tz2mzf7H7EL2HyPGXG9w/AMAWEabX1nxqP6ggrevD/ot+4Mrc7bqhMG1vOZ6q1N3Wmn0fvi8SpiWbbaBn2nOLYbP5TZ5T2aaFYTq6D4RpAMCFEKbP4CZ7pm8xTJtArEJq2AvdNBJg6/RtyC8cpjdnI2G6rtV+vIz/WkCYBgBcCGH6UdxgmLa90qnAnEOYPs1WwvTx97aO7QdhGgBwIdsO08f3fXh8+q7rIf4qP3+odKCU+lB9aj+PPrW/tD+bebrQ+WXoadbr+jgauvHSfrSP+/UxOp7TbJdUIth+3Q9tekNFGtmevdoPd5uk5OePEjC+6tk6bjvZ6o/PSPPS/iz77g5b6do5rjN0xYbpuYH4WPfzT1VkfcdaPabHO+sx2sMylYSy8Rb0ywSVC/4m4HfzNLK8Ow5c/i/TU/vZHPdtXeWGvNRtwVeOtNlh8w/Ztt9k25xhFVJV9Uu7P/6h54lo9PhnZ5knWUcdLmO2Y6qCgD2EafU8qXl+8Y9Pcv+W7I8T1CXo15WeV69zGGqi9qub5Gv+kG3zj8Hkces09vVZ3esAfQB4IA8Tpkfh09b79rOeveeG6U/D/4Pyx0IvDNPe/GH7irMN3uPu9ERVzvynhOlg7Peo1ujddoZ5qAAcybO+FcJ0rYaOxJaRCgNReZiuJXgFy5mKLD85bryr64Rpb2xypKp9JBiaHuZEeYdghTBt2vO2JbF/y/ZHh2kJwCZI9/XS7vfhdgdhfuIYRI+b4f5erP28AwBW9yBhWpfTE+32/PrBcBxYbU+sGzBlXV4vsONz7S6rJwbc9kfzJIdkyLbVugfaS4tq+kSbi4Z5OGFfhXPbluql19OlUvu2iARkN9xWlYSHJozCEQuHeXjBWNrY2+SuxmbrMJsLyibIzwnTutye6MZ+EQjD0XClEL93XPVs63Xl2iw1O0z/IvvxmzwnfvhrbAgOQqQwVw2pg8DY6N7q5O4UDfNQP/3R7ruw62xLMkwv2R8dprvqx2V7YVzW3di23XHbwzR1DLxnVdrpQ3ZknLdFzzQA3JPHCdOj8JvqHfbDtB8Y3cdiPcq9WYEzE26HoJ0YfhHj7Gv0CiILwnS+fee4TYbymUbDLqTUpfFyXdWFYTo61GLOuhaG6XEIkoDU9VYHl9bLtb1wHxeZGabTIgG2Y6aroJvpfY0pDtNC70/48/z9i+3PEKZNT/IQps18kTCt2071Ppt1ZHunAQB342HC9DhgpoLxvMCcM7f3dpgv0X6i97u7XnQVjGV26tQw7W5/tjK982Warge3coZIrHU1DxOmc1k4a0mYjm5TIkxLJLvlnmklNsZ4qDBMC7NuVWqM8F714M5wSpi2QzL0spn9m78/JkwP08ZBeBymh8CdL8I0AGwDYbp73O2BvVyYjm6fE3rHy7rblq7TwvS8NrpaPUwPhmERiQC8mTCtFsuNmT7TTWJmhunojV68ioRppZEgGgbW2AmIrpPCtJmmQ21i/5btT1mYnm6jL8I0AGwDYbp7/Do9015bOpgOQyzGbXvjvGV+70okqw3zcPd/wTCTM7BDM2JpcjNhepjuX81DXf1jxkmZpeaEaeckunEIjg2LiFM9wWqstA2RqTZPDNM2/Kr1x/Zv8f6c1jNd/FoDANyVxw3Tbrj0elgvGabD8cnDeORYIB7WOw65btA+LUz765ra/nN6iDCt13vx4DUjTJtQGA+3quc5DJ8TbJhNLHNymFaHU68/sn/L96csTM/t9QcAbMNjhmkntI4D42XDtHtC34fabG+8R9gPzOaa0uF1sBNh2jvhcqLH2Q3eMq9/Xekv7Vd1/Fa4u6O6DnOt7nwYXr2ju/uh6aVNDXMYxhqP7p4YcatherhxjSwj+z3nQiarmBP4zDxuUJTwOFyRQlUYjFUoVVex+H20L6qHOhumbXhVYTU/zjrZ+6sDeWWGmLj7t3h/CsO0ux/dlUP05Nn6a5R3r4uZXxYBANfzMGE6VePgWRCmZ7TTVaJH2A3fufn8kBuUcx3teJiOtGMr39Mdr4lAPoMJuLnKXRosuXwkgCwP00NYT1dwmbuSnmmzTKrUVU1mfFmYNgS8dEWCcXQ+VS8SWNW/S5bpK/ccJMcbB73JyTAtvHV4XxaW7o+Zf2mYFl5Aj1V43Fz+a4/L4wHAbXvQMP1d+6FWY45jofPyYToMydnebJn3o90+KXvnw/wQkZ65e6KzfFeJYJy4A2L62C2leqDVDU6CE/Dk53njhfvl3at/9MvfUZgWthdSHqvCY2Fq/oYnlIRpMTqRUEKnBFTV62yHVOhZrdjdD7vl5vTS/iHPqQTRLqA6tSBMDz3QUmHP+6L9OSFMK9HjYCoXpoX5S8gqzz0A4Jwe+ARE4PqGYR7x3udGviz0oYo74T0WdxjT5DcQAMAVEaaBqzG91ZkeczsMhDD9MBp5XdghTKlzBgAAt4IwDVzNEKbV0JBwCETTHNvaeZxMtXXh0KKJu4ACAG4CYRq4JndsbLLq811vGjfEhOkzX2McALAqwjRwbc2x3dcSoIIQrU5GXOdKHgAA4Fy2HaYBAACAMyJMAwAAAIUI0wAAAEAhwjQAAABQiDANAAAAFCJMAwAAAIUI0wAAAEAhwjQAAABQiDANAAAAFCJMAwAAAIUI0wAAAEAhwjQAAABQiDANAAAAFCJMAwAAAIUI0wAAAEAhwjQAAABQiDANAAAAFCJMAwAAAIUI0wAAAEAhwjQAAABQiDANAAAAFCJMAwAAAIUI0wAAAEAhwjQAAABQiDANAAAAFCJMAwAAAIUI0wAAAEAhwjQAAABQiDANAAAAFCJMAwAAAIUI0wAAAEAhwjQAAABQiDCNM2vafV23+0b/CDyKZt9W1V5+AwAAW/ZAYfqtfT3s2t27d+27ruT/h1eZej2vB7MtTsk2bcmxfmqfnp7aijR9ffIUfCu/8f8k9e2+n/Sr/Kt+VvXjHT9FP+n9+LaWfdLTYn6Sx83+2pJpWYXHzbz2n+qjngIA2CL5KHgAb89diN4dnts3k57fXtvnnYTX3aFNxlc1jxfA1fy79vC8Tgjfephu9hVh4sZ8rwPg9+YpkX+nQuE9MPs1tR9FYVqUHje+TALA9slHwcaZIP0ci79vfaCOBNi359046DoVX98JXg/9urcSptWfuFWQfqpV7sCNyIXCn/SkezS3Z9pj9v3EMJ0/bse27n4PKoY6AcBGyUfBlumwvHtO9yR3IXbXetnYBFsVmtVQEPcx+eH1+dAeCNMZTbuv+h45OqVvyygUSsAzQxjuOUwXOSVMLzlux7r/Cw3jpwFgk+SjYMN0QM3n09f24M3T/9wF6bUDc86WwjTh4Wb9WPUB0A5NMKFQps/u0d2KBWH6tOPGl0sA2DL5ONiubkxyrle60/de2+BsQu3kchF6jHW3vAnku0P7/DpjTXPCtB6yEt823Qvv9bLrLwZqnbLsoXu8721XhqEsO/8Lh2mnm7j8xE0zTnQyOJihIN2MjSxX6aEhquT/Mj0expu2Oe7butJjsnVVVd3uj+ES+s/sqg1pr9ahRq1bseO6pb3o9jbhdqXa2TDZVTXW2PTEqvpWQuSPkePV9eCqcCrLfK8DqBp6obgn7dkeXsevMs0sYyrVjlI6/tmS9S5eppT5ghl9kQEA7pl8lGxVHySH3uU+FPaBUIVc+X938qE/btqcFLi4V1rCsHeiYlCT6ztnmJb9NEG6L5nnWbdnyzkR04bpcDmnkttpxojOGCttw3RtQ+6oIuFjCMDx8k/20tsjAdhvo2r3ex1wbAXbbMd9x+shTiqTXXRDdFjm6hZGF6YlAIeh+EcnSJtyh0e4QTtWYTvKXYXpJb8XAIC7Ih8lG9WF0yFYRq+coUNp95juhe0D6dTQkIAJn1J+r60aXz0E+Ow6zxmmu+qneydWdtsaWc7ZH1XuPr2Z7XTDt8vrbZ4QhFW3J7oxPXmR8NFICK7qfXts/DAbX8aEGFX9SWBeGO/aNH+Gd08SG6bVMtFtSbXTb/fpJ5VNfTHo63onr5nhDd9LmHWHM6heZBOy3atZmLHFZroXkiW0qnWMhkwINZ/qwf4p2E/Vjlk+OzbZzHezYTr2GgMAbIF8lGxTHxp14LMhNPhZB9dhOEhZmDYBNdX7bANsbqVnDtNm24YwbcJwPkyP9ynWjmPJn7OdMD3u5S0JH2aZeJg2bQwB1swXaUvvR6r32azj1N7pmw7TOmzGeoUVE5Tdx02Yjl2P2YThWJjOMfPfd5hWL6n++ZzzqwEAuB/yUbJN7nhpEyBtTtVhsQ+KOhx2D5aE6YlwqWRDsHbWMD30Io+Df2S5xe0MFoVME6ajJyrmw3RszPRQsTA9TBtv47iteSH39DB9y6aGXpiKhWkTfGOBOxWmY2Om3br3ML3WFzAAwG2Rj5It0oFPB9N+iIcT/nRw7R+OzZvuZR4z4TIx7KFjxi4Tpj2FYdreWS5Zp4fp6Tb62nIwio5JjtQaYXpOW4RpAMAtko+SLXID8jjs9oHShME+cJpwaYdB5IKvJx8uOw/UM100zGNJmHaGhtSjK2qYZdbrmT73n+RNO/kaf6G4BBOEY1feSCkK0/KvGX8da4thHgCAWyYfJVukA18iTPe9z/pnHRxthjVBspsWS4tjU73Z4wAbsSRMO/tiDCcGXjlMZwNyoCBM2/AZXUaC80phetGXghPccpguCZslYdrMk7pmsxn6sY0wfaXnEgBwNvJRskWxMN2Hv/BqFKMhIMKE4y50yjom74Bo16lCanA1D3s5vkT4NOaEaRuO/TDsXjHEb+cKYToSXpNKeqZNyPWmq+tOmytshG0Xhmm7nMzXXTlET34w9oRCCZzhlTZiinqmTah1pwn3iiGq7jtML/i9AADcFfko2aYuEOsw6IbjrtQ1pt2fRwHWBMZ0hb3MdnhItIKbonSGYJyuSA90sh1zTehrh2mJDXP/nF0Spm0oiVXVVmv1TCteQI/VAwQj2cHcdaZVuSG3dMy0WS5W6sYt6t8wTOeWMbXGMqu40F86AACXJx8d2+SG6S5U6nC8O6hpTliOBsbe26u6a2AQXuVnNfwjtkxsftVefLRIWZhWYVb1RJuhKCrUmutAj3vZrxOmbXCYGupRFKZFIwHZu5KHvluizNcH+ZXCtCJt7YM7IA71AGFakWPyY50O1WuEadXG6O6H0uavMt2cnHi/Ydq8vhgvDQBbJB8dG9UNm8gEPpwR4QGw5n65BADcpe2Gad27Gg7HwIWYXudH6b0FosxfRiJ/9QAAbMJ2w7Tohz3EhkrgEuyVKuiexoMy5w8MQ4oAAFuz6TBtxwyr24i7HdTqihyHnX9FDpyFDRMEajyYY82XSQB4BBsP00ofnIcT9lS4ViftpU4MxLrU+Gn+xI0H1OzbWoI0L30A2LYHCNMAAADAeRCmAQAAgEKEaQAAAKAQYRoAAAAoRJgGAAAAChGmAQAAgEKEaWCGo74BTVVzS+hzO+5f5Fj/Q471b9ljfaz/0c3nVf27fhQAgMsgTJ/B5/q79oenP7c/VO/bn28meX1pvx4/tR/VttUvetqNaI7tvq707cd1VVVb73PX6NXLVJcIt+aW0Kq4ZvZ5/S7H2oTjl+yxJkwDAG4BYXptzaf2gwrSuj7sv+gHrszdrhsK0/aW46lK3T2u2ffh+yJhWvWW0jN9KXN7pj3HX7plCNMAgEsjTJ/BTfZM32KYNoFYhdSwF7ppJFTV6duQXzhM48YRpgEAV0KYfhQ3GKZtr3QqMOcQpuEiTAMArmTbYfr4vg+PT991PcRf5ecPlQ6UUh+qT+3nURL70v5s5ulC55ehp1mv6+No6MZL+9E+7tfHWE602yWVCLZf90Ob3lCRRrZnr/bD3SYp+fnj/qX9qmfruO1kqz8+I81L+7PsuztspWvnuM7QFRum5wbiY93PP1WR9R1r9Zge76zHaA/LVG19HG9Bv0xQueBvAn43TyPLu+PA5f8yPbWfzXHf1lVuyEvdFnzlGGv+kO16ke3SY4ylquqXdn/8Q89g6LHLKpw2v8m26Xl1WG30UAw1rnl8SP6Q/VHLmHly7fROHv+8OEw39jVQMQgeAHCChwnTo/Bp6337Wc/ec8P0p+H/QfljoReGaW/+sH3F2QbvcXd6oipn/lPCdDD2e1Rr9G47wzxUAI7kWd8KYbpWQ0diy0iFobA8TNcSJIPlTEWWnxw33tUKYVpCsRuiw6r2btDVYVoCsAnSfb20+70OrrZ+8bZtCNrx8tvpXTxMu6+9tb6oAAAe0oOEaV1OT7Tb8+sHw3FgtT2xbsCUdXm9wI7Ptbusnhhw2x/NkxySIdtW6x5oLy2q6RNtLhrm4YR9Fc5tW6qXXk+XSu3bIhKQ3XBbVRJsmqlULRYO8/CCsbSxt8ldjc3WYTYXlE2QnxOmdbk90Y39IhAGt+FKIX7vuOrZ1uvKtTnbH+2+C8Uv8oXiD++YNRJE+5DtXj1jfFUNLyRLaG2cdbqdu42EbXXy4LHxQ7Nqp1/eD98jJUM26JkGAFzJ44TpUfhN9Q77YdoPjO5jsR7l3qzAmQm3Q9BODL+IcfY1egWRBWE6375z3CZD+UyjYRdS6tJ4ua7qwjAdHWoxZ10Lw/Q4oEl463qrg0vr5dpeuI9ZOmzGeoUVE5SHx4cwbaYNYdqE4XiYTjPz30KYBgBgHQ8TpscBMxWM5wXmnLm9t8N8ifYTvd/d9aKrYCyzU6eGaXf7s5XpnS/TdD24lTNEYq2reZgwXdzJuyRMR7cpEaYv1DM9NfTC1DhMD8F3HLjTYTo2ZnoowjQAYDsI093jbg/s5cJ0dPuc0Dte1t22dJ0Wpue10dXqYXowDItIBODNhGm1WG7M9Do3iYmOSY7UGmF6ui3CNABgOwjT3ePX6Zn22tLBdBhiMW7bG+ct83tXIlltmIe7/wuGmZyBHZoRS5ObCdPDdP9qHurqHzNOypzJBOH5+18Ypp2THOvRlTsY5gEA2J7HDdNuuPR6WC8ZpsPxycN45FggHtY7Drlu0D4tTPvrmtr+c3qIMK3XW7xdcy0Om2Vh2szzVMXuXijrJEwDADbmMcO0E1rHgfGyYdo9oe9DbbY33iPsB2ZzTenwOtiJMO2dcDnR4+wGb5nXv670l/arOn4r3N1RXYe5Vnc+DK/e0d390PTSpoY5DGONR3dPjLjVMD3cuEaWkf2ecyGTMiYcSxjurrShJycV9kybUOsN/VDXnTZXDPHXGXWRMN1fB7w79jO/kAEAEPMwYTpV4+BZEKZntNNVokfYDd+5+fyQG5RzHe14mI60Yyvf0x2viUA+gwm4ucpdtiy5fCQcLQ/TQ1hPV3CZu5KeabNMqtRVTWZ8WZjFC7SxckNuYZh2Qvu4Xtoq2jOdW8bUGsu4/OeXy+MBAEo9aJj+rv1QqzHHsdB5+TAdhuRsb7bM+9Fun5S982F+iEjP3D3RWb6rRDBO3AExfeyWUj3Q6gYnwQl48vO88cL98u7VP/rl7yhMC9tDKo9V4bEwtdY4kOb3di+vw3ioXiNMC2nDv5KHtFf/3vW69ycn3kKYFuavDWseXwDAw3ngExCB6xuGecR7nxv5stAHPu7Stz53qFDs6AMAMI0wDVyN6a3O9JjbYSCE6VU1cuztMKHUuHwAAKYRpoGrGcK0GhoSDmtpmmNbO4+T99YQDt+ZuNMmAAATCNPANbnjdpNVr3a9aZgwve51vAEAj4swDVxbc2z3tYS7IESrkxFXu5IHAAA4i22HaQAAAOCMbJg2PbhLCgAAAHhkXphegjANAACAR0eYBgAAAAoRpgEAAIBChGkAAACg0DhMO9e9rar09W0J0wAAAHh02TDdV/xWu4RpAAAAPLrMMI9GcrUO1PVRTxsQpgEAAPDoJsZM61vvVvvRXdgI0wAAAHh0hGkAAACgEGEaAAAAKESYBgAAAApNhOmm3VcSpp9qidU+wjQAAAAe3USYVlfKU2H6qa32R693mjANAACARzcZpruhHl3vtKm+l5owDQAAgEdHmAYAAAAKLRjm4Z+CSJgGAADAo+MERAAAAKDQRJjm0ngAAABACmEaAAAAKESYBgAAAAoRpgEAAIBChGkAAACgUCZMN/ayeE91eC0PwjQAAAAwDtPHWt+cZahIliZMAwAA4OFlw3RV1W1wrxaLMA0AAIBH54XppQUAAAA8MhumAQAAACxDmAYAAAAKEaYBAACAQoRpAAAAoEjb/v8Tm6FgwlyFRQAAAABJRU5ErkJggg==;" vertex="1" parent="5IY0WvX8JllmGWZsHJ7O-1">
          <mxGeometry x="410" y="460" width="213.43" height="160" as="geometry" />
        </mxCell>
      </root>
    </mxGraphModel>
  </diagram>
  <diagram name="exception" id="BXeGktSH_t229hiwl4O4">
    <mxGraphModel dx="710" dy="322" grid="1" gridSize="10" guides="1" tooltips="1" connect="1" arrows="1" fold="1" page="1" pageScale="1" pageWidth="850" pageHeight="1100" math="0" shadow="0">
      <root>
        <mxCell id="1g2Fbw7G-Om38af6y5-P-0" />
        <mxCell id="1g2Fbw7G-Om38af6y5-P-1" parent="1g2Fbw7G-Om38af6y5-P-0" />
        <mxCell id="1g2Fbw7G-Om38af6y5-P-2" value="Exception package will have a class&amp;nbsp;ResourceNotFoundException that extends from RuntimeException" style="rounded=0;whiteSpace=wrap;html=1;" vertex="1" parent="1g2Fbw7G-Om38af6y5-P-1">
          <mxGeometry x="410" y="340" width="230" height="110" as="geometry" />
        </mxCell>
        <mxCell id="lqIK0X7ee3czYHCHfVd8-0" value="" style="shape=image;verticalLabelPosition=bottom;labelBackgroundColor=default;verticalAlign=top;aspect=fixed;imageAspect=0;image=data:image/png,iVBORw0KGgoAAAANSUhEUgAABGcAAAKmCAYAAADgs/NDAAAAAXNSR0IArs4c6QAAAARnQU1BAACxjwv8YQUAAAAJcEhZcwAAEnQAABJ0Ad5mH3gAAMowSURBVHhe7P1BjyQ5Yt9/1/MCnvPzHv5nQYDjsK/Ce/BBB6HhOOhchzJ8GMDoAfQHDDj60BfDHhsQ2kioBLUBWem1ZKSn5dHKKkvQ2MrutZWS1S1se6zsFQyt3IZOy4cMkhEkg4wgIyMrszK/H4iarQwmk8HIrE7+ihFx87d/+7filE79+gAAAAAAAKdEOAMAAAAAAHBChDMAAAAAAAAnRDgDFNg1lbi5uRFVvTaP4CnguOHc8J4EAACAi3Am4lNzK764+b74onotPpnHADmdEk11006obm5qca5TKjvpu4Y5325di6o7JroM9/tpHDdcE96TAAAA8B0YzuzFdtWI5u5O3DUb+VM5whk8JU/hr93nFM6ovlRHmnza/QxLbL9PfdyOOQ44D6XH+NTvSQAAAJyXeeHMXocydyqUsYVwBjgLdtJ3DnO+dX2slQF25UElmvXOPHa+jjcOOBccYwAAABxiVjizXdlQphGb7UasCGeAs3Ed4cxa1HIfb57IqgMm7pePYwwAAIBDzFs5s92IZrU1Ycx20XDmXf39Nhh52XwUn9YvxEsVkrTlVtzLx0Kf1q/FfWXCFFNeVi/Em9Qf03cPQf1b8bJ+8EKYaDize933JQhtivogX/9N7dd1y733zf6jeNe4YyDbrV+Ld0ssFNitRVO7p4VUom6iHZaTDrVc39a7EVUlJyBu1V3TblfzZFW3rVc18pm77jUOW7ov+9DUfh/qxu+DpEOJSqjd2Ln1ZX+Hu6Yn91W7oe+nbduvboIAtyT2p+9D0OdoHxQ9vl7bXdH7UqpsHJSMY9zJqLuuu22posf9EDnhTP5xK3s/KBnvyWOPg/kMTx23kvdD+XunRDhmsu/yePjN9tdiGRwq83tG/24JlPw+m+yDeqnMcSg+xiXvSSXvs1n+e0fTv3vkWI11AQAAAI9igQsCHyecSRUV2nTcwGRQbofhyPpFpJ4ubigyDGcexL2tW70Q79rHjKI+OO0kSt+Pj+JNFa/zxU3Qh1J2kjMoejLS6ydKo3VNe1UVTI6CydLYJGGM/ot0pAQzCjtBCS8Qq0v4+mYyLifUg8mSKl7b+RMq3Qc1FkH9tshJlamnjY2vKvPGrB8Hd/xTbWYe41Zm3WOFEsn3rVO8ifuMcCbr/aB2MVInrHfUcGbsWPjvs5LPRdlnqExyzAZhiz1u7n7Y/Y30Ifv3WX4fssfhqOFM/mez7PeO5fQlFngBAADgUZ13OFPZVSJuUOEEE7vX4r5dSRIPbLwgJwxYum+ieoXOG+fbqx/OJF7bKuhD165qx7y+em39mB/k9HXl42vThlr1Y9r9on7QjxXrv/D7fzHWf3GNfeFXX9z7v9Tqv+S2j9tJhTM5aicizoRFVbHtJOcgo8wEIli9sFvLSXTjN9j1V5Z+39R+mYlLcpIkJzp2B3exiaHL9ie+NdkHMyn0nmbHyZ0YTb7+tJJxyD7GUkldS+/3/H3xFIczrvHjVvZ+sG1NvyetRcehJT/Htfy89gdCir/PZr0fMuoWse/1rk2lf+8MDotTX7H9GtSTbeT+Pivpw5xxKD/G4+/Jks9bsr+x3zsO3ZZaOTPcHwAAADyu8w1nwhUqiRBjyAlTnADDCzsmvoe64cybLiyafl4v3gf3lK1eH7jEVs34df2+zboejp3gpr6td+ykJzbZCLbZNu3EOAwdzM+TLxllJ8fOhDnBTlCGEyfThjdxj026tfFJVuaEKtxuxiA2EQ6r6sf9v4yXyB+HgmNcVLe3fChhjR+Hoan6Je8HW3f6PWkdbxwCkc9ayeeipG6J9P6nj4t+jtyXZuR3Vvbvs7I+zBmH8mOc3vexz1Rsm+3voK3I7x0AAACcpzMOZ4LwwVmN4p2CZK4hEz21KBKM5IQafZDTlzAkceX2oQ9WplbOOCtkkiWyiidHdlAyNnGwExETIJgJUjcBCCcE2a+ZIJ/fTsDaoq4lEVzbw7ATlOHrmMlMLJwp7tT485J9iE2SzGPeCowFV85Mj0PBMS6q2yufsOYqPX5T9Qvby3xPWkcZB/VeiZ665h/7ks9F2Wcolw0TRkq0Xfd5ibHL/t1S1oc541B+jMfec+Pvx/DzVvR7BwAAAGfpaYczI9eQacuh4Uz1QtyPndKkFPRhNHTx+nW8cCY96QgVTA6OHc60dvq0EWeCpZbvu8omVIWT8c7488omSSMTxuJ+9fLHoWQCWDZZtMonrLlKj99U/dL2lOn3pLX4ONgVI4nidqPkc1H2Gco18j63JdquOSZtiY9dur+hsj7MGYfyYzz2nht/P4aft2R/CWcAAACejCcTzvSrWewKE+fUIVnXvYbMkqc1ffKuVRMGO2V96IIcb5XN8G5RY6c1HSz7y7qdGMUmG3aiY7Y9Sjjjsq/vhwHJCUr01Ic5k3Fl/HlFkyT7WHgh5cljMy5/HAqOcVHdXiq0OVzp8ZuqX9peKP6etJYeB92eej+510+RIp+1ks9F2WcoX9vfwmCnG7O1ee3Y82Ofq4SSPswZh/JjPPaeK/u8Ff3eAQAAwFl6EuGMulV1F2Z0j7sBSP/Yuy6EUY87wYiz8iZ2QWD3Nt1+OCO5q2O8lTAlfSgLXNww6d5eEHgR9kt/OLEbXkDTTgDV5MGrF16Q0kxYysMZOckwbaVWHKi261qdMuJ0TIpNRvrHnLrtqR96P/yXmDsZH39eySRJj6+cYMl9C3ZvxPSYpcZBT+j8vmUfY6mkrmX7MggRojLeD53S4zdVv6C9gvektfQ42GPhHmN3FY/7tNT74dC6vfz3pNqe817vx0tXDn/umePWbgvel4kLnOf0Yc449H3MOcbK+Huu5PPW99c8YE2EM/2YlAVnAAAAWN68cGa7EncqkEmVgqAmGc5Ei7/qZbyuLF6Q4gYew+IGJoNwRnJfy73mTUkfRut6gZGirmMTqWfKQStqzBf2YQn/6ttPfAalcv6iOzecsX+FbkvsL8SSVycs/nPsRCNahrOW/Ml4crx0cSc+JZOksf5Wany9Y2FkjNmscYgV9xi3SuoaibGLThZz3g+djONXcNyy2rMK3pOdhcdh9BjL4u5Gyfuh7L1jZB23XRcOxorXtG3PW+XSP3/QjeRxDn+f5fdh1jjkHOM578lYCT5vtr+psYm+z4LxSO0WAAAAHscTCWdip/4oH2V9N3C5FfeNrGfDlSCcUdQqHHXx3rG2Y+GMt0rGC4kK+uCu3omW8Doyuu3Ycw493Un/ld2dgCROp1ErLuxfak299i/PZnPLTKa6CUA4ITA/D7/8T//FXdnJ51fepCrSByk6oZL7qG5vPNyzgsl4wYSqbJLUT778/bMlNtHNGDNzzLw223EYjkIr5xhbJXWN4fELx8HKez9oJwxnpNz3pGvpcdg1/kWJ29c3pwC5Tyv5XJR9hqzc46ZXffR97kv/NPuZiJwe1IVAw89F9u+zrD6ol5ozDqofE8e46D0pZX7eyn7vOJz+jB46AAAAHN0CpzUdJhnOeMHIJeivXTM4TWn9ogtg3FU5KJOcoJwlOaFtJ3FyojmYN6nJLhMmLKPkc/G0PkPHcy3jYMO8aBgGAACAR0U481jcu015q17ca9RMX6wYaU9rQmVXCKjrYvgHfbcbWT0AFCKcKXfp42D3z5bkyhoAAAA8GsKZRzN9e2x1ehXme1oTKrtyJl2YMGEJhDPlriWc0de24vcMAADAOSCceUy7B/Emcg2Zl9UL8WbROzJdp6c3oTLXvwivUSEnTE30asBAOcKZcowDAAAAHtvZhTMAAAAAAADXhHAGAAAAAADghAhnAAAAAAAATohwBgAAAAAA4IQIZwAAAAAAAE6IcAYAAAAAAOCE5ocz+63YrBpxd3dnSiNWm73ZmI9wBgAAAAAAXLN54cx+I5oulAnKamsq5SGcAQAAAAAA12zmypmtWDUrsdn2K2X225UJaFZyaz7CGQAAAAAAcM0WvebMdqXCmUaUnN1EOAMAAAAAAK4Z4QwAAAAAAMAJLRjObMVKndbUbETJZYEJZwAAAAAAwDVbLJyZs2pGIZwBAAAAAADXbJFwZmtuqV14o6YW4QwAAAAAALhmB4Yze7NiRgUzhUtmDMIZAAAAAABwzQ4IZ/Zi09hgxjw0A+EMAAAAAAC4ZjPDGRvMNAcFMwrhDAAAAAAAuGazwpn9Rl9jJlkK7thEOAMAAAAAAK4Z4QwAAAAAAMAJHXhB4MMRzgAAAAAAgGtGOAMAAAAAAHBChDMAAAAAAAAnRDgDAAAAAABwQoQzAAAAAAAAJ3Rzc/cj8z9Pww1n/tdPf0ahzCrqfUyhUCiHlv/f//f/05bY7xkKhUKhUCgUCuVYhXCGchElnGBRKBTKnEI4Q6FQKBQKhUI5RTmr05piHaRQckpskkWhUCilhXCGQqFQKBQKhXKKwsoZykWUcIJFoVCefqk2+t+H3fZjdPsxCuEMZanyn37578gvWTfi537xN6PbKY9XOBYUCoVCeQrlalbO/N4vfl98cSPLz/+6+FFku1f+6NfFC1XXKy/E78XqOuX3fvm2rfviFzNe41Rl5r6de4lNsiiUsy2rn7a/89aryDaKKf9DNPt2mKSfijpaZ/lCODNdun9Pf/H3o9spquzEP/r5mzYQuLmpxb+K1qE8TjmfY/Gffq0WP2f78vP/RPynSB0KhUKhXG+ZvXJmv92IVXMn7u5MaRqx2mxF91060+WEM78vfqWreyt+849idc6gXHI4Yya8vr9t/+peOZMvypziTJQHqxjMtv1PDhpntUpiNzkJ/yjWuhcRfyuaJvacMyzRcGZs3y4jyMk7xn1h5czPxI9+7dfFr/z87VkFIY8azsjJrJ5Uu+XvtCsgHntiq1Zf/FzB5P50qzV+U/zCYMz68gu/FnvO0ypP51g4JXwvE85QKBQKJSgzV85sxcqGMmFZbU2dPGcZzjjlR2Y1zMWsnHFKyb6de2knVtFwxjgwOKC4qxjCEGSZcKZuf3UQzqRcQjiTd4xPW84rnPmx+M2fN/92Ec4MyyNPbv/VL6rXfQqrYC4/nHk6x6Ivus9y/H95F91OoVAoFMrMlTNbsVltxNZdJrPfiKYNaFZya75LCmeeWrnUcMadxFarn4hd++gTmrifZbEBzE/FWv53t/kfkW2PGM484kqKo5SxcOap79tIIZwpLYQzNpxxA4X/9Gv/RPxcGzT8HfGPHnGV6pMLZy74+ipPNpxhtQyFQqFQRsqi15zZrg4PZ+yXvhe//GPxo1974ZyCcyt+RT7mdj4VuMS+OLqP6WXi5udIu26ZDDBkH/V2t0yEHX/0+3qZelf/VrxQ/YrVLSmF7eaEM92S+q5NeWx+/kXitK0fy3GWr+nU/ULW/b0/io1vSd3p0k6sohPe/tSI4cqD/yHqzU9NeKOMnQIV1lWnWvxE1NHAR9bdqtM3eru9nJAGdZP9MvvhByB64q4f+x+ike1bqh/RPjcfvXpq/9Zem7bkjEMfwNRtv90JdiqcyRgHs69jYuOQH2Asfyx0XRX2BeMm240HgKaeGqPAvHDGjLc06G/zE92fWFC26PvBHQf1v0fGYe4xdo2OSckxnj5u88IZ+fvsl91/r/QKyt9zf0+6p5QGoUb/u1ifEtv/nC7q30i3jaw+yFLyb6wukd/VtgT7sfTv9bZEwhlV7GkqXmgTeawtpo2fc1Ys6Loq3NmJf/XLtQl71OS59gOfsZU7prjtRletxEKSP9IBk+rrv/pF3W89cd+Jf2R+Hp6CE/Q1eXpXbjjTX4tlMGamf9Ew4Y9+s+uj7Ud8NUhef/tjof73CY5FV2R/5X71/ZXtyT78q+AzlP3eCQrhDIVCoVCmymJ3a9pvV+3KmWYTmYGMSIUzqeJ+IZ0VziTK8IuuLouHM9H6uvxK+OWopMxod3LfotensSW8ro57zZ2whO2X1M0r7cSqMJzRf8WPiExsk3UHk8Z+4jzkr94pCQS6cGb7k+HEVQn7YSfpA8MVRHnj4AQwpu2+f7FwJnMcjhrOHOdY2LqxsGW4KkQFB2ZThP96JftmA4xISBY5xsu/H/qwIz4OCxxjV3JMyo/x1HErD2ec1S0Tv8/c0KX7vez8nrX/DpWHM/l9mPq30P/3Yux3tSxeOLP87/W2HDWcUZPvfiLeF2dFxpHDmZ/7ed0PXf6O+IUg9HAn+/a0mEEZTPhLVs7Y/rqrUGxoE1mZZEObQRnWze2vDTvix8Jp96jhjHvR4LD4+5b93gkK4QyFQqFQpsoBK2f2YuNeEFiWVWEwo4yGMz9v/+rnfvHsv+TNDmcm2nXLZIDhlOm6zpfX9q+J9nH9F8zfDL9QZpd57eaEM7/S/uXVmQREJhJt6cKhW+/L/Y/a1TyyDVuvtG5maSdgkXCmko/pSWkwabYTRjnpcwMF9Rd4JT5pDianq5+I9cafNNoJoJrI9n+579t1J5klgYA/YZWTzpXZ1oxN0mUb4f5tEqsaJsfBtGkm6O0Evpus+9tU/ZJxsEWHAmG4EZbIxN1yXl+VYx2Lrl2pH1/Vrn7Ma8OOr9cH2YZ5PPo+i4qMi3Ps1M/JfbDHR1ru/TAyDuZx//2rS94xdov97A3fL6rMOcbK2HErDWf636O38net+Z2ofpeZ35Ph6pL+3yL9ezf271Vf8k5rKulD/N/Cqbrqd3X/+z7a5yP8Xm9LJJxp73gTmQjPCWfax7vVHGrlhH5s0IYselt68j0sIyGJE3K0/XKCB/Xag32x27u+qqJXenj12hIJJboS6b/Ttvo5OY5OgOGvgNErSLxwpqC/yWNhHvcDF10WPRaydH34+X/irJTp++s+b857Rx3v9vUJZygUCoUyUg5YOTMMZ1RZbOWMChnczjpf/OyKjb5uQTiT0a5blgxnvC/QkdeaW+a2W7JvfUlMFrpxlKX7wp8oJXUzSzsBsxPLgb8dTFjTk8TYZNBOmp1QJFrsJDjW7nBbcjJt9iMezgzbHuyLXSWRmNC6JX8cggDGCxfCcKZsHGzJm7jbcYjoXl+Vsj6UHItukh+O76DuSB+88bNlZN8S49IFC5uRY36U90M/DsMQxtT1jocuecfYLcPX7cu8Yzx13MrCmf73Ybj6svv9Gvz75IfpU7+Dc8KZsj50/xYGrzn8d7PvZ9hu7N/YY/xeb4sTWvjl7wwmwclQwbQRDWfCyXqkri1HCWfsZN3uZ/Cz3Zf0a8deozCckaULFn7Z9Gusz7FtQSnprz0WwzE3dSOBxqLH4qc2dIq1N9xW8t5xg5yp054oFAqFQlnsmjPq1tr6gsB3ouSGTelwJvhC66zYsH+VS9WNfXEsadctJQHGVN1kHw4sc9vN2Tf9V8+c6w04kwinxK55UFY3r7iTLF/sOiB24jYinFjKtvvTQtS1OvyVELqMTSR/ZCam/akWs8KZjAl2fOIfKyXjYOqGP7f9CbeVjYP/+NTEPXccjncs8uuG4zKsGw1nco5xV9xjmBi7o7wfRsZhZL+XDWeOc4zLwhknaEmWyO9XN8iQJfZvjy454UxZH7L/3Rz5t3FQty3L/15viw0tvBKf5M4JZ3Lq2nKMcKZ7nfB1zc+6f2On3JjiBRhjQUSquK+R2EevT2OlrL/JY2HbOXo4Mz5e+rX6U5vmvM/0PhPOUCgUCmW8LHbNmZa5Y1PJ6hnCmcPL3HYn9y2YQAzKYLKgTqNyL7Zsi7/MvbzudHEnWXby1d+pKZwMlk1C3ee1pzI5z1WnR/TbjxcIlEzc05PmsJSMQ2TC3fZT7U+4rWwc/McvKZwxfYi9l4L3qlc/4xj3xTynFR+747wfxtqNvFdMyTvGbhkbk+Mc41OEM+HKlL48pXBGlWV/r7clCAT6OzUNJ+aEM6btWeGMeU5b4vuYDlHCQjjjPS5L974tOiYUCoVCubay6N2ajhnO9EHC1GlNzhfVjHAm1q5blgxnpl5rbpnb7nh/nUmBHLP+L585kwVV5Jf0X3YmIIvVjRd3kuVOvuyEzA86fqQnbrFJc3axE1k3ZLAT5djk09bvt6Umi/Z6GXPDmVigkCr54xCbcOs+7TYfg21l42BLOJmOl9xxON6xyJ3kT+9r2EbBMTalGzMbRMaO5VHeDyPjMHIaVd4xdsvYmCxzjA8LZ/rfh+mAJShu6PGL9vde6nd3zu/bsj6k/i0cBC7JcOYY/waMFC+k0MVOjsNJcGrSbK8b4tafM8EOJ+nTZalwxrx2JKSIl/Jwpts3GyLEXmtkbMJS0t/ksRg5jWrRY2G3RcMeGzT12+a8d1QpO4YUCoVCucay3N2a9luxaq9B04iSy87khDPqL3H2S6L3uBsuqH+g/+j3+y+NqjhfBkvadctU4OKWybrOl93YhXvHbuk9Wma2mx3O/KIdG3WrVvsc9Xg/vupLeHvbbveLktuvmXVzizvJik54gwmhnai1FwadmijKyea6vW22P7mNTfbspFtNJvsJ7v+Qj5v3uTvJNP3tLzTs1JP8yXTJxN3us2oj6EdwAdj8cYiFM/b55o49zraicTCl64vX57Dkj8OxjkXsuLttuHVtH7rH1O2snd+P0fdqxr6p0o+Xbjv8uS/HeD+44+C8nrpAtdm/wfjI0vdx7Bi7ZXxMSo5x39/++W05KJxxf4/6F82Nl2GwkQpLbOm223/nInVK+pB6ve7x7vev09eurvOYV/c4v9fbEoQUutjJdDA5N3VvftFOgJ0LugaT5jkTbPucn/tl9yK3Y2W5cKZ7bdnWf0q8D/pSFs70+6VfO/y5L3bc1bbgQr/BBYFL+mvr/sKvOa/3R/K1zOqbwTGSpe/jAsdCFh326O3efo1cEJhwhkKhUChLl3krZ7Yr7yLAbjnurbSDvy66X/yc8sJeZNH5MljSbv9FN1HcgKeg7lT97L+8RkpuuyX9HR8zWbwv5mPtloxv2eofW9xJVmry5U/w7F/W47w2krchVsK/2vcT4YF9Zt29ncC6k+zxSeqg2H0eCFct5I5DPJzxxsbbVjIOpiT6PH8cjnMscif5bUm8d3ZbfQ0jv42R/krR96Q35v2xTPVtaO77oR+HqNTxyTnGyb5q0fdDTHCMjxXOtKs13cAiKO7v3/53qhOITwUYidNL/X8vZvRhMpxJ/66O/Rt7jN/rbQlCivBxf7LdhwdeMberdifNsybY9jWD4tVN1LGlq1sYzvQrOOLF34/EOJji1bWrU7zQoH+t5LgPSriKJb+/9lhESyJMWfRYtGVkzH7eX1FDOEOhUCiUY5V5K2cG4UwjmtVGbEe+1KfkhTO3+i9yQedVUStD+oDmVq8SsV9m3S+O7Xnw4YVtTbvBl8aSAKOkbte+6UtfL71/JSWn3bL+/lgeD7+9X/ll2Z5twxlfvapGHgtvgqBeP35B4Py6ecWdZA0mX92EczgRVX9hj02ewzbaW3J772/5PDkBjf71X62OcFZdjNd1r2GjLjSs6ukJZ3QSmhvOyKKvj+P3Y+21aUvOOCTCGVm61QuD4KZgHEwZjvOB43CEY1EUzrSP/6TfJ3k82pUmJlzx2xgJGqS+rq0XOT2oC4OGAdiy74d+HDxq/yZWxUweYzOOKYPxzTzGxwtnVNG/K6N/LLDBiBOy+MGK/3s5dm2WdlVKEL6EbWT1QZaScEaV9rW7tszKnMi/scf4vd6WQUhhi538B6HAH/2TbsWF2vYL7coKPfF2J81zJ9jtbbyD0GFWIFAczqiiV3K0YUpQ/Hq54YytFzk9yIY2kVN91PVTfsEEXrqocY6NV15/o+GMbF8fO7c9vyx2LGz5o98U/8hZaaX2y79luC6EMxQKhUI5Vln2mjMz5JzWRKFMFW+yRaFQjl6SYccTL/PCGQqFMrckw44LK/rUqZKLGFMoFArl2sqyd2uagXCGskQJJ1gUCuW4hXCGQqEsUa4rnFEra3Kvk0OhUCiUayusnKFcRIlNsigUyvEK4QyFQlmiXEs4058qZgqnOFEoFAolKKycoVxECSdYFArluIVwhkKhLFGuJpyRRV2vp7tODuEMhUKhUIJyditnKJQ5JTbJolAolNJCOEOhUCgUCoVCOUU5q5UzAAAAAAAA1+asVs4AAAAAAABcG1bOAAAAAAAAnBArZwAAAAAAAE6IlTMAAAAAAAAntMjKmf2mEXd3d21Zbc2DmQhnAAAAAADANTt85cx+IxoTzBDOAAAAAAAAlDlw5cxebBoVyqzExqyeIZwBAAAAAADId9DKGXs6kwpk3P9dgnAGAAAAAABcs/krZ8zpTM1mb34knAEAAAAAACg1c+WMOZ2p2cj/ZR4hnAEAAAAAACg2a+WMDmIaYRbNtAhnAAAAAAAAypWvnAlOZ7IIZwAAAAAAAMoVr5yxIcxUCcObFMIZAAAAAABwzYpXzhDOAAAAAAAALGf+3ZoCnNYEAAAAAABQbubdmoYIZwAAAAAAAMqxcgYAAAAAAOCEFls5MxfhDAAAAAAAuGaLrZyZi3AGAAAAAABcM1bOAAAAAAAAnBArZwAAAAAAAE6IlTMAAAAAAAAnxMoZAAAAAACAE2LlDAAAAAAAwAmxcgYAAAAAAOCEWDkDAAAAAABwQqyceQLeNbfii5vvi5f1a/HJPIbzdx7H7aPsxwvxUvZD9cWW+7XZ7DhZf3evB/374uaFeGc2z3asdhG3fiuqm6/FTfVWRN5eM3wWTSXbU23We/PYhVl8zAAAAPBUzVw5sxWruztxFyvNRpR8jSacmfIg7ruJ5a14szMPP6JP69fivpIT9/rBPHLejtXfsnZPf9yUd7Xtg1+G4cwJ+0s4cwGcIEWWepGkYS9q017VfDaPBdZvzWs+iCb2nu22L9WnJR1jzPKsa/O6kdBruK0/DvHSB0vdc73yIKr6vVif6HfgtJ3sdyWqmxtxUzXyp7h1Lbff1IRoAADgaGaunCGceUynXYHxUbypzMT2SYQzx+pvebsnXznjhBMvm4fJPpzDSp9Ppg9LhyjHahe9XWNXgciJuHnsILv3ur1U8KKMhi9O+CH7dI7ZwOJjlqUfl2HoFQnEnDGOlm5s80Ocs7DTocyNCmVsIZwBAAAndNDKmWZz+FJzwplzRzijPbVxkNYvTCBxupU7pQhn0OlCgZFJfRfgRMKZs141c0p9iDIYl7HxlLqVMbGwK/rcz2LdPOjnqHJGp6fpsEWVSjTrRo4J4QwAADitg1bOEM70p428bD6KT3Iy3J9GcSvu5WMeO1mu1MqEj/K5dsIYWa3QTazdMpxY9pPO2AQ8Hih0p+c4bb+sXnjP79tNF7XPvuH1TdR+vTs4GNBj5Z2iIvv7bte//pz+HmUcMo+bZ/cQ9EPuqzxeB69eyQlnCvpb9F6XcsY3dKwQJatdeRzeBO8z1d/w/Vs6DrZd22ZYYtf/ybVbvxd15Ux+ZUmfQiInyvJ9ZSfQbV11rZOgrp2Aqwm2bt9t2/2drybeZuVHWx7kcxKnH1m7/aC/N/LnSpVgFcdoENCJrPRoja2aWXoctLxjscyYDdu146CDrG5Fjipy37yVR11oFVmRNBqIja24kZLPPdMVTOtGjuPa9Gd9lHBGr8ypnLAKAAAgjZUzB0pd08OW+MT9hbiPPc9dkZE7afZOXQkmhs62bgIYvQ6HLf0kvjzscIKgQTlkou1eCyUsfbvF/T3WOBSEHa1ofV1mTdpH98uUNhw0Cvo79V73+ps5vqGThTMT/XX3rWgcRt+/usw6ztLOXZEQljA8cFY1DIs7mbYT6QdRywl+rH430XRWpvQlNqnXRvsriz+BdSb0o6stEuFMagXIMcZByj4Wi46Z87xuv96KOnrdl75u3+bwdbtt0RClH+tY2DD23P5aNOl9Pa1jhDOmzYl2AQAArOWuOdM0YrXZyq9vZS4qnJGTXv1XdjeocCaDwUT4fq0n9VMTx6ntXR/cSbfUPc99XE5C79vVLPGgYhDwJFbfhPo+yom32a92RYhpd/apQN2Y+RPkT+1qE7kf5ude5ulHRxoH12Qg4E7cvRUaekXGmzmzmNGQwZTgfWJlv89MG7q/iWNcPL7a9JjNM95u8Hm1x8F9/zpjVjIO3uuadtWx1Y+NrGia1E+U1eS/b+az2K3fiqpxfxM7deXE2a64aOu1j7srKJxQpC1yMt1ui4QgaqWIfJ12cxc6TF+Y1+1DHyqEz0uELgPxECe+6uZI4+C2O3UsZo6ZWqljq7iBTReShKGTrR95jW5snPGyxralj5WW1W4kuJnSn36UKIsEH8deOXN4DwEAwOXjbk0H6oORYNIXm4A54Ux8tUV8sjY5YY0+v59wpibCvbHgISeUSL9W1/dEIDDJGbN+Ijwmp78ph46Db+q49dsPmaSPmHhfhab624cS/vbu8clxmR7Dyff6TKPtjoVGkTEsGQf7mN9uH+TMXTWTChpi4isaPsvHY+GA027i8bJTWhQn6Agn56nnTQQBvUg44wQV0dUti49D/rHwzB2zWB+cIMerP3iNvt3hcRw/xn0oNN7f4XPH9mXaUw5nAAAASsxcOTO032+6wKbkdKfLCWeC8MGZ8HUTsMLJsjU9YY1M9rrXH76WXnUSXMPFllmhhLNqIFnmTrad13dK+lo2+SHK8uPgyw475gZXU44VzgT9jYUSStn4aicJZ8bGKfI5LhmH7nWdlVHLrJxxJ8u2qFNw3JUbijMxThTv+ilOsBGboKeMrowYaTP5vNHgwhe2EW/zuOOQdyx8uWM2PIVoGKL0r++HWcNAqn/uoN3R11y2v+eHcAYAAJzezJUzCdsV4Yz1qOGMU8dMDMOfO10fEmUwaT51OKOo03zUxWXDNv1TnbTMEOUo4+CbOm7J985SCt9vc/sbCyXKx1fLea/PMdru2DgdGM6MfjYWOO672AV2vdNK+omxX9RFeN+KJrwYbReKTK1YcTnBR+SUlnSb6Un7MFRI8+omQ4Ljj8P0sXDNHTOp29bvYxeceG1FXiOr3YmVPIX9TQVH54VwBgAAnN5iK2eU/aYhnDH6yaAz4SucLFtZE9ZuEqnq9EGCH144AYPsb7/yZCx4yAkl+jrTp1Ad6qMcD2fif2B/lx0H39Rxi75HlnSycGbO+GpZ7/UZRtuNBalG7BgVhTP2GHgriOT/lnUODWZ86g5EZvLsToInVkOESkKRXjpkaSUm7n1/w75NBAGBfvL/VjSp/j/KOFiJY+EZH7OxQGO4gqUfL7+t/jW6fR4JYIbtuiJtOZLjpQIr87ycYxnDaU0AAOBaLLRyZi/225Vo2tOaGlFyE6dLDGfUKo9uIuZO4I4ZzjgT3/vGvH4wefQnx3abuv21bV89Ppw0d/uoXj/Rb3cSay90vAQVxLQTWfd1ncn0vP4ebxxck8fN3Y/IBYGjt2UucQ7hTMH4Knnv9XLj7Tr9dY/t1AWBC8Zh0dBSTrD1rZTdibicoHeBgDvx9ifH42+DslCkMwg+9IVwaxsUdIFAv13dyto+1j9uOWFD1w/VprpVdWRVh9N+vD3lSONQdCwcBWPWBy7+uPX7mAhOutdwAp5ou7Kq8/hw7KRYW44u2HHGq7/QsiqJccjwlMOZXaMuCHwj3yNL9BEAAFy6eStnzOlLw9KI1dbUyXQx4Uy0BJPigslyP5lMlEHwInXt6xKbEI73V5bYpDlo15bBRU67Ce6wzJ2cjo9DYhwz+nuscSg9bmP1545ZJ+P9VtLf/FCibHxnvdczFLUrx6pf2RIWf/wWGwcvkCvgTKRjJVyJ0a/CiBQvfOgn+bHVHGlO8OGUvo349pvqrajbECSc8DvhyKBEJvlO0NGWxGqXo4xD4bHoTY3Z2BgE7XZ9CMaxezwR1kWKd92diX2LrdyJFhWozXmfH9u6lv1zQp6wBEHNaEgUT7TkuPR1olUAAAAc81bODMKZRjSrjdhO/JEx5jLDmcRpCxmTZWvehNW9vkXqNT7KPrtt34p7OWnpXi8WSkjtCpYgfBmGB7rt2CR3ftCgVlyEr63Gd/zOTdP9Pc44zDlu+no6fl8WOe3lhOFMyfjOGbMcxe2aCxj3deLvs6JxcFdHRcu8FULtqoRgQhy9dooRq98WdzI+WM2Rz18lEbkYrmxbBzHudhsUxAIXuc3r74NZoWK2u4JwZqzvxxiH0mNhTY6ZCj3keylsNxyD1ClFydOU5NjG2g37OxpmqWLHLAzHTMkZg5M6ejgjOa9BOAMAAKYses2ZOS7xtCYAcMPSwal+zkqd4UWtAVyC3boRVRvOVNHTwQAAAFzL3q1pBsIZABfJvdBwuGqrW9UzvYoOwNNirzVjS0UyAwAAMrBy5kCEMwDi3NMM40WdvgbgsnQXAq5qsd4RzAAAgDysnDkQ4QyApN2DeBO5DtPL6oV4s+BdzQAAAAA8baycAQAAAAAAOCFWzgAAAAAAAJwQK2cAAAAAAABOiJUzAAAAAAAAJ8TKGaBAdxeOem0eAQAAAADgMKyceQLeNbfmtrvcEeq0dqKpbtpw5uamFsQzAAAAAIAlHLxyZr/diFXTiLu7O1NWYmu25SCcmfIg7rtb8N6KNzvz8CP6tH4t7qtb8UX9YB55bDuxritRtaGILlVVi/UuPhhqdUt1pPCElTPX7rNoqq/le0CWem8es8y26r18xwIAAABAvgNWzuzFprGBjFsIZ5Z22pUzH8WbyoRDJwln1qJ2Qhm/xAOYdZ3eBhzGCWduHkTjpTCEMwAAAADmmb1yZrvSYUyz2ojtPvwLcj7CmXN32nBGBy16pYo34d2tRVM3hDN4ZDaAeStq+d+q+WweVwhnAAAAAMwzb+XMfiMatUpmVbJGJu6phzPvah1cvGw+ik/rF+Jle/qRKrfiXj7mkdvbbZVaAfNRPleviGmfH66KsXW98kK8M5utT2ZVTfyUp3iw0p2m5LT9snrhPb9vN13UPvvkPjXuGOj9enfATFUHLVWwQiFiXbchzlipvEb0ihz92E40tT5dqa1XN8HkOrJ6J3Fakz7tSfV3J9ZN3Z+KVdWJfdCnbHltdyVjv6P2sr82OPgs9+1BtqVXe1R1LDj4LPv6VvZV11ErQqp6nwgYwrq6zXW0sqwrX9urW70d1N01un+DIV2/1c/xApDSfZN2e6+e2r/aa9PKGYc+gFm3/Zb7Y7a427znmNcfHYfd+3a7GgM1Zm29tp1+H1VffCXHTdPvtWo41gAAAABOatbKmf1GXWOmEZv5C2Y6lxLOpIoXYHSBywtxH3uenIR1MsMZsXvdhSGDsMTZdm8nY85jw9IHPOXhjBMEDUqk35nsyhkVhoxNOmVFXW+kRMOZuhkGL6p4s9fScEa221042C3hah73AsOxcmA4U79v/2sDga4Ek/x1HamjSmQFSLJuJDhog4pY3eB0oFnhTOa+2dBjUC/og5I3Dk4AY9ru+xcLZ8bGwQl2bFtVECIFoZLb55Ljpjnv4yoMIAEAAACc0qyVM/qUppXYbFeica8706jHyhKbiwpnKrtKxA0qnGAiCFzu1zrc6IOQeIgxtb3rQ7sip9c9z31891rct6tZnGBlLOBJrL4J9X28FW/MfomdczHjkeeOkxPKLsCoRN1MhDRS3mlNbuBSicYuY9jZx1PPN9snwhlV+lOx1OoY/Zif+ZhAyZ0oT75+Dh1g6Mm6nNCvTXiws487oYAJQFSo0Y+rXvGiHvd30zw/WKGyW7+Xx8X/3NvARQUF/QqRvl03RJkTzrRtTO2bE4z4K0r0ihM/q8sdBz+AaQOSLgxJhDO1fC3bz5ZqV/era9cJkdr9tf0xdQZjVHTcev3Kmf5ZAAAAAE5vxsqZ1IWA+1JyttPFhDNVEJx0QYxzupETzsRX1MTvxjQVzsSf34cqw8AlNBbA5IQz6deKBkTFglOEZFErXlLzy7JwZlhv/PmZ4Uy43QQx7uodWzes2p8aZR4oFgsqNB0K9I+HP/dsEOOGLrZdJxSJsqFIrN3htnnhzPS+dYGHtw9x+eMQBDCmj7rvsXAmwXueZPsatBt/nZL+AgAAAHgKZqyc6cOZZrUV/bWA92Lbnu4ktxWkM5cTzgThQ+yUookQJmUynHFutz08fWn4Wp/UipbqNn5606xwxr3dd6qk+l5mp1aWOCtpYgFGUTgzSASm5IUzg82RcMY+duNe42bJlTOTE3QblIyUMGhY+9c4qZvY9WbGX18HC/0pOrPCmZzwIQxAkkrGIQxgzM9tfxLhjFrV452u1Jeub+EpUuG+e/sy47gBAAAAOGvzV840G/m/QmPb4ghnpk2HM04dE6CEP3ec1TvRcubhjJVcoSI9mXBGTp+T15wp7pfriOFM67M+lcl5rn+x2vMIZ5LtDpSMQySAafup9ieyzTldKVa6vhHOAAAAAFftgGvOxC4ITDhj9YGKE8QcMZzpwyBVpw9UumCo5QQtsr/9XZTGApiccKavM30K1VJMSBK5sKkOZ6ZOCzqDcMY+VpmgqS3qujoFb46o/ACjDUoOmsjboKAPW7rXj552Y+v321Ihir1+ytxwJh7uxOWPQySAMX2qmv1gmw6i9DavbS9skYrCmZL+AgAAAHgKZt2tSWxX+vQlL4TZy4f1aU1NwW2cLjGcUbeq7k4ZckObY4YzbiDTmNcPV/N4QYvdpm5/bdtXjw8DmG4f1esn+u2GUfZCx4dbi1rdgnq98yeh6jbV9vbTkZDEBiTV6MWDTx/OdCt85P7I/1tQ+eqS9oK5U33YvRd1e9tsP+yIhSs2lFB96JuNXxDYBg/9hYaderLMDmds3baNoB/BBYHzxyEWztjnP4gqEc7UzjV63FVH3ZgVhjNFx83RfTYGt4sHAAAAcEqzVs6oSU/yosDNShRcD/hywploCUKYgnCmDzsSZRC8SMEpS7FVLOP9lSW2OiZxKpTfvrqOzbCOLfNW1JggJFlUsGGquuy1XILin1JUEM4k2rPFbbcknLF1Y6WqEvuWpSTAGD9FxtuP0VN0wlUyfTAyKFVmXXOdlvnhjGSDn0FxV/ooueMQD2e8sXG22RAlVbp2C8OZouPW8U+ji9cBAAAAcArzVs60+pUyujT6AsFma67LDGduxcv6YSQ8OVI44137JfUaH2Wf3bZvxb2cQHavFwtnpE/NC/EyCF+GgYtuO3ah4dmnO+3WoqkrOXF1wotK/ixnlmMrBnbrWlTB9VzOLZzp+qAej157Zu5FgQsDDDnRVytVYsFLuB+79Vu9OqSrI5+nVm+Y7Z7dXh47N5wYq+tew0ZdaFjV0/txUDgj6ZUqfj9qr00rZxwS4YzUrRYarKrxL6LcjoHsk3qsa7c4nFHyj1vHeS8n6wAAAAB4dDNXziznEk9rAqbZVQyxFTJyW3vKExNoLGu3boQOOg+5VTsAAACApR2wcmYZhDO4TnbVTC0nyf4sub1dOBNoLCg8hc5fwQUAAADg1Fg5cyDCGcwzchttU5hAYyndhYDbaxnxvgIAAADODStnDkQ4g/n0XacG18Yxd6gCAAAAAFwHVs4AAAAAAACcECtnAAAAAAAAToiVMwAAAAAAACfEyhkAAAAAAIATYuUMUKC76029No9cjl3zIPfta7lve/MIAAAAAOAxsHLmCXjX3LZ3hHpZc0eo03Jvf12LpxLP7NZvRVV93QYvtgyzpc9y3+z2twvs217Uzuu1pTT0kf2O9xUAAAAALsuMlTN7sWnuxN3dSGk2slYewpkpD+Je3aq7LbfizQnusPxp/VrcV7fii/rBPPLYzC2ng9tNr3fxwVCrW6ojhSdPbeWMXQ0Tllj3l105c4xwxgmQBm2ZbdV7+W4BAAAAgKdlxsoZwpnHdtqVMx/Fm8qEQycJZ9Zykt+HMn6JBzDrOr3tutgw40E068/msVMwQc2S4YzaJy+FIZwBAAAA8HQte82Z7aoNZ5pN/iSMcObcnTac0UGLXqniTbp3a9HUDeHMqJmhyOIWDmeqt6KW/60aN3AinAEAAADwdC14zRm7omYltuaRHE89nHlX6+DiZfNRfFq/EC/b049UuRX38jGP3N5uq9QKmI/yuXpFTPv8cFWMreuVF+Kd2Wx9Mqtq4qc8xYOV7jQlp+2X1Qvv+X276aL22Sf3qXHHQO/XuwNmyzpoqYJVEhHrug1xxkrlNaJX5OjHdqKp9elKbb26CSb4kdU7sfOCJH3ak+rvTqybuj8Vq6oT+6BP2fLa7krGfo/KCUVKTz/6LPfrrdwvW/+hPQ1qvJs5/TDtditj+jIMZ97LuuoULPfaOIlwZreXx1b20WmvquTz3Eq79+129TprWbet17Yj2zQ/D0/1Kh8HfZwrZ38AAAAAQFtu5cyMVTPKpYQzqeIFGF3g8kLcx57nrkzJDGfE7nUXhgzCEmfbvZ0QOo8NSx/wlIczThA0KJF+Z7IrZ1QYMhoAzA1n6mYYvKjizaBLwxnZbnfhYLeEq3ncCwzHyoxwxgQNNoiIFi/AKAtn1nVQ15bRFStT4czndLuy9EPtBDBmP/vVM7FwxjwWtKeLE+zYtir3+jwPorZBjfnZPRbl4+C8h6ow/AMAAABw7RZaOTNv1YxyUeFMZVeJuEGFE0wEgcv9WocbfRASDzGmtnd9aFfk9LrnuY/vXov7djWLE6yMBTyJ1Tehvo+34o3ZL7FzLmY88txxclLbBRiVqJuJkEbKO63JDVwq0dilFDv7eOr5ZvtEOKNKfyqWWh2jH/MzHxMouZP1ydefUBzOuCZCFHOakdreP18FKzrESAyJlNmu7Je7okXdZcpv1w9g2oCk25dEOFO/Da630wdBXbvOmLVhj+2PqWMvlNzVnzkO/coZZycBAAAAQFpm5czMVTPKxYQzVRCcdEGMc7qRE87EV9TE78Y0Fc7En9+HKsPAJTQWwOSEM+nXigZExYJThGRRK15Sc9yycGZYb/z5meFMuN0EMe7qHVs3rNqfGmUemC3ndCLXeH0dasRusz31OmPb7eqWSLsT4Yy/PRbOJITt2nAmaDf+OvLH2eMAAAAAAHELrJyZv2pGuZxwJggfYqcUTYQwKZPhjHO77eHpS8PX+qRWtFS38dObZoUz7u2+UyXV9zI7tbLEWUkTCzCKwpkwGZmUF84MNkfCGfvYjXuNm0NXzniWDGdsiDJSksFIRrux506FM/bntt1EOzv52t7pSn3p2g1PkTKvG/6s6x8yDgAAAAAQd/jKGbNq5m41J5ohnMkxHc44dUyAEv7ccVbvRMuZhzNWcoWK9GTCGTmFT15zprhfMU8hnDHbZoUzUltHXQ8msm3iFK+uXcIZAAAAACd24MoZu2qmETPOaGpdajjTBypOEHPEcKYPg1SdPlDpgqGWE7TI/vZ3URoLYHLCmb7O9ClUSzEhSeTiqjqcmTot6AzCGftYZYKmtqjr6hS8OUYtGc6o7s4NHnJCn+FpQoNrw8TCGdN21ewH2+zz1Tavz2HoUxTOmHYJYAAAAAAs6LCVMweumlEuMZxRt6ruThlyQ5tjhjNuINOY1w9X83hBi92mbn9t21ePDwOYbh/V6yf67YZR9kLHh1uLWt2Cer3zJ8LqNtX29tORkMQGJNXoxYNPH850K3zk/sj/O4Jlwxl7Ydz2ltFF/c0IfVS7NgxRt792Vqf0YxkLZ2y/HvRtuCPhTO1cEHi3fi/fU0G7heHM3HHo3peDW7UDAAAAuHYHrJw5fNWMcjHhTLQEIUxBONOHHYkyCF6k4JSl2CqW8f7KElsdkzgVym9fXcdmWMeWeStqTBCSLCrYMFVd9louQfFPKSoIZxLt2eK2WxLO2LqxUlWJfSuSEc6Y4CFVuoCiNX5Kj7fPJe0mTj+q6rft43278XDGe76zzYYoqdK1WxjOFI1Dxz+FLV4HAAAAwLWav3JmgVUzymWGM7fiZf0wEp4cKZzxrv2Seo2Pss9u27fiXk5iu9dLnLr0qXkhXgbhyzBw0W3HLjQ8+3Sn3Vo0dSUnz054Ucmf5ex2bNXCbl2LKriey7mFM10f1OPRa88celHgpcMZRd8yOhamePtc2u76vV75orZXD7Itud2EJn27iXBGsqtkhqtqdMCjX1f2W612Ua/ltlscziiZ4+By3kfJOgAAAACu0gJ3azrMJZ7WBEyzKyliK2TktvaUJybxl2S3boQOGZe4TToAAACAS3L43ZoORDiD62RXzdRyou7P1NvbhTOJvxjh6Wv+6ikAAAAAYOXMwQhnMM/IbbRNYRJ/GboLAbfXEeKYAgAAABhi5cyBCGcwn77r1ODaOOYOVQAAAACA68DKGQAAAAAAgBNi5QwAAAAAAMAJsXIGAAAAAADghFg5AwAAAAAAcEKsnAFa9u5J13v76l3zIPf/a1HVe/MIAAAAAOAxsHLmCXjX3LZ3hHpZc0eoMfaWxfXaPFBi14jK3i3pwtKZ3fqtqKqv2+DFluEYfRZNV+etmDOEvr2onddrS2noI/sd7+sxLNBfAAAAAJhp/sqZ/VZsVo1o7u7EnS3NSmy2ZRMawpkpD+Je3aq7LbfizQlyg0/r1+K+uhVf1A/mkcdmbjltwpM2QKkbEd5t+qBw5oQrZ1S/q5t6gUBkyK6GCUtsjJZdObN0OGPDo4eR42Nes3ovj2YpwhkAAAAApzNz5cxWrNxQJiirramWgXBm2mlXznwUbyoTDp0knLGhSaz4gcZh4czprOvhvizDCTTWn81jp2CCjwNXznThUZPYF1M/uT3bzP4CAAAAwEyzVs7sN00bwjSbrZzG9PbblQ5oCtIZwplzd9pwxgYuN5W7UkatpDEBjZPEEM6EziVkWCacEbv3olLtJFbGrGu5bXRlTS7CGQAAAACPa9bKGRvODDMYs6LmisKZd7UOLl42H8Wn9Qvxsj39SJVbcS8f88jt7bZKrYD5KJ+rV8S0zw9Xxdi6Xnkh3pnN1iezqiZ+ylM8WOlOU3Laflm98J7ft5suap99cp8adwz0fr2bPVley0lyKriwK2r6bTqc0acl7Zq6Pw2qqocT9nWtt0VKPNzZibXbpnydSlZM7tpuLZraBEumfu12YuT1bTn82jc5IYOp45bR+p/lOLzVIUlbHtrToMZ7mtMP025wbRxV+uMxdmqTeY0wuNnt5XGQfXTaq6q3g1PifOP9tSt4Bu+T5Mqd8jFTp/G175noexEAAADApZl3zZn9xlxrphErs3pmv9+KVaMf24zNwQKXEs6kihdgdIHLC3Efe567MiUznBG7110YMghLnG33XYLRPzYsfcBTHs44QdCgRPqdwwQYqZAiXCljw5mqckMRW4JryRSGM91KnbBUzXCS7Vxc2C9OH44VztjVJWPFCzDKwhm9OiVSRq/zMhXOfE63K4t7PMqCEfcix2EZu+jxsuFM+ZjZUFKW2PsLAAAAwMWZf7em/caEMU5pVqLwesCXFc5UdpWIG1Q4wUQQuNyvdbjRByHxEGNqe9eHdkVOr3ue+/jutbhvV7M4wcpYwJNYfRPq+3gr3pj9EjvnYsZzTokyAUYsLGkF27tToGTpV7WoFS/68amwI3lalA1SujYVfZHiYf3+Gjn+yhq98ibWhUVPayoOZ1wTIYoJH9T2/vkqWEmEFZ3MdmW/3BUt6i5Tg3bt/gVtxU9p+iya+m1wvZ0+CJrb36JwZuaY9Stn4kcKAAAAwGWZf7cmOYFRd2vywhm1aubK7tbUByNBcNIFMc7pRk44E19RE78b01Q4E39+H6oMA5fQWACTE86kXysaEGVKhiWWCU1s6GLrD0MYsxJhYhVC6vXS4Ylp132CXTWT7PTQ+VxzZry+DjViK06mXmdsu13dEmk3Fs5E65v2R1fvOKLtusb3pyScmT9mAAAAAK7JwXdr0hcF3outE9Rc092aUqtWoqcUTYQwKZPhjHO77eHpS8PX+qRWtFS38dObZoUz7u2+UyXV9xEzV84M65vVLLPCmbG7RZnitjvV54inEc6MnSJkyqwVOabd2HMTIcogHImEIp2dfO1K1w9L+hiNj1t+OHPImAEAAAC4JrNWzmxXNpjxJy/d3ZqajZze5CGcmTYdzjh1TIAS/txxVu9EyxmGM2XXnDltOJPuQ9p1hzNmW0E4E57apMOSyEWCJ07xSh8jwhkAAAAAj2vGypm92CQv/GtX1Kzk/8pzqeFMH6g4QcwRw5k+DFJ1+kClC4ZaTtAi+9vfRWksgMkJZ/o606dQFbCnCEVDleGdnJLBSOapRqnnt+HJRLDTmQiUYnQ4E1yweBFLhjOqn3PDhLF2bYAxPPUnfW0Y9znmf0f6ZZ9fNcGdkVKhT2deOGOvIzM4rYkABgAAAMCEA1fO6Ds1Wayc0dStqrtThtzQ5pjhjBvINOb1w9U8XtBit6nbX9v21ePDAKbbR/X6iX67YZS90PESdHChg5XupdVtqu1Fd51Eow9XnE46ddOTcS0VztjH2wv8Th63/k47VZN3QeCufa/+EpYNZ2wo0d4GuqijGaGPG2qo2187K05ix60LSBq9OiZ2SlMf7vTbduv3ojZtp98PE+Nmwp2b2oYu/QV+VXH7MnfM+vdcZigIAAAA4Embd80ZG8IkylVecyZaghCmIJzpw45EGQQvUnDKUmwVy3h/ZYmtjkmcCuW3r65jM6xjy+wVNcnbUssSrGaxE9pomUpmpFQ4I7d0AU+sDOqb1TPDklgdk6hfsvomLiOcsUFDovihx/hpOt44lLSbOP2oqt+2j0cPnfecyClNkg1GUmV2f+24hsVc22b2mHX891u8DgAAAIBLMv9uTfutWDX+3Zqaa7+Vdlduxcv6YSQ8OVI44137JfUaH2Wf3bZvxb2cxHavFwtnpE/NC/EyCF+GgYtuO3ah4YNOd1KrX8xtq3WpRB1bZWLqVW6QUqm6eSFHOpxR9K2zY0FRrP5u3YhavnZfb7wfu3Xt91uW8wtnFL1KJBamzA87pPV7uf9me/Ug25LbTQATPx5O6DFy2tCu0QGPfl3Zb7WCRb1W2G5pf2Xf7Aoc1W7dnjqlx3v2mLmcwC5ZBwAAAMDFmHm3puVc4mlNeJp0OHOMa78AZVS4p4NA3o8AAADANZi/cmYhhDN4fDvR1LVYuxcB2Q0vMAw8tvDUvMNXTwEAAAB4Clg5cyDCmacofQ0ZJsM4JRvOVFUQHgIAAAC4aKycORDhzBOlVsq414RR16Zx7/IEAAAAAMAjYeUMAAAAAADACbFyBgAAAAAA4IRYOQMAAAAAAHBCrJwBAAAAAAA4IVbOAAAO0t1lqj6HG9Gri32f/y3xz2vMAFiX/Nn87tUz8Uvf+5748vk35hHA3sG0Etd6w1I+F+fgaXx3ewysnDlTRXeB2r0WL1Vdr7wQ78zmlHfNbVv3Zc2dpoCodd1+SWf+PMa9Nf2p/2G1fVG3IjcPnaVzGjMAvaf52fzum+fiy2ffayeYtnw1mGd+ED/o6jwX35pH5/tGfOW8XltKJ7ey3/G+ooQNFGd9V9k1omrf7zeiurB0hs9FjgX6uwR1F90j/97dye/0lf39XjXyt/15OmDlzF5sVo24u7szpRGrzVY+WoZwJu744cyDuO/q3oo3j/kONRNev1TtX6muNLRfkPPFcvCvtNl24C8k9SWgmvzlaX/JxsoT+utMNJwZ27fLCHLyjnHvXP7SvK7VMRh7f+1kHbVv/fGq1F9qdvEnlI5DiXMZM5yKMyEYfBE22569Et+ZRy4fn8257F/9wxKb2C27QuAYk1A+F77I56JuBn98sO/ZeW9Z+73x8b+bHfNzfDmfC/uZeCZ+8KHdGmFec9Zn40zCGcUGhcf43RvOPc85nJkXjmzFqgtlgrLamjraz372M/Fnf/Gd+J2Hrfi3X/9B+1/1s3pcIZyJKwpnHJ/MapizXjkTDWdMOeMPy9Pg/tUv/Id2mXBGT4Cn/jElnHnK8o7xmTHHKv2Xv7HjFt/XJzkOeCKcSejgS/e1TUL5bM7nTNy+Sc7cHoGZ4C0Zzlz958L9PhcW/71/WDhzOsf7HF/W56ILj14l9sXUT27PNrO/CzrWe1m/12S7T2ACMmvlzHalg5jGXSmz34pNox5vxMY8qAKYr3//rfj64a348N1fiU9//X/a/6qf1eNqO+FM3GOEMycTmfDu1nZZ5ROauJ8lG8DUopb/9SeqJwhnnnpSMRbOPPV9G/H0Jj7T7237D/Nghd5uLRr1l0jzo+vpjQOeDjvRfC6+kv/1v1Rf1ySUz+YhTj+Z0hYOZ/hcdJNU9e9av1JGraTRnxf3OwjhTOjCPhcfXokvVTuJ9/63z+W20ZU1uc5h3Mx37IX/WN++1xZu81hmrJwxq2aazfAUpv1GNG1oo7e8+7Mfi3/3e1vxl3/9fwdFPa62P/VwxoYoL5uP4tP6hXN60a24l4+5UoFL93j9YB7xH/u0fi3uK/NzpF3XZDgj+6i3u2UiyNk9yNe37apyK16qfpnNxaIT3rF/XOQ/Rk3tLOushl/iOmHd+BJQLbWM2mw2kv2K/qVe/1LRj8kJo2y/a1v2I94N9QW0r6f2L57s5oxDP0ldt/12/9FLTWAzxsHs61iJjUN+gLH8sdB1VdgXjJtsNzq8qg+qnhojW9cU//Vy982M9+D5kl26GfuHYtH3g3opOw7qf4+Mw9xj7JbRMSk5xiXHTYp+Fn36S2BG+DtzHPRjU5/5/DGb9f713jduydjvKP1FTU+Q5MToeb9M/MvnsS+JH8S3r57rL5FtedYuE49PpMK6us1vo18uZV352l5dOXkL69q/LvYTPSP6V8XSfZM+fOPVU/v3ldemlTMO/UTz27bf7rUOEpNQ8/qj42C+xKsxUGPW1mvb6fdxuHS/5Lgtj8+mqTZLzmTK1HHLaP0574ecfph21Xu7a1uXYThz7Z8L+350v8NZ9rtFvy3733ll5HMUf8sH73P5Ounv4NLUd5jiz/EcF/q5kK85DGDMa8z5XAyM97fs31hl3mdIv59T78d5nlQ4U75yxoQzwelLmr/t9eYPxX/98/8lPvzV3wyKelxtv5RwJlVUaGPNCmcSxW3XtXg4E62vy/3cD435xRx+6FIfRv3FLVIiH7Jk3cEnvJ84D4v/ZSn5S8LsR/TLoPziN/iip8pwp51/8Nwy/MKWNw5mv9Rjpu2+f84280j2OMz8Ujw+WbeOcyxs3VjYMvzCo748x+rp4r9eyb7FvmDZ/R0e4+XfD3Yc5Jep6DgscIzdkhyT8mOcd9w0PRaR8XR04yX7OFJt9jjkfebzx6z0/ZseX1XGxyZNf1FTYcXgS6wqwRc4/de7SAm/NErJuoMvhfZLaaz4X1RnhTOZ+9b95XJQhl+W88bBmWiatvv+xSahY+PgTGBtW8/MBLQtz8RXdkJqfnb7XHLcjoHPpqmaK/ledIp37MyEyy2JyZcy7/0wPqlT799ku7LEwpmr/lxEvtO47HvQvkX7f+f1434J3mMjn6PYWz73u0Yr5ztM8ec400V/Lkr/fcv8XAyM97c0nJn9GbLvo8Tv4Dna93HsPXuGZqyc2ZvTl+7EauusnVGnNdkLBJtVNf/s139HvP2f/1v8vb//DwdFPa62X1Q4U70W79qj/lG86Va69MHH7HBmol1XyWlN03WdiwZXsk73jtarhN7M/cyYX8zuZ669gnb7Szn4YmN/icvK/Qeq/yuU/7k1X66Cv4ipU6bqxu+s/YftRn5Q+7/cO3/dchoO/xHsmL6lJ6zyHyPb+M4+Hpukqy+Pwf41iVUNk+Ng2jS/gPxfRv629pGCcbD0P9TxSXIv8kXXFuf1lWMdi65d9Xg3bqpd/ZjXhh1frw+ytnncf72RfYuNi3PslOQ+yL4t/37oX89vV7WpH499Cco7xi772Ys/Y84xHvQ3dtxaw/d1nOyjGV/12VS/E8br546D+36Y+sy7MsdMlpL3b7dPk6+fw/3yKicu9tz9D/Zx50ue+XKmvtS5Eyf7V2r/y5z9Auh/Qfvum1fiq1f+tz77ZVB9mev/4te3636JnBPOtG1M7ZvzRdf/q5/+q6AXzmSPgz/RbL/Edl9YE5PQ5/K1vOsn9F/su3adCUq7v7Y/ps5gjIqO27Hw2SxSPAl12c9e4sDOfj9ktut9jtVnXj/et8vnohX97uEIts/5d95lnz94vYLvGurx7O8wRt7nONNFfy4ku39BW/q9Hv6RIPNzMTDe36J/Yw/6DOV+r8u0MwH9Uu0d2by7NW1XOoRJFRPO/Opv/Wfxh7vvxJ/+5U8HRT2utl9MOKPCC/NYq1tx0t8JaVY4k9Gua8lwpt++8N2c7C/7QZFfyoLf0Olf3LEvT/YLj/MlLMr+AxJrd7ht6h+teDgzbHuwLwXJcP44BL/QvH/Aw192ZeNg5f1jaschUrxfjmV9KDkW3ZeVsPKg7kgfvPGzRvYtMS56zGQ7zcgxP8r7oR+H4ZczUzfyj1XeMXYNX7c37xhPHzdr7LVD+kuiDoJ1UX9VT/26KHuvD+uNP3+83yXjkPpc6Medv1gWM1/UIn9p01/y+sfDn3uxL3u2XScUiTKTsWi7w23zwpnpfUt9KY7JH4dgoul9GQ+2jQm/xNu+Bu3GX6f0uB0Tn815So/TeP3574ex7SOf4/D9y+eilXrfdIL3mq1f8u+8K/V66c9J5DMyY7VD3ud4jkv7XCix+qb9nM+EEm3XNb4/Jf/GHvoZWuK9Yd/XbRk7Nf7MzLxbk1oosxKNWUGjA5mV2Gw33mlN2z/9sfg3//G/iA8/+ZtBUY+r7ZcTzgQX7nVub21P/5kXzky361oynEn24VDmHxW/xD40duI2UsJ/cGTb/Zc79Re42Je78S9e+hdC/6Up+Y9k5IvYVNse8/zpqiXjYOqGP7cvEm4rGwcr7xdm7jgc71jk1w3HxRE9RgXHuOMew8TYHeX9MDIOI/td/o/i2Jgc7xhrc46HfB311+tuHOOTpGXf66Hx5xWNg3nMWzW45MqZiS9R/ZfGkRJ+eZRf5vq/cqprt/h/OdTGX19/+ev/YjgrnJncN2nyC61VMg7hRNP83PYn3GaoVT3eaRl96fpmJqHdvob77u3LjOP2CPhslih4H7fG6h/yfshoN/bcwWcrrGt+vrbPhXnfJN+6wfY5/8674s8v+64x2eeI8u8auS7tc6GlVnj5/7YZOZ+LgfFxy/839vDP0BLvDfu+1u/VJxTOzFo5kxJcEFjdjem3f/jH4rd+94/Fjz7sxV/sf9r+V/2sHr+EuzURzswQ/qPS3akp/BAW/sPQ2bVt9l/u5Jcl71+L8S9eh00W878Mpv8xDZWMQ+Qf4rafan/CbWXjYC37pfh4xyK/rulD7L0UvFe1/GPcM89pS3zsjvN+GGs38l4xyv9RHBuT4x1jbc7x6NnXiz1/2fd6aPx5ZeMw8p6YOS5a7hfcuV/EPuhTmZzn+hflHH/9xwpnku0OlIxD5It520+1P5Ft9i//idL17QLCGYvPZo7897E2Vv+Q98NYu2Zb7Lne+1Hhc9FK/nunhe/B5Hty5N95V/z5S33XSCv/rpHr0j4Xhn2/m/b0v039v4Gd3M/FwPi4PbVwxurmmYv8zj2+2StnYvQttvtbaSsqgPmT99+J3/7drfjX//4P2v+qn9XjyqWGM7FTguJ1neu6ZIQzsXZdS4YzU681W2TCa3+ph/8QtR/OiX9Uxtl/XNyQwXzxin7obf1+W+ofHHvOrd/ngi+DE//4uvLHIfYPse5T1ayDbWXjYOlfmMPQxpc7Dsc7FskvCoNxn9rXsI2CY2x0Y2b/gYgdy6O8H0bGYWQJct4xdo2NyTLHOD0+sfd8CdO/yPOXfa+Hxp9XNA72Me9ikMEdMmbJ/4LbBiUHTVjslzn3i6Z5/ejSaFu/35b64mjPce+/OCr5+zb84pmWPw6m/15d3acvX30z2KaDKL3Nazv8El80CV3iuB0Tn81pBe/j1nj9+e+HsXaHn1XLvq/7zyyfi5b99zn675p5f+b8u5l5qlHq+SXfNaLv/wnl3zVyXdrnwnKfE/usaNmfi4HxcSj5N/awz9Ch3+uGit7LJ7bAypm92O+3YmVPcYrexSntEsMZdevr7pba7uNuGKLeHbsH5wK/skyEM6l2XUuGM+4qndgFgcdu6T3K/AL3/xGw/9j4v6TtPxjtxcWmPlHyH6G6PUfdrxj7R0f/gyCLatc8JmvKx80XKL+yecx+qJ16svj/EJV8GbT7rNoYv3ha/jjEf6Hp55s79jjbisbB6PoyetHG/HE41rGIHfdW5AuE7UP32M4EWaZdv42SY+yOl+lx8HPvGO+Hvm7tnt/nnDYQ242+j2PH2DU+JiXHuO+vecAa+eKn2x/7gqf2V46hHAOvihy8x3yv+8afVzIOev/lF3W5P1PvhzL5X3Dtl7b2grn997M4OVH6qr1ttl8x9sXPfslUfei/5PUXFfT6Zr549hcadurJ4n5xLNm3rm7bRtCP4ILA+eMQ/2Ktn/9M31bV2dZ/We8bdVcddWNWOAktOm4O+7nxV6XOwWfzMCXvYyVv8lX6fphqt58smkY/mKBFPUeW/jPP58KK/rvpfDdx32f9e9J5kzl1p7qTek93nzPVh8n3r/ncqPoT32GsvM/xHJf2uejZvqhTgb33tCP7czEwMW4F/8bOHzNpxvWLprSfp6cSzswKR8zpS931ZmwxFwIucTHhTLQEK07csMMpLysTksTCmWjx2+1DlkSJBkSJEoQ+Y/VTt/OeZL7ADD5z5nH/w2j/sh4vflXzYY6W8K/2/T8igyK/KGbVNX8J8yeLhV8G7T4PSjjRzB2HRNrsjo23rWQcjESf54/DcY5FyRfo1HunqvU1jPw2Rvori1fXtuuNeX8sU30blrnvh34comXQASPnGCf7qkv0/RArwTEuOm7W2LbW+DHTkydT1ZUzDrbt1Fi6CsasZBzGjnGlxjc1LJNKvuDav+jFi/dl0EyUYvWGf0U0fYiVZ5l1zXn3/pfYkn2T7JfSQQmXlOeOQ+Kvnu7YONvsF91U6dotnITm99flfp4O/as3n83DZLyPk+9dXfzPRcH7oaTdxGf+y+f62lN8LiLGvtMG3/HG3mc57//ke7rgu0Yr+TlKjEfW53iOS/tcOLznRE5pkrI/F0rROJT8GzvnM6Sl34/zPalwZtbKGS+caUTTrMR2XxrLaJcZztyKl/VDfGXL+oUT0Nzq1Sf2DkxOOKNWydxXsp2urq7fthu8s44Zzii2L3299P5lMb+M0/8IDCei6q8RsX+kwjbaW3J7/5DI58lK0Q+j+quC/cvcZF33Gjb2Vp/6H+LZXwYNfX0cvx/xJc8545AIZ6TurzDhtpJxMIbjfOA4HOFYlHyBbqlTjmy78ni0f4EyX478NtwvYMPS17X1Il9Kui9dfjChLPt+6MfBK2r/Jv5SNXmMzTimymB8M49x8XFr2d8dw/HsmNf3xkuOQ9uHkYFY9L1eMGZl49C/J8O+6jIyLqMKAwz5ZUz9FS32ZTP8IqZuFdr+FbyrI58nX8ebkFnqr4nOX+fG67rXsFEXGlb19H5Ev2Rm75vqs2rb78dXXptWzjgkJqGS/atnuO27V/5FlNsxkH3yvsQXT0KV/OPW6d7LS0xC+WzOt/QkVMl8P5S2q96r9rMpP0ftX/XN+5XPRULk383ov932M+S+x9p/5/M6kXxPt/K/gyv532G06c/xHJf2uXA5oUfkc2JlfS6U0v5m/xurzPgM2e9zCwcpl79yZkGXeFoTAJyL8S9dFyQ6MboGTjA12HW5zYSyF3/88ajaCVU7kTo0XLhkfDavzVP9XOjvCQsFSsABjvWdVf+B+ml8Lpe9W9MMhDMAcDxXE85I+h/fa/uCaf8yr87p93e8vSVxu40v3VhGtwLTFIKFMXw2r8XT+VyoUFCFhc6brnsvErTixOyq8iN8gOxndPnrGy2PlTMHIpwBcM6uKZxxJ0OHX8vhqbB/nU+X61tNhGPpvuAucr2US8dn81o8nc9F+j3JexEnZUPCY5161F1OwJQzPsWJlTMHIpwBcM6uK5xR5D/wwUWGL5+5JkDwpVtNFNRdcACcCp9NnBk1CXavCaOuTcN7ESd3/O9u6npI3e/icw5nWDkDAAAAAABwOqycAQAAAAAAOCFWzgAAAAAAAJwQK2cAAAAAAABOiJUzuHBP4+Kg9qKtFfclfaKu8SK0eOr+vBHi/7kR4u/W5gEAwGzfvXomful73xNfPv/GPIJLwzE+ByXfuZ/e93NWzuCC2VsGyg/lWV+I3r214VOb4Mu+qztR2Kv+myugX1dIMf4++w9y4qsmwP+PmQCHP1tqovx31eNmsvzn5vGWbFdt+7uyDtL+XL7x/m5lxteUf/AU3oyyj6fo6z93xuo/mMfmskHP0vtwLZ+L1O8F6zHGYaoPSu7vM+CSfPfNc/Hls++1k3JbvhrMzT+IH3R1notvzaPzfSO+cl6vLaWBgOx3vK8IcYxzLNDfJdjbbufMmUrqnonIypm92K4a0dzdibtmI39KkfU2K13PlGa1HakfRziDY1nX6sNYiSYZzJhbXDrBgrq95XoXf4Ja3VId6cP9NFfO2F94QTnj29NlMbeZrJq8YzH1PrOT1nAy402k5Eu1dZzibm8n0bJ4E7InyE4wDw0CYrpxDgrhTJods6mVMznHzba16D5cyedC6d6/sWPxSOMw2gcjrBP9fYYnypl4DiZcZtuzV+I788i1sCslwhKbDC+7quIYE3eOcczlHGN7fJ+JH3xot0aY15x1nM8knFF2jZ6/5cybSuqegX7lzF6HMjZoactIOLNdOfUynxNDOIOjWNdtUFAlk5lEsNCWeACjJ+FPJ3k9ti5QSqdfT5N572T9Dp98n/WTGTt5CX9W7ATnn5tm/oGabJnJj61vtz1ldj+PEc7YVSD//Cl+QGWfVd/PNUjKOW72fbrkPlzL50KJ/V6wHmscxvpghXVynoOnwpm4DyZ31zpxdya73yRnu4/ATIqXDGc4xsZlHeMuPHqV2BdTP7k928z+LsjOQ/Lymfy6p9atnOnDlkZsthuxGgtatisTxKzE1lbYb8Wq0W00m/x4hnAGyzOnmYys4NBBi16p4tXZrUVTx0/LIZxxTY/xU6V/gY+tuLLyxiBnMjOYfMn/bSdf6n9fysTnmOGMO2ZPjvylosaFcMZ3LZ8LZSzkeKxxyAlacn6f4amyk/Pn4iv5X3/ydq0T99NPQLWFwxmOsePCjvGHV+JL1U7iOH77XG4bXVmT6xzGzfyhPWsuUlL3tPqVM9uNc1rSdjSc0UFOIwYZzF62MRbqRBDOnMJH8a6+FS9vvi++sKV6Id7tPprt2rvabnstPpnHlO7x+sE80j/2svkoPq1fOG3finv52JDsQ+PWk8+tX8s+mM2WbKvd3vZB99ut7/ark7GaYfqUJ8O0NVb819Effv2Yvh5LV68OfyFEVu8kIt0+MNiJdVP3p2JVdWIf9ClbXttdyQkeJuQuEWzDLvfUMfm/w0BM8gIR2XbdXYNHB2hWW6/9xSrHztRpx7o9FUm3P+jSoA/yOeq0JVnf1rWJ+lgZtJvxPmvJ53mTF/OzN4k1j7lF1W8nZSOnK/wHWcdeh6J9jqz/Hw44tnaipSaBXtuyD6m/zKs+en2Qdb0+RPYtLEtM7HLDmcn+SnYcBkGD2Re3v7PGTNWT29t6TpkTbNiJ+1hwEo5N+7NbYuNWeNzcMVP/O2ccJkX6cIrPhcuO95IhVMvsa/Sz8FjjMNYHK6xjfl58PJL0hEBPKuVk8nl/OsKXz2OTkQ/i21fP9WSlLc/a0xHik8+wrm7z2+gkRtaVr+3VlRPesK79K3Y/OTaif70u3TfpwzdePbV/X3ltWjnj0E/Ov2377V5TIzFxN68/Og5msqjGQI1ZW69tp9/H4SkiJcftmHImoKaOW0brz9m3nH6YdtVx6trWZRjOcIx7F3qM5WsOAxjzGnOO8cB4f8t+9ynz3g/2+/vgO3pEbl09f4rMJx5J4m5NY+FMYtt+KzbdaVErWSsP4cxjexD3JtwYlhfinamlzAlnUkWFNr2P4k0Vrxf2oQtn5OP3sddw+mDlBC925YwKF0a/s88NZ+pmGLyo4n3SS8MZFSoE9dsSruaxF6hNlXnhTDdmI8UbCxvgxEqwn92qpMR42+ptvar2wpv2Z6eu1/ZYH5xxmN634Zjp58wbyxg76bOTKHVx27FJj1vfK/LxuewEOxYcqBIGAO4FZcPSTcjNfoyV0clgimzfnXhGSzBxzeqvNCecyR2z5HGTZc4E175+MgAx4+T2+ZjhTO445DqHz4WrG7vgvXVs5zYOp6MnBCqsGEyWVAkmCvqvxJESTk6kZN3B5MNOfmLFnxDNCmcy9637C/mgDCdleePgTM5N233/YhP3sXFwJv22rWdm0t6WZ+IrO4k3P7t9Ljlui0uOq1O8fphJqlsSE1Zl3r6NT4TVsUi2K0ssnOEYR17bLU/2GJf+3sk8xgPj/S0NZ2a/H0quJ5NV15mbnWiVTeJuTSPhjF0ds7LxS+RaNbFVNQmEM4+sCztuxb3z3vy0exD31etlwhnVTvtudkOYPnT51NjVL7fizdqENur17fPdwKXrry73pn7fRhDm2GBi8gPVr7xQE+y6mQhppC5AMD/HuYGLnLjb2/eolR3tY6nnm+2JXxjuyo5+5YlaHaMf855mAw53DCZff9p0gOH2w75eMLaJfnhttxdl1o/vGnd1ihs6qVDE/Vk9JxxD+1rq+e7xtc+LjIX5xT25Gsa2ccRf3FMrQex2d4KoJmz/wJkwl7ITbFXaCaB53E703IlgV1dOUt2/xneTwkjf7ba5E3WPfM2ScKakv7ZuSTjTPi7bGBsz+/ywD1MT7VHhc83PYTiWanvqfabkHLeicTjAKT4XrqX3Z65Tj8PpuJMkOdmz14j4YB93JhNmEqAmD+5k0/5l35802ImGPxH47ptX4qtX/uzCTjrUpKH/y3LfrjtZmRPOtG1M7ZszofL/uqz/+uyFM9nj4E/O28lSNzFKTNyfy9fyrtPRTyC7dp2JcLu/tj+mzmCMio7bERRP3F32fZTo5Ox9y2zXe0+q969+vG+XY9y66GMs2f0L2tLHLQxvM4/xwHh/i373HfR+KPk+nle3Xzkz3eIxlK+cMeGMOgXKv1tTI1Yb9ZgKaghnzpYbdnQhStyscEadHmUeazlh0Jv2tfrAxl9N4wQu7us5/fXqD9q1wgn6mOAUITUpV9ebSYxJWTgzrDf+/PF+d+FMuD1yak1q2Z5+fJmVHlNjkeqDMuyHE7KEvzDN/ul2+nr65z58aX8OghXbh2HQYtqJdc57vTEl77NyOZPhdvIly5IXwO0m2OGkT76GetwNJewqlFgfU9ty9muuqclqSX9nhTOHjJmpO2vCL9/e7soY25/udU3bqZU1U+OmFIUzGeMw16k+F+fmusfBTAgif9HVk4n+8fDnXmxSYdt1QpEoM4GNtjvcNi+cmd631OQrJn8cgsm5N+kLto0JJ4u2r0G78dcpPW7HVvqa4/Xn79vY9pH3ZHgsOMYRl3aMlVh9037O8VWi7brG96fkd9+h74e8+ZlWUvdU5q+ccYp7C+3k9WgSCGceW/yUotj1XuaFM35dsXvdXVdGr9QZO63KFifgSYYwKfMmzTu16sIGBIkAoyicKZ60jz8vGXZEwhn72I17jZsFVs70TFvJ5Hl8+zCcsX2bCo6CdsPlie1+2zZskBPZ35HVMcO+pZi+FB/nDLJJNalSE3X1l267OsRdjdBytrX15eT30OtqlIQSY5N6O3kMA4FThjMl/Z0TzuTUbcMZWbzjqJi6s8IZSe2bfR31Gv9A7Y95Hdu/1JhPjZuSc9xKxmEWZ4we+3NxVq5+HPK+rPeTk5ESTlLkpKH/a7q6dov/F2pt/PX1JKP/y/SscGZy36TJiZNVMg7h5Nz83PYn3GaoVT3eqSx96fpmJu7dvob77u3LjON2VAXHpDVW/5B9y2g39tzB+ySsa37mGF/QMdZSq5X83zlGzjEeGB+3/N99h78fLi6cKV45Y7e1ocymv1tTay827R2buObMeVMX7X0t7gchjX+q0zWFM5YNQWLPfzLhTBdMRMrMcfFMnbM5empQJDSZas8y9bpqXhijNqsxsu2mx1Mfx/jqmPxf2scLZ7rJstwvd3LVTsAiE9z2VAWzIqOtMzHRHkM4o38+VjjT9uEI4Uwb+ph9U6+hJuHqvaP2p9232GsaU+OmnEM40/XzBJ+Lc8I45E6k5n7h/6BPZXKe61/IdPz1HyucSbY7UDIOkQlg20+1P5FtdrVEonR9Y+JuHLJvY+2abbHnemOrcIyHLu0YG/bYmfb074z+d1Mn9xgPjI8b4cx85StnugCGuzVdho/iU9OfOjQduMSvDZMKZ7zry7QTn/RpTVHF4YyZ/E+cT5hmJt2R5+sPdObqjuJJ+4LhjH2sMkFTW9S1X+aNyIBpP7mLY+HMSH+nhixc1eKHMaoZuZ/dcUuMp3mt+HFMH/uhQ99ncXaCqybB9n/bwKCdYI1MshV72kwYiuQqDhpkiU3YU6fvpEKbJUyFDCX9TY2D7b87DiVjNjUuc8OZLoBRr6n+Kx9Tr6Veu902NS4j25Wc41YyDqVs22rc7P9+zM/FuWAclPyJVBuUHDTJs5MGd0JjXj+6BN/W77elJij2Wgr9BEXJ37fhBCctfxxM/726uk9fvvpmsE0HUXqb13Y4WSyauC9x3JZUcExa4/Xn79tYu8P3nWWPUf/+4xgPXdoxttznxI67ln2MB8bHoeR332Hvh5Lv48f57r60GStnVAZjLgDcrPqVM3v5nDa0uRPdtYIzEM48LhXEvKwfxCf3XemsbnEDF++iu6r+7sE/JWoinFGrc7p23cedwMZe4DepOJyRT5kMUeQkXN2Cer3zP5zqNtX29tORpMAGJP7FZUOnD2e6VFjuj/y/TPIXltl399bVMWFIMmBXwrR9MI/J9vvr+/iJ9WR7hh++hL9gzc9d38OgJby+0Fg44/Y7LS+sKyDbUX8Jt5Pb0cmXfEyduhKepmCfM3eSn3y+/Fk97k6w7YRdTezdCaH7eMi2r9oZm0TOMRUyFPXX7K9bt6snizsOc8ase0wePzthjraRqXuvyPZt2+1jsu32fePuWyAnnMk5biXjUOQMPhcuewyXaKvImY1DCfvv6tS/LXnyJ1J2ctBeMLefB8TJyeVX7W2z/YqxCYadzKg+9JOJ/uKVXt/MBKe/0LBTTxZ3glKyb13dto2gH8EFgfPHIT6B089/pm/f62zrJ4V9o+6qo27MCifuRcfNsez7zCo5JkrehLV036ba7SfYptEPJmhRz5Glf/9yjIcu7Rj3bF/UKZre8XFkH+OBiXEr+N03f8yk3NX3Smbdbr7nXh7iEfUrZ7YrHbikihfU2NUzkVKSzEiEM4+rD0ZiJQhA3NDGKS8r00YsnImWMFhRd4aK1dMl78K/I2KrMzxmEp4sicl5t+rCL/7rFIQzifZscdstCWds3VipUsFDF6io4ocnoS78MT/H6DqxEoYZJlSZaK+r1w1AMM6R1TrRPlSNaJL9t30JSupYTr7PyrSTdHeSLF9WTaTc4k7qw1Ma3BJbHZKjdIJtV6MMityXaB8i+6TK7Im7IydkKOlvtK46RvK/bn+Lxixx3NSpJu7Eu5TtgyrdqghnrL0+JI6BLdFjkXjO7HEocA6fC1f3vpD9SgVVx3Bu45DP/fd2iTC7ZCJl/3IcL96kw0wuY/WGf602fYiVZ5l1zfUd/MlSyb5JdvIzKOGpC7njkPjrujs2zjY7oUqVrt3CiXt+f11Lv8+sjGOSPA66+Me4YN9K2k28f798rq+jxDEec2nH2OE9J3JKk5R9jJWicSj53Tfn/aAl50cReXX9uUBOu0vrV84UhTNKeAttfbem3NOZLMKZx/ZRvFOrZ7xw5DZ6QWDl01rWderdq+DEBiaT4Yxq98G/Bk1H9qOW2wfPWSCc6T5YIxP+3bpdKdIHErJU8mf5KRxbbbKTE/IqmMCfWzjT9UE9HgsbUsFE1l8kTNuTSwL1KqR+fNXYxu6Elduertftpwljuq6acfC7Lp/j7H97bNWjKpxJvZ56X3ing42NR8b7LJOd2IanG7iT7vCCn+3FQE1YkKpTqniCLfurVmuU9CHa77DdGXLCmaL+yrrtagRTT11QVdVTr+P2t3jM3P2X/22fJ1/rkHDGvpYq7sTbBgleu07dWEkdi6njdoxw5lw+F65TrJw5x3Eo0v1b99jhjKL/Whub1IRf+NUtaduVA10d+Tz5Ot4k1lJ/tXb+Cjxe172GjbrQsKqn9yM6mcneN9Vn1bbfj6+8Nq2ccUhM3CX71/Vw23ev/Isot2Mg++RNFosn7kr+cess+j6zlp64K5n7VtquGnf7PpPviXYlhBl7jvGYSzvGLif0iBxzK+sYK6X9zf7dp8x4P9jv4ZNzCKWgbvc+O1E4E7/mzOMhnLkMqWvOnIz5YC21quHpcAKDwa6rAObAXzYlywevwdW+zwAgT/tHDfXvxgJBNpDC++zycYzhWn7VjLZb27MJlgwB8yWuOfN4CGcuw9mFM9Li1wR5EuyqmVrut7/j7e3CD/plo1bDqOefJkk+V9f5PgOAceGppfy7gWPgfXb5OMYYKPljcWZdG+DYcqo/vLJyBos4x3DGDSpyLvB6GezKmXQp+2UTaY9/FQPX+D4DgHF2QpW81hmwAN5nl49jDI/9Y3POKUoFdW04o99np3ujsXIGizjPcEaRH0r1ITM/XQdzvZcgVFG/bNQdqsrY4EH9YlO34x67U9U1u8b3GQAAAPCYSr5zP73v56ycAQAAAAAAOCFWzgAAAAAAAJwQK2cAAAAAAABOiJUzAAAAAAAAJ8TKGQAAAAAAgBNi5QyS5t6B6V1z2z7vZX1ud24CAAAAAOD8RFbO7MV21Yjm7k7cNRv505iSunGEM6fxaf1a3Fe34ov6wTwyNC+ceRD36jltuRVvuO/yhfgsmupr+QtDljr8pJtt1Xtus41H9EH84Nn3xC99T5bn35jHLLPt2SvxnXkEAAAAOGf9ypm9DlruVNBiSypwKak7gXDmFD6KN5UJUBYPZ1g5c5mccObmQTReCkM4g1NwwpnvPRM/+GAebhHOAAAA4GnpVs5sVzZoacRmuxGrkcClpO4UwplTOG44g0tkA5i3opb/rZrP5nGFcAanYAOY5+Ir+d8vX7npDOEMAAAAnpZ+5cx2I5rV1gQs2/HApaTuBMKZx/PJrGgZKy+bj6a2E87UD+1pUC9toHNzK+6deq31i66NvrwQ78zmoY+y/Vvx0q1fyfq7oN0ie1Hf2ODgs2hkv/VKD/lYHQsOPot181ZUpo5aEVLV+0TAENbVba6jlWVd+dpe3ertoO6u0f2r1+YBa/1WP8cLQEr3TdrtvXpq/2qvTStnHPoAZt32W+6P2eJu855jXn90HHbv2+1qDNSYtfXadvp9VH3xlRy3U/tGfPU9Gxx8ED94/sys9JCPPY8FBx/Et6+eiy9NHbUi5Mvn3yQChrCubvNbbwWJJevK1/bqPns+qPvdK92/r8KzhL55rp/jBSCl+yZ9+Marp/bvK69NK2cc+gDm27bfcn/MFneb9xzz+qPj8OFVu12NgRqztl7bTr+Pqi++kuOmretKvner4ecfAAAAVylxt6aSwIVw5qmYHc4kyr07qSgKZ9zr0oRlLNCZYgKM+n37XxsIdCWY5K/rSB1VIitAknUjwUEbVMTqBqcDzQpnMvfNhh6DekEflLxxcAIY03bfv1g4MzYOTrBj26qCECkIldw+lxy30zMBxvNX7X9tINCVYJL/7fNIHVUiK0CSdSPBQRtUxOoGpwPNCmcy982GHoN6QR+UvHFwAhjTdt+/WDgzNg5OsGPbehaESEGo5Pa55Lhpa/k5vpHvW1mq5kyDRQAAADymxN2aCGcuW+FpTapUr8W7dgbhBCuJ5/YhUCJo6YKcWy/g+bSTbavXMT+X0wGGnqzLCf3ahAc7+7gTCpgARIUabqBgV2/4gYl5frBCZbd+L+rGf9fbwEUFBf0Kkb5dN0SZE860bUztmxOM+CtK9IoTL5zJHgc/gGkDki4MSYQztXwt28+Walf3q2vXCZHa/bX9MXUGY1R03PKtazNRTpXZE2gdYOjJupzQf2Nm9B/s404oYAIQFWq4gYJdveEHJub5wQqV7755Jb565YciNnBRQUG/QqRv1w1R5oQzbRtT++YEI/6KEr3ixAtnssfBD2DagKQLQxLhzHP5WrafLdWu7lfXrhMitftr+2PqDMao6Lj1+pUz895ZAAAAuCysnLlKpeGMH7K4pzvF5IczsnShzxJiQYWmQ4H+8fDnng1i3HezbdcJRaJsKBJrd7htXjgzvW9d4OHtQ1z+OAQBjOmj7nssnEnwnifZvgbtxl+npL9ljh/OuEGFpkOB/vHw554NYtxZvm3XCUWibCgSa3e4bV44M71vXeDh7UNc/jgEAYzpo+57LJxJ8J4n2b4G7cZfp/S4AQAAAHGsnLlKh10Q+OBwxn19p6i7Ox0W1ORO0G1QMlLCoGHtX+OkbmLXmxl/fR0s9KfozApncsKHMABJKhmHMIAxP7f9SYQzalWPd7pSX8JwptvXcN+9fZlx3E4ud4Jug5KREgYN3/jXOPnqVex6M+Ovr4OF/hSdWeFMTvgQBiBJJeMQBjDm57Y/iXBGrerxTlfqSxjOdPsa7ru3LzOOGwAAABDBypmrdOpwRvnYXmT4fhDS+Kc6lTliONP6rE9lcp7rX6z2PMKZZLsDJeMQCWDafqr9iWxzTleKFcKZ0NxJ/gd9KpPzXP9itecRziTbHSgZh0gA0/ZT7U9km3O6UqwQzgAAAOCUWDlzlc4hnHF9lM9xTnUa6dO4/ACjDUoOmsjboKAPW7rXj552Y+v321Ihir1+ytxwJh7uxOWPQySAMX2qmv1gmw6i9DavbS9skYrCmZL+ljn6aU0ZAUYblBw0kbdBQR+2dK8fPe3G1u+3pUIUe/2UueFMPNyJyx+HSABj+vTlq28G23QQpbd5bXthi1QUzixx3AAAAABWzlytLmBRAUpi1nmscEYFMS/lcz+5r7t73d9WO9ruTjTtBTRvRBWmGZ3y1SXtBXOnZt2796Jub5vthx2xcMWGEqoPfbPxCwLb4KG/0LBTT5bZ4Yyt27YR9CO4IHD+OMTCGfv8B1ElwpnauUaPu+pobjhTdNwKnEM4Y4OR9oK5UxnGh1fiq/a22X7FWLhiQwnVhz5AiF8Q2AYP/YWGnXqyzA5nupAoDEdk+8EFgfPHIRbO2Oc/E18mwpmvnGv0uKuO5oYzRcfNsWvs7zPu1gQAAAB35cx2Je5UyJIqbvhSUncC4cyJRG99nbiVdkY40wcyieK0MV73VryJzVR2jZzE28lyHVmZopQEGOOnyHj5z+gpOuEqmT4YGZQqs665Tsv8cEaywc+guCt9lNxxiIcz3tg422yIkipzw5mi43YWSgKM8VNk3MBl/BSdcJVMH4wMyrPMuuY6LfPDGckGP4PirvRRcschHs54Y+NssyFKqswNZ/L769rJ93Ef/p3f+xYAAACPrV85QzhzddoVLME1Xx4jnFGnMb0bvPbtxAWBl105o+mVKrHgJXyJ3fqtXh3S1ZHPU6s3zHbPbi/76oYTY3Xda9ioCw2reno/DgpnJL1Sxe9H7bVp5YxDIpyRutVCg1U1/kWU2zGQfVKPde0WhzNK/nE7vcIAQ0701UqVWPASTvK/++a5Xh3S1ZHPU6s3zHbPh2/ED5wVMON13WvYqAsNq3p6Pw4KZyS9UsXvx1dem1bOOCTCGalbLTRYVeNfRLkdA9kn9dj8cEbJP26ddS3fs4QzAAAA0BLXnHk8hDMAgGuzW9vVgFWwmg0AAADXKHHNmcdDOAMAuBb2WjO2VCQzAAAAkFg5AwDAI+kuBFzVYr3kVa0BAADwpLFyBgAAAAAA4IRYOQMAAAAAAHBCrJwBAAAAAAA4IVbOAAAAAAAAnBArZwAAAAAAAE6IlTO4ervmQdzcfC2qem8ewTX77tUz8Uvf+5748vk35hEAAAAAOC5WziDpXf198cWNLNVr8ck8luNdc9s+72Vd9ryl7dZvRVV93QYvttRrs7HzWTRdnbdisLnYXtTO67WlNPSR/Y73FYf47pvn4stn32uDF1u+GuQvH8QPujrPxbfm0fm+EV85r9eW0tBH9jveVwAAAACXIrJyZi+2q0Y0d3firtnInxL2W7GR9e5UvbY0YrUpX3lAOHMan9avxX11K76oH8wjQ/PCmQdxr57TllvxZmcefmR2NUxYYoHHsitnjhHOOAHSoC2zrXovTjTUT4JdDROWWOCx7MqZY4QzToA0aMtse/ZKfGceAQAAAHD++pUzex3K9GHLSDiz3+jwJlZWW1MpD+HMKXwUbyoToCwezpzDyhkbZjyIZv3ZPHYKJqhZMpxR++SlMIQz02yY8Uz84JsP5rFTMEHNkuGM2idvlwhnAAAAgKeoWzmzXdmApRGb7Uas1P9OrpzZilWzkvX6rfvtyjx/JbfmI5w5heOGM6c3MxRZ3MLhTPVW1PK/VeMGToQz02aGIotbOJx59lx8Jf/75Ss3nSGcAQAAAJ6ifuXMdiOa1daEMduJcCZOBzyNKDm7iXDm8XwyK1rGysvmo6nthDP1Q3sa1Esb6NzcinunXmv9omujLy/EO7N56KNs/1a8dOtXsv4uaHeWnFCk9PSjz2LdvBVVV/+hPQ1qPBDJ6Ydpt1sZ05dhOPNe1lWnYLnXxkmEM7u9aORx6/v7tXwN+Ty30u59u129zlrWbeu17cg2zc/DU73mjMOp5YQipacffRDfvnouvuzqP2tPgxoPRHL6YdrtVsb0ZRjOvJJ11SlY7rVxEuHMh2/ED57LPjrtfflMPs/LdV6129XrfCvrtvXadmSb5ufhqV7l47CuK/m+qZz3NwAAAIDE3ZoIZy7R7HAmUe7dyVVROONelyYsY4HOCBM02CAiWrwAoyycWddBXVtGV6xMhTOf0+3KEgtndmY/+9UzsXDGPBa0p4sT7Ni2Kvf6PA+itkGN+dk9jWreOJyACRpsEBEtXoBRFs58+zyoa8voipWpcOZDul1ZYuHMd2Y/+9UzsXDGPBa0p4sT7Ni2nrnX53kmvrJBjfnZPY2qfBzW8jNxI98zslTNmYd6AAAAwONJ3K1pTjgzL9AhnDmFwtOaVKlei3ftTMoJVhLP7UOgRNDSBTm3XsDzaSfbVq9jfi5SHM64JkIUc5qR2t4/XwUrOsRIrwDIbFf2y13Rou4y5bfrBzBtQNLtSyKcqd8G19vpg6CuXWfM2rDH9sfUsRdK7urPHodx69pM1lNlziS+OJxxTYQo5jQjtd0NQOxqkz5ECWW2K/vlrmhRd5ny2/UDmDYg6fYlEc48fx5cb6cPgrp2nTFrwx7bH1PHXii5qz9zHPqVM8VHFQAAALhYi62cmbNqRiGcOYXScMYPWdzTnWLywxlZutBnSTmnE7nG6+tQI3ab7anXGdtuV7dE2p0IZ/ztsXAmIWzXhjNBu/HXkT/OHodxRwlnPDmnE7nG6+tQI3ab7anXGdtuV7dE2p0IZ/ztsXAmIWzXhjNBu/HXOWQcAAAAAIQWWTlj7/JUeKOmFuHMKRx2QeCDwxn39Z2i7u60TFCzZDhjQ5SRkgxGMtqNPXcqnLE/t+0m2tnJ1/ZOV+pLGM50p0iZ1w1/9kIg00a0JMfh1JYMZ2yIMlKSwUhGu7HnToUz9ue23UQ7H+Rre6cr9SUMZ7pTpMzrhj97IZBpI1qS4wAAAAAgdODKGXX7bbViRgUzuRNhH+HMKZw6nFE+thcZvh+ENP6pTvM8hXDGbJsVzkhtHXU9mMi2iVO8CGemnCKcMdtmhTNSW0ddDyaybeIUL8IZAAAA4PQOWDmzF5vGBjPmoRkIZ07hHMIZ10f5HOdUp5E+5VkynBH6dJ5ZwUNO6DM8TWhwbZhYOGParpr9YJt9vtrm9TkMfYrCGdPuEQKYJ3la06zgISf0GZ4mNLg2TCycMW1/+eqbwTb7fLXN63MY+hSFM4eMAwAAAIDQzJUzNphpDgpmFMKZ0+gCFhWgJGa+xwpnVBDzUj73k/u6u9f9bbWj7e5E015I9EZUfWqRsGw4Yy+M294yuiglyAh9VLs2DFG3v3ZWp4yHM7ZfD/o23JFwpnYuCLxbvxe1aXtuODN/HMY9tXDGXhi3vWW0yS3yZIQ+ql0bhqjbXzurU8bDGduvZ/o23JFw5ivngsDfffNKfGXanhvOzB2HXWM/x9ytCQAAALD6lTPbVbsKJlmcoGa/0deYSZbMa9UohDMnEr31deJW2hnhTB/IJIrTxnjdW/EmNmPbNaLqJux15KK0roxwxgQPqdIFFK3xU3q8rKik3cTpR1X9tn18Kpzxnu9ssyFKqswNZ4rG4axkhDMmeEiVLqBojZ/S04coUkm7idOPvnz+vH18Kpzxnu9ssyFKqswNZ4rGobOT76E+eDvf9wwAAADwuPqVM4QzV6ddwRJc8+Uxwhl1GtO7wWvfTlwQeOGVM0XhjKJvGR0LU7zulLa7fq9Xvqjt1YNsS243ockgFImcUmRXyQxX1eiAR7+u7Lda7aJey223OJxRMsfhrCwdzij6ltGxMGV2OKN880qvfFHbnz2TbcntJjSZDGcku0pmuKpGBzz6dWW/1WoX9Vpuu8XhjJI5Dq51Ld8vhDMAAACAK3HNmcdDOAMA12O3tqvgKtEkw1gAAADguiSuOfN4CGcA4PLZa83YUpHMAAAAAB1WzgAAjq67EHBVi/WSV5QGAAAALgArZwAAAAAAAE6IlTMAAAAAAAAnxMoZAAAAAACAE2LlDAAAAAAAwAmxcgYAAAAAAOCEWDmDq7drHuQH4WtR1XvzCJDnu1fPxC9973viy+ffmEcAAAAAoBwrZ5D0rv6++OJGluq1+GQey/GuuW2f97Iue97Sduu3oqq+boMXW+q12dj5LJquzlsx2FxsL2rn9dpSGvrIfsf7egwL9PcCfffNc/Hls++1wYstXw3ylw/iB12d5+Jb8+h834ivnNdrS2noI/sd7+sxLNBfAAAAAK3Iypm92K4a0dzdibtmI3+K2283YtXIOqpeW7cRq802WT+FcOY0Pq1fi/vqVnxRP5hHhuaFMw/iXj2nLbfizc48/MjsapiwxAKPZVfOLB3O2PDoQTTJsTSvWb0X5cNNOBOyq2HCEgs8ll05s3Q4Y8OjZ+IHH9qtEeY1n70S35lH8hHOAAAAAEvpV87sdSjThS2j4cxWrNx6blltTZ08hDOn8FG8qUyAsng4cw4rZ5xAY/3ZPHYKJvg4cOVMFx41iX0x9ZPbs83s70VxAo1vkonGIzDBx4ErZ7rw6FViX0z95PZsM/sLAAAAoNWtnNmubMDSiI1aFaP+90g4s1ltxNbduN/o1TZ3K7k1H+HMKRw3nDm9cwkZlglnxO69qFQ7iZUx61puG11Zk4tw5nxChmXCGfHhlfhStZNYGfPtc7ltdGVNLsIZAAAA4BD9ypntRjQre1qSWRkzclpTjA54CGfO1SezomWsvGw+mtpOOFM/tKdBvbSBzs2tuHfqtdYvujb68kK8M5uHPsr2b8VLt34l6++CdmfJCRlMHbeM1v8s1s1bHZK05aE9DWo8D8nph2k3uDaOKv0pWGOnNpnXCIOb3V408rj1/f1avsZbsR7t8Hh/7QqewalhyZU7c8bs1HJCBlPHLaP1P4hvXz3XIUlbnrWnQY2fRpTTD9NucG0cVfpTsMZObTKvEQY3H74RP3gu++i09+Wz5+Lb0QBnvL92Bc/g1LDkyp3yMVvXlXyPVcP3JwAAAPAEJO7WVB7O7LerduVMs8l9hkY483hmhzOJcu9OgorCGfe6NGEZC3RG2NUlY8ULMMrCGb06JVJGr/MyFc58TrcrizvJLAtG3Isch2XsosfLhjPzxuwE7OqSseIFGGXhjF6dEimj13mZCmc+pNuVxQ1ByoIR9yLHYRm76PGy4Uz5mK3le/dGvr9kqZozDwABAACAocTdmnLCmb3YuBcElmVVGMwohDOnUHhakyrVa/GunfE4wUriuX0IlAhauiDn1gt4Pu1k2+p1zM9FisMZ10SIYsIHtb1/vgpWEmFFJ7Nd2S93RYu6y9SgXbt/QVvxU5o+i6Z+G1xvpw+C5va3KJyZPWbj1rWZgKfKnIl5cTjjmghRTPigtvfPV8FKIqzoZLYr++WuaFF3mRq0a/cvaCt+StMH8YPnz4Pr7fRB0Nz+FoUzM8esXzlT/A4AAAAATu6AlTPDcEYVVs48BaXhjB+yuKc7xeSHM7J0oc+SplashMbr61AjtuJk6nXGttvVLZF2Y+FMtL5pP3clSrRd1/j+lIQz88ds3FHCGc/UipXQeH0dasRWnEy9zth2u7ol0m4snInWN+2Prt5xRNt1je9PSTgzf8wAAACAp+uAlTM+dWttfUHgO1FywybCmVM47ILAB4cz7us7Rd3daZmgpjQAyAlRRsqsFTmm3dhzEyHKIByJhCKdnXztStcPy/HDmUPG7NRKA4CcEGWkzFqRY9qNPTcRogzCkUgo0vkgX/uZrh+W44czh4wZAAAA8HQtds2ZlrljU8nqGcKZUzh1OKN8bC8yfD8IafxTneZ5CuGM2VYQzoSnNumwJHKR4IlTvAhnxjyFcMZsKwhnwlObdFgSuUjwxClehDMAAADAcSy2cqZFOPNEnEM44/oon+Oc6jTSpzxLhjNCn6IzK0wYa9cGGMNTf9LXhnGfY/53pF/2+VUT3BkpFfp05oUz9joyg9OajhDAPMnTmmaFCWPt2gBjeOpP+tow7nPM/470yz7/y1fBnZFSoU9nXjhjryMzOK2JAAYAAABXZrm7Ne3lc9pr0DSi5LIzhDOn0QUsKkBJzGaPFc6oIOalfO4n93V3r/vbakfb3YmmveDnjajS6YKxbDhjQ4n2NtBFM/+M0McNNdTtr50VJ7Hd7AKSRq+OiZ3S1Ic7/bbd+r2oTdtzwxkb7tzUNnTpL/CrituX+WM27qmFMzaUaG8DHTmDKC0j9HFDDXX7a2fFSSxE6QKSV3p1TOyUpj7c6bd9980r8ZVpe244Y8OdX3puQ5f+Ar+quH2ZO2a7xv5+4G5NAAAAeHr6lTPblXdh30Fxg5qRulwQ+ImI3vo6cSvtjHCmD2QSxWljvO6teBObWe0aUXWT8DpyoVlXRjhjg4ZE8UOP8dN0vLCjpN3E6UdV/bZ9PBqieM+JnNIk2WAkVWb3145rWMy1bWaP2VnJCGds0JAofugxfpqOF3aUtJs4/ejL58/bx6MhivecyClNkg1GUmV2f+24hsVc22b2mHV28v3Wh3Tn+/4CAAAA4vqVMweFM41oVhuxLctlWoQzp9OuYAmu+fIY4Yw6jend4LVvJy4IvPDKmaJQQtGrRGJhyvywQ1q/F5UNMaoH2ZbcbgKY+G46ocfIaUO7Rgc8+nVlv9UKFvVaYbul/ZV9sytwVLt1o06d0uM9e8zOytLhjKJXicTClPlhh/TNK/GlDTGePZNtye0mgIkHGE7oMXLa0HevdMCjX1f2W61gUa8VtlvaX9k3uwJHtftVe+qUHu/ZY+Za1/K9RTgDAACApylxzZnHQzgDADjUbm1X11XRFWUAAADAOUtcc+bxEM4AAOay15qxpSKZAQAAwBPEyhkAwJPVXQi4qsV6yatPAwAAAI+IlTMAAAAAAAAnxMoZAAAAAACAE2LlDAAAAAAAwAmxcgYAAAAAAOCEWDkDAAAAAABwQqycAQAAAAAAOCFWzhxsJ5rqpr2V601ViXrNrVwBAAAAAEC+yMqZvdiuGtHc3Ym7ZiN/mrbfNOJO1ZdltTUPZrqocMaUem02AQAAAAAATOhXzux1KGNDlrbkhDP7jQ5yTLm+cKa3a2od0JDOAAAAAACATN3Kme3KBiyN2Gw3YpUVzuzFplHPWYmNWT1zzeFMt4qGcAYAAAAAAGTqV85sN6JZbU0Ys80KZ+zpTCqQcf93CcIZAAAAAABwzRJ3a8oIZ8zpTM1G1yCcUQhnAAAAAABAmcTdmqbCGXM6k7OdcEaxFweuRMNdmwAAAAAAQIZZK2d0ENMIs2imRThj7BpRO3dvqhpCGgAAAAAAkFa+ciY4nckinDF2a8IZAAAAAACQrXjljA1hpkoY3qRcWjizrs1pTWQyAAAAAAAgQ/HKGcKZMVwQGAAAAAAAlJl/t6YApzUphDMAAAAAAKBMv3JmuxqsfvHKRFBDOKMQzgAAAAAAgDL9yhnCmQUQzgAAAAAAgDKJa848nssKZ9aiVndpIpwBAAAAAACZEteceTyXE87sxLqp2ttnE84AAAAAAIBcrJw5mDmVSYUybeE22gAAAAAAIB8rZw7mhDNVJZo1yQwAAAAAAMjHyhkAAAAAAIATYuUMAAAAAADACbFyBgAAAAAA4IRYOQMAAAAAAHBCrJwBAAAAAAA4IVbOAAAAAAAAnFBk5cxebFeNaO7uxF2zkT/FbMVKbY+V5HPiCGcAAAAAAMA161fO7HUokxe0EM4AAAAAAAAsoVs5s13ZgKURm+1Ghy8T4UyzKYlh4ghnAAAAAADANetXzmw3olltTRhjVsYQzgAAAAAAABxV4m5NhDMAAAAAAACPIXG3prxwxr/WTCNWG7vyJh/hDAAAAAAAuGYHrZzxwhlbks+JI5wBAAAAAADXbObKmaH93lxEWJaS050IZwAAAAAAwDWbuXImYbsinAEAAAAAACiw2MoZZb9pCGcAAAAAAAAKLLRyZi/225Vo1HPuGlFyEyfCGQAAAAAAcM36lTPmlKRkcYOaZN1GrLamTibCGQAAAAAAcM36lTMHhTONaFYbsS1YMWMRzgAAAAAAgGuWuObM4yGcAQAAAAAA1yxxzZnHQzgDAAAAAACuGStnAAAAAAAAToiVMwAAAAAAACfEyhkAAAAAAIATYuUMAAAAAADACbFyBgAAAAAA4IRYOQMAAAAAAHBCrJzB1ds1lbi5uRFVvTaPAJhnLeqqlv8/ZmwbAAAAcN1YOXOm3tXfF1/cyFK9Fp/MY0m71+KlquuVF+Kd2Zzyrrlt676sM17jYu1EU9204czNDRNHYD77WZKfo515yLVbi/rIn7PduhaV/TxXjewRAAAA8DREVs7sxXbViObuTtw1G/nTuP12I1ZNI+5U/basxNZsy0E4E3f8cOZB3Hd1b8WbR5/F7MS6rkTVTtZ0qdRf1XfxjqjVLdWRJnWsnMkcXznxtceqL/J5ctyYBB/KCQkH70Oz7czDhnWt3w/NWCd3jf7MH+OzFr4/CWcAAADwhPQrZ/Y6lOlDlqlwZi82jVO3K34487Of/Uz82V98J37nYSv+7dd/0P5X/aweVwhn4orCGccnsxrmvFfO2L+gx0o8INATv+P9xf3aZY1vNJwxhYnwgdwVXGHA8QTCGfPeqEaTGc2GoUvnM/o9LNvN6AMAAABwbrqVM9uVDVcasVGrYdT/HglnbP1mtRHbfbyWCmC+/v234uuHt+LDd38lPv31/2n/q35Wj6vthDNxjxHOnIqdRA1WXOzWoqkbwpkTKAln3En1bm1WQkytmMAEG8DUopb/9UOOcw9nSvtnwtmF96d9DxMSAgAA4InqV85sN6JZbU0Ysx0PZ/ayrtou649592c/Fv/u97biL//6/w6Kelxtf+rhjA1RXjYfxaf1C+f0oltxLx9zpQKX7vH6wTziP/Zp/VrcV+bnSLuuyXBG9lFvd8tEkLN7kK9v21XlVrxU/TKbS+kgIGMyP7ZSwxR/EqsnffoxOWGs9V/o23p1OGmLrN5J/Clf/6Vf9Xcn1k3dn4olJ9LxfdCnbHltd+WQEKOk3aCvcvsgDCsd30g4o6RXQmT0oRPW1ccseu0SVTd6SpzZbCT7FV3lUfLeMdow0T0eVWLVRs449AHHuu23G5Qlwg/z+qPjYE4jUmPQvXfadvp9VH3xlRw3KTqe446xeoZwBgAAAE9Z4m5N4+HMfqNOf2rEJrWsxni9+UPxX//8f4kPf/U3g6IeV9svJZxJFRXaWLPCmURx23UtHs5E6+tyP3NipcMZWcYmfMrccEZOpgfBiyreTLA0nFET36B+W8LVJmYiPahny9xwpqzdbozD4k5ejxzOZPXBSNYdHJOxcfDHYFY4k/Xekey1UwZleHzzxsEJYEzbff+cbeaR8XFw3pO2rUqPhS6VqINQyT/M9vGgRI6bousXvq+PcO2Zth+JPgIAAADnLnG3pvFwRp/StBKb7Uo07nVnGvVY/4x/9uu/I97+z/8t/t7f/4eDoh5X2y8qnKlei3ftzOCjeNOtdOmDj9nhzES7rpLTmqbrOhcNrmSdbtajVwm9mT2vkhPhbmKpVhtMhDSSngCGQUjIDVzkZNEuIZi8S4zZnpgo2km+Kv0KArV6Qz/mPc0GHu4kcYm71JS0a+t2fVX0apNBf42s8Y2EM+3dcQ7ugx1/f2KtTplS7w1XdyzkOPQrRPp23WM4J5xp25h87/TBiL+iRK848ZvNHQc/gPGDhkQ4U8vX8pfJ6Oe57TohUru/tj+mzmCMio6bEutbjrnPS5D72R6npdoDAAAAHtmMlTOpCwH3xZ7t9Ku/9Z/FH+6+E3/6lz8dFPW42n4x4YwKL8xjrW7FSX8npFnhTEa7riXDmX77Me7mpCeyduKoSvo0FjNZnQw30iHI+PNtOBDf2gUC4fbIJD8VCOjHC1cXOEraTe9rej+zxteZ2PulGvSrrA/2uDmhSJSZ0EfbHW5LjVnsuPV9GLY92JeCVR/54xCEFaaPenNBkOE9T7J9DdqNv476UW7L6q+Venxa1ntugj3Gep9SpxkCAAAA52/Gypk+nGmvUdNV2Itte7qT3GbSme2f/lj8m//4X8SHn/zNoKjH1fbLCWeCC/c6t7e2p//MC2em23UtGc4k+7CwnVqd0E6sVYkHGHkTubkTxfHnFU3y7eTXXQWy5MqZyXZtSDFSIpP8rPG1ffBKbEI8ow+y7T6oU6upYkHd+HHS+9C/f2aFMznvHfP86aol4xAGMObn9kXCbUb7uXHCCad0fTPhTLev4b57+zLjuJWMW4BwBgAAAOjNXzmTsU3djem3f/jH4rd+94/Fjz7sxV/sf9r+V/2sHr+EuzURziynm2hFJnpPJpwZm+DOmMD2ctudM8HOHN8glOjv1BQ+b14f1PPaU5mc5/oXqx0/To8VziTbHSgZB1PXHZe2n2p/Ituc05VipevbhYczVvdenNEPAAAA4BwccM2Z2AWBh8GNCmD+5P134rd/dyv+9b//g/a/6mf1uHKp4UzslKB4Xee6LhnhTKxd15LhzNRrLc9M9CIT93DiHTd3ojj+vKJJvn0svADreMenFbTbjlVkDMdkja83kdfs2PhBx7w++GxQ4PbJHKfohN7W77eljpu9fsrccMaOQ7jPMfnjEAlgTJ+qZj3Ypo+X3ua1HR6jonDGtFt03GL9zjH3eWmHv+cAAACA05l1tyaxXenTl7zte/mwPq2pmbqNk+MSwxl16+vultru424YomYQuwfnAr+yTIQzqXZdS4Yz7iqd2AWBx27pnSYnnOr0g7W6ma9D3aY6clFXqw8Bgsmop2CC7Rl/Xkk4oyfNtVjL/ZH/t5iSdruxkh3O7UPW+IYT/5YZuyDYKerDrhF1e70hv2Js3G0ooY5VXzvx3jH97U8Fc+rJMjuc6fY5HC99HaV54xAPK/TzK32nMGebHYfaOffLXXXU7UZhOFN03Azdl6ngNGBX/mSNd562H4QzAAAAeKL6lTM2cEmVIIhJXhS4WQlzPeAsFxPOREuw4sQNO5zysjIhSSyciRa/3T5kSZRoQJQoQegzVj91O+9x/cQ2XlQAYaq67EQ7KLMn2In2bHHbjYUErXCiK9m6sVJViX3LUNauXUUSL9HhyRnfYCLfsc/1NhT0wU7Uo0Xum6mmjbx/1DiYWlqirll9NPu9oyTfP2FIkTsOiZUk7tg428beD6p07RaGM/n9dYRtZkh+pg5AOAMAAICnrF85UxTOKP1KGV0afYFgszXXZYYzt+Jl/RBf2bJ+4QQ0t3r1ib0DkxPOqFUy95Vsp6ur67ftBrOPY4Yziu1LXy+9f1l2a9HUlT8hlxPmqb/Wt7dtDiaOsyfYycm1Lm67JeFM1wf1eHSSGwYIuUrb1atEYqFHangmx9fs7/D5dkI/DCZy+zB8bfN+MNs95v2TV9e9ho29bbsey9nvHUOvVPH7ET99LWccEuGM1K0WCrbtvLudmTEw117p2i0OZ5TS9449/rnv7fS+HoJwBgAAAE9Z4pozj+cST2vCtXImqYMZotxmJtnxCe6YY7ULLCQMfUYcY9WMokOsueEnAAAAcFqJa848HsIZXA67ukVdd8SfpLa3C2+3FV6bo3WsdoHl6HBk4n1oT9M6QpJoVxiNX5cKAAAAOE+snDkQ4Qx6doVLuuSsLBg6VrvAkvoQMXptJRskHuvUI/f6PMd8HQAAAOAIWDlzIMIZ+Mz1OoIwRV20V92har5jtQssad3ejS2+LmZs2zLaa+7YzwjhDAAAAJ4QVs4AAAAAAACcECtnAAAAAAAAToiVMwAAAAAAACfEyhkAAAAAAIATYuUMAAAAAADACbFyBgAAAAAA4IQiK2f2YrtqRHN3J+6ajfwptBebRm5T21Ml+rw4wpnL8mn9WtxXt+KL+sE8Aoz5LJrqa/mLSJY6/K1htlXvuSUyAAAAgIvWr5zZ61BmOmQhnEHKR/Gm+r744kYWwhlkccKZmwfReCkM4QwAAACA69CtnNmubLjSiM12I1aFIUtru2rbaDb5zyKcuSSEMyhlA5i3opb/rZrP5nGFcAYAAADAdehXzmw3olltTRiznRHO2BU1K/nsfIQzj2z9Qocn1WvxSXwU7+pb/bMsL2v1WEjWaV6Il6aOrffOmS1/avo2UuVl89HUFvI1zeNtH3rd426wU9Bf+3z1Wp/k8/o+34p75/XL7UV9Y4ODz6KR/dMrPeRjdSw4+CzWzVtRmTpqRUhV7xMBQ1hXt7mOVpZ15Wt7dau3g7q7RvevXpsHrPVb/RwvACndN2m39+qp/au9Nq2ccegDmHXbb7k/Zou7zXuOef3Rcdi9b7erMVBj1tZr2+n3UfXFV3LctHVdyXrVcKwBAAAAoEDibk0zwpkZq2YUwplHZsOOmxfi3oYhbpET156zEmZQXoh3ptajhDMZ/e2enyj3syfQJsCo37f/tYFAV4JJ/rqO1FElsgIkWTcSHLRBRaxucDrQrHAmc99s6DGoF/RByRsHJ4Axbff9i4UzY+PgBDu2rSoIkWxQY352+1xy3LS1HLMbWUeWqhkNcQAAAABgTOJuTaXhzLxVMwrhzCPrwg4bWOjQpA9YYqHLrXhj6ondg7i3z/eCHCXvtKZ54YwuY/31whnZtl7dM9bfXDrA0JN1OaFfm/BgZx93QgETgKhQww0U7OoNPzAxzw9WqOzW70Xd+J88G7iooKBfIdK364Yoc8KZto2pfXOCEX9FiV5x4oUz2ePgBzBtQNKFIYlwppavZfvZUu3qfnXtOiFSu7+2P6bOYIyKjluvXznTPwsAAAAASi2zcmbmqhmFcOaROWGHu5qlf/xWvGnnmX3Q4tWTumAkCFeOHc6M99cNZ/rARom2WyQWVGg6FOgfD3/u2SDG/YzYdp1QJMqGIrF2h9vmhTPT+9YFHt4+xOWPQxDAmD7qvsfCmQTveZLta9Bu/HVK+gsAAAAAy1tg5cz8VTMK4cwji4Qacc6Kk2TxQ5DjhjNT/S1st0juBN0GJSMlDBrW/jVO6iZ2vZnx19fBQn+KzqxwJid8CAOQpJJxCAMY83Pbn0Q4o1b1eKcr9SUMZ7p9Dffd25cZxw0AAAAAFnT4yhmzauZuNSeaIZx5dIQzMxwxnGl91qcyOc/1L1Z7HuFMst2BknGIBDBtP9X+RLY5pyvFCuEMAAAAgKfowJUzdtVMI2ac0dQinHlk2WFH+rSmtEPCmcS1YZ5UOCO7q4KSgybyNijow5bu9aOn3dj6/bZUiGKvnzI3nImHO3H54xAJYEyfqmY/2KaDKL3Na9sLW6SicKakvwAAAACwvMNWzhy4akYhnHlkBWGHe0FgeyHeKV0QolbVJNr3Luar6uwe+lBHlScczthgpL1g7tRMf/de1O1ts/2wIxau2FBC9aFvNn5BYBs89BcadurJMjucsXXbNoJ+BBcEzh+HWDhjn/8gqkQ4UzvX6HFXHc0NZ4qOm2PXqAsC38jncbcmAAAAAPP1K2ds0JIqg6Dm8FUzCuHMIysIO9rVLG5oEpToipqu/ZG6u9fiZaxOZUKbJxzOdGGDqh8pbuAyfopOuEqmD0YGpcqsa67TMj+ckWzwMyjuSh8ldxzi4Yw3Ns42G6Kkytxwpui4dXbyOeZW2rLE6wAAAADAtH7lTGk4s8CqGYVw5pEVhTPKR/Guvo2HKYnTnT41L8TLINQJ636S/ejbvBX3arvt25MOZxS9UiUWvIQT+N36rV4d0tWRz1OrN8x2z24vGtluXl33GjbqQsOqnt6Pg8IZSa9U8ftRe21aOeOQCGekbrXQYFWNfxHldgxkn9RjXbvF4YySf9w661puJ5wBAAAAcJjENWceD+EMgKdqt25E1YYzVbByCAAAAADyJa4583gIZwA8NfZaM7ZUJDMAAAAADsDKGQAo1F0IuKrFuuQKwgAAAAAQwcoZAAAAAACAE2LlDAAAAAAAwAmxcgYAAAAAAOCEWDkDAAAAAABwQqycAQAAAAAAOCFWzgAAAAAAAJwQK2cOthNNddPeVvemqkS95ra6AAAAAAAgX2TlzF5sV41o7u7EXbORPyXst2Jj69nSrMRmm3xG1EWFM6bUa7MJAAAAAABgQr9yZq9DmS5oacOWVDizFSu3XlBWW1MtwyWd1rRrah3QkM4AAAAAAIBM3cqZ7cqGK43YbDc6fEmEM/uNDnGazdbbvt+udBsF6cwlhTPdKhrCGQAAAAAAkKlfObPdiGZlwxazMmYinBlmMOZ5hDPmZwAAAAAAgHGJuzWNhzNivzHXmmnEyqye2e/lcxr92Cb6pDjCGQAAAAAAcM0Sd2uaCGeU/caEMU5pVqLwesCXGc7cVKLhrk0AAAAAACDDvJUzrX17tyYvnGmvV1OWzlxWOCPtGlE7d2+qGkIaAAAAAACQNnPljNkui74osH+np2u9W1NrtyacAQAAAAAA2WatnLF3dmqCi8t0d2saXXHju7RwZl2b05rIZAAAAAAAQIYZK2f2YpO88K9dUbOS/yvPZYUzXBAYAAAAAACUOXDljL31tsbKGcIZAAAAAABQpl85Y4OVVHEDl4m613vNGcIZAAAAAABQpl85UxLOKPutWDX+3ZoabqVNOAMAAAAAAIokrjnzeC4rnFmLWt2liXAGAAAAAABkSlxz5vFcTjizE+umam+fTTgDAAAAAABysXLmYOZUJhXKtIXbaAMAAAAAgHysnDmYE85UlWjWJDMAAAAAACAfK2cAAAAAAABOiJUzAAAAAAAAJ8TKGQAAAAAAgBNi5QwAAAAAAMAJsXIGAAAAAADghFg5AwAAAAAAcEKRlTN7sV01orm7E3fNRv6UshcbWe9O1WtLI1ab7Uj9OMIZAAAAAABwzfqVM3sdyvRhy1g4sxUrt55bVltTJw/hDAAAAAAAuGbdypntygYsjdhsNzp8SYQztm7jrpTZb8WmMc8vWD5DOAMAAAAAAK5Zv3JmuxHNyoYtZmVMNJwZ2baXbbShTX46QzgDAAAAAACuWeJuTRnhTPT0pbFtcYQzAAAAAADgmiXu1jQWzuzN6Ut3YrV1tqrTmuw1axKnQ8UQzgAAAAAAgGs2Y+WMtF3pECZVCGcAAAAAAACyzFg5o+23K9GYFTQ6kFn1FxLmtCYAAAAAAIAs81bOpHBBYAAAAAAAgCKzV87E6FtscyttAAAAAACAXAusnNmL/V7Wt6c4FZzSpBDOAAAAAACAa9avnCm5yK85fWm0TibCGQAAAAAAcM36lTOzw5lGNM1KbPelsYxGOAMAAAAAAK5Z4pozj4dwBgAAAAAAXLPENWceD+EMAAAAAAC4ZqycAQAAAAAAOCFWzgAAAAAAAJwQK2cAAAAAAABOiJUzAAAAAAAAJ8TKGQAAAAAAgBNi5QwAAAAAAMAJsXIGV2/XVOLm5kZU9do8giUxvo9lLeqqlv8/ZmwbAAAAgFNj5cyZeld/X3xxI0v1WnwyjyXtXouXqq5XXoh3ZnPKu+a2rfuyzniNi7UTTXXThgc3N0xel7f0+K5F3bbllNLQZ123z7usrMiOsxzjnXnItbPjdrz3+E6Oa2WPddXIHgEAAADI5a+c2W/FZtWIu7s7Uxqx2uzNxtBebDcr0XR170Sz2spHyxDOxB0/nHkQ913dW/Hm0WdSOzlHrkRlJ9iyVOov+7t4R9Tqi+pIE0tWduSObyQY6UolmsR7aNnxPUY44wRIg7bMtjMPG9a16n/6GLR2jf68HeN9bsa0K4QzAAAAQJF+5cx+4wUtXlltdR3HdhWpp0qz8QKan/3sZ+LP/uI78TsPW/Fvv/6D9r/qZ/W4QjgTVxTOOD6Z1TDnvXJmbJIfDwj05PN4f/W/dnnjOy+cOR7TnyXDmcF+PIFwxuxPlXEAbFC2dD6j3z+y3cd/EwAAAAAXwVk5sxWrZiU22z5a2W9XJnRZya0O+7is31Xfq+frgKYxq21UAPP1778VXz+8FR+++yvx6a//T/tf9bN6XG0nnIl7jHDmVOxETq2k8OfBa9HUDeHMCRSFM8dYeTHLwuFMVYta/tcPOc49nCntnxmzhfenff+wWgYAAACYbfKaM3qFTCPcs5tij7Xs6huzeubdn/1Y/Lvf24q//Ov/OyjqcbX9qYczNkR52XwUn9YvnNOLbsW9fMyVCly6x+sH84j/2Kf1a3FfmZ8j7bomwxnZR73dLRNBzu5Bvr5tV5Vb8VL1y2wupYOAjJUW4akSkeJPpPXEUz8mJ621XiXQ1qvDiaOZpLolMcnXqw1Uf3di3dT9qVhyMh/fB33Kltd2Vw5ZYVLSbtBXuX0Qhs0c37wwJH98tYz+DuT0x7SrAoyubV36p/UBx7o91m5IlQg/2iAxdlqe2a6Y04jU63THrW2nf28OT/UqHIeCVTPWMVbPEM4AAAAAh5m8W9MwiNmKVeT0Jf96NXqlzevNH4r/+uf/S3z4q78ZFPW42n4p4UyqqNDGmhXOJIrbrmvxcCZaX5f7mZM7Hc7IMjbpVOaGM3UzDAZU8WajpeGMmnwH9dsSrjYxk/lBPVvmhjNl7XZjHBZ3An1G4UxWfwem+qPCrKA9p/RPcwIYE6j0+x0LZ8aOhfN+sG1VJphpSyVqL2Cbcdwcun7he+oI155p+zF6rAAAAACMmVg5Ewli7OqY7jo0e7H1LiKsig5z/tmv/454+z//t/h7f/8fDop6XG2/qHCmei3etbOTj+JNt9KlDz5mhzMT7bpKTmuarutcNLiSdbqZl14l9Gb23E5OqrvJrZysNlMrJOwkNPO0G9NuY5cxTN6pZnySb8MZVfpVDP3E33uaDTzcieoSd8opadfW7fqqqP6mV0yUj29QRifm4+M7p79aZruyb+6KFnVXIb9dP4Dxg4ZEOFPX/furFXk/2BBEljbssf0xdQYrWIrHIda3HHOflyD3sz0OS7UHAAAAXKHRlTPR05dMOKPuzOTfrUnd2Uk9poIa/Zxf/a3/LP5w953407/86aCox9X2iwlnVHhhHmt1K076OyHNCmcy2nUtGc70249xNyc56fRO31DBhz+JdpWFB8N6488fn+R34Uy43Uym3dUlqVNG9ONzV82UtZve1/R+lo1vpIxOzMfHd05/tbHtJoCItTsRzvjbC4KMsF0bzgTtxl9H/Zjob3I/p8YnLe94j+s+F+0+pU7xAwAAAJAjuXLGroYZ3Kgpclcn9xbabqCz/dMfi3/zH/+L+PCTvxkU9bjafjnhTHDhXuf21vb0n3nhzHS7riXDmWQfFrZTK0DaibQq8QCjKDwonqyOPy8VjNjJtXfqj52Au9e4WXLlzGS7NpQYKZGg4XTjO6+/Wka7secGociwrvm5rZBop33POuGEU7p27WlN9v0Rvl+8fswZh7nHQ720apNwBgAAADgXkZUz6jQlHbqsnDs39cypTm0os+nv1tTai017xyZ9zRl1N6bf/uEfi9/63T8WP/qwF3+x/2n7X/WzevwS7tZEOLOcbrIXmWw+mXBmbJI9YxLdy213ziT/lOM7r7/aWLtmW+y5k+GM1NZRQWFkm3O6Uqx07V54OGPt1mY8ZvQDAAAAgBasnLHhSmTFTMfWCU53UoK7NSkqgPmT99+J3/7drfjX//4P2v+qn9XjyqWGM7FTguJ1neu6ZIQzsXZdS4YzU6+1vPSEWk8mp04LmjtZHX/enJUzg4vAjnd8WkG77VjFQokRpxzfOf3Vxtq1YccwgND7OhHOmLarZj3YZp+vtnl99sIWqSicMe0WjUOs3znmPi9t/jEEAAAAoDgrZ/rQJR3MaPv2ujIqhFn1K2f2W7GaDHaGLjGcUbe+7m6p7T7uhiFqFrN7cC7wK8tEOJNq17VkOOOu0oldEHjslt5pctKrToFYqxsKO9Rtqu1dbCKTbRuQDCbEnuOEByXhjJ6412It90f+32JK2u3GSnY4tw/nML4l/dXG2+1DFNPozgQt6jmy9E+LhxW6X5W+S5ezzbZbOxdIUqtH7Kl5XbuF4cyccdB9mQrVAnblT2Lc5mj7QTgDAAAAzNatnOkCl1Txbp3dr7AZlJJkRrqYcCZaghUnbtjhlJeVCUli4Uy0+O32IUuiRAOiRAlCn7H6qdt5jzMT6mRRAYSp6jIT2bC4wUjXds6kM9GeLW67dtI8aDYSzti6sVJViX3LUNauXTUSL9HhOeH4FvW3pN3E6UdVrS9E3bebWEniPt/ZNnYsVOnaLQxnun6YdsISHfawzQzJ9/MBCGcAAACAw3QrZ8rCGSW8hba+W1N4ptOUywxnbsXL+iG+smX9wglobvXqE3sHJiecUatk7ivZTldX12/bDWZAxwxnFNuXvl56/7KoFQx15U+cK/mznC2OrRhQt0BuVzE4z/MnpacPZ7o+qMejE+1a1pijtF29EikWTqSG51Tjq2X2t7RddT0Uu0/yPdaudjGhSd9uIpyR7CqZcNvOu9OYee+aa6907RaHM0rpcbOBTu77Kr2vhyCcAQAAAA6TvFvTY7nE05pwrZyJ8mCWKreZiX58kj3mWO3iIoShz4hjrJpRdIg1N3gEAAAAELlb0+MinMHlsKtb1G2F/Ylye7vwdlvh9UFax2oXl0KHIxPvAXua1hFSPLvCaPyaRQAAAABSWDlzIMIZ9OwKl3TJWd0wdKx2cTn6AC96XSMb4h3r1CP3+jzHfB0AAADgQrFy5kCEM/CZa4YEYYq6aK+6Q9V8x2oXl2Pd3gktvi5mbNsy2mvu2Pcn4QwAAABQhJUzAAAAAAAAJ8TKGQAAAAAAgBNi5QwAAAAAAMAJsXIGAAAAAADghFg5AxzJrnmQH7CvRVXvzSMAAAAAAAyxcgYotFu/FVX1dRu82FIPboPzWTRdnbcL3CVnL2rn9dpSGvrIfsf7CgAAAAA4JX/lzH4rNqtG3N3dmdKI1WZsArgXW1m/UXWbjfypHOHMZfm0fi3uq1vxRf1gHrksdjVMWGKBx7IrZ44RzjgB0qAts616zy2RAQAAAODI+pUz+40OWWJltdV1rL0OZbw6hDMQH8Wb6vviixtZLjKcsWHGg2jWn81jp2CCmiXDGbVPXgpDOAMAAAAAj8VZObMVq2YlNtt+wrffrkz4spJbe9uVDWUaWX8jVoQzaF16ODMzFFncwuFM9VbU8r9V4wZOhDMAAAAA8Fgmrzmjg5hGeGc3bTeiWW1NGLMlnHlK1i90eFK9Fp/ER/GuvtU/y/KyVo+FZJ3mhXhp6th675wZ+6embyNVXjYfTW0hX9M83vah1z3uBjsF/bXPV6/1ST6v7/OtuHdef76cUKT09KPPYt28FVVX/6E9DWo8EMnph2m3WxnTl2E4817WVadgudfGSYQzu71o5PHp+/u1fA35PLfS7n27Xb3OWtZt67XtyDbNz8NTvcrHYV1Xsl7l7A8AAAAAPE2Td2uKhjMewpknxYYdNy/EvQ1D3OKteHFWwgzKC/HO1HqUcCajv93zE+V+ziTeBA02iIgWL8AoC2fWdVDXltEVK1PhzOd0u7LEwpmd2c9+9UwsnDGPBe3p4gQ7tq3KvT7Pg6htUGN+dk+jKh+HtRyDG1lHlqoZDXEAAAAA4NxNrJzJCV4IZ56ULuywgYUOTfqAJRa63Io3pp7YPYh7+3wvyFHyTmuaF87oMtZfL5yRbevVPWP9zVAczrgmQhRzmpHa3j9fBSs6xEivCMlsV/bLXdGi7jLlt+sHMG1A0u1LIpyp3wbX2+mDoK5dZ8zasMf2x9SxF0ru6s8ch37ljLOTAAAAAPAEja6cmV41oxDOPClO2OGuZukfvxVv2rluH7R49aQuGAnClWOHM+P9dcOZPrBRou3OknM6kWu8vg41YrfZnnqdse12dUuk3Ylwxt8eC2cSwnZtOBO0G38d+ePscQAAAACAy5BcOWPvxhTeqGmIcOZJiYQacc6Kk2TxQ5DjhjNT/S1sd5YlwxkbooyUZDCS0W7suVPhjP25bTfRzk6+tne6Ul/CcKY7Rcq8bvizFwKZNqIlOQ4AAAAAcBkiK2fUbbLVihkVzORMQglnnhTCmQM8hXDGbJsVzkhtHXU9mMi2iVO8CGcAAAAAYJ5g5cxebBobzJiHJhHOPCnZYUf6tKa0Q8KZxLVhLjackbvmXeOlRE7oMzxNaHBtmFg4Y9qumv1gm32+2ub1OQx9isIZ0y4BDAAAAIAr5qycscFMUxDMKIQzT0pB2OFeENheiHdKF4SoVTWJ9r2L+ao6u4c+1FHlSsIZe2Hc9pbRRclERuij2rVhiLr9tbM6ZTycsf160LfhjoQztXNB4N36vahN23PDmbnjsGvUBYFv5PO4WxMAAACAp61bObPf6GvMJIsbvmxX8Tq2FAQ1hDOPrCDsaFezuKFJUKIrarr2R+ruXouXsTqVCW2ecjhjgodU6QKK1vgpPX2IIpW0mzj9qKrfto9PhTPe851tNkRJlbnhTNE4dHbyOeZW2rLE6wAAAADA09CtnCGcuRJF4YzyUbyrb+NhSuJ0p0/NC/EyCHXCup9kP/o2b8W92m77djXhjKJvGR0LU7zAobTd9Xu98kVtrx5kW3K7CU0GoUjklCK7Sma4qkYHPPp1Zb/Vahf1Wm67xeGMkjkOrnUttxPOAAAAAHj6kndreiyEMwDm2K0bUbXhTCWarKARAAAAAM5T5G5Nj4twBkAJe60ZWyqSGQAAAABPHCtnADwp3YWAq1qsy66kDAAAAABniZUzAAAAAAAAJ8TKGQAAAAAAgBNi5QwAAAAAAMAJsXIGAAAAAADghFg5AwAAAAAAcEKsnAEAAAAAADghVs4cbCea6qa9te9NVYl6za19AQAAAABAPn/lzH4rNqtG3N3dmdKI1WZvNgZK6o64qHDGlHptNgEAAAAAAEzoV87sN6LpgpagrLa6jlVSd8Ilnda0a2od0JDOAAAAAACATM7Kma1YNSux2farX/bblQldVnKrq6TuuEsKZ7pVNIQzAAAAAAAg0+Q1Z7YrFbg0IueMpZK6FuEMAAAAAAC4ZpN3ayKcKUE4AwAAAAAAykysnNmKlTpVqdmI6bylpG7vIsOZm0o03LUJAAAAAABkGF05c+xVM8plhTPSrhG1c/emqiGkAQAAAAAAacmVM1tzm+ycmy+V1A1dXjizJpwBAAAAAADZIitn9mYVjApbppbBlNSNu7RwZl2b05rIZAAAAAAAQIZg5cxebBobtpiHkkrqpl1WOMMFgQEAAAAAQBln5YwNW5qCYCan7jjCGQAAAAAAcM26lTP7jb5uTLI4d2EqqTuFcAYAAAAAAFyzbuUM4cwSCGcAAAAAAECZ5N2aHstlhTNrUau7NBHOAAAAAACATJG7NT2uywlndmLdVO3tswlnAAAAAABALlbOHMycyqRCmbZwG20AAAAAAJCPlTMHc8KZqhLNmmQGAAAAAADkY+UMAAAAAADACbFyBgAAAAAA4IRYOQMAAAAAAHBCrJwBAAAAAAA4IVbOAAAAAAAAnBArZwAAAAAAAE7IXzmz34rNqhF3d3emNGK12ZuNvv12I1aNrSdLo+puRbx2GuEMAAAAAAC4Zv3Kmf1GNF0oE5TVVtfpbMUqVk+VQd1xhDMAAAAAAOCaOStntmLVrMRm26992W9XJnRZya0utcJmI5yqTrgT1h1HOAMAAAAAAK7Z5DVntisVuDQicXaTR9clnAEAAAAAAMg1ebem3HBGrbJRK2eanBTHQTgDAAAAAACu2cTKGXNtmWYTudDvXmzcCwLLkrp48BjCGQAAAAAAcM1GV86Mr5oZhjOqsHIGAAAAAAAgX3LlzNbcUjv35kvq1tr2bk8lN2winAEAAAAAANcssnJmb1bMqJCl8DQlc8emktUzhDMAAAAAAOCaBStn+lOVSla/dAhnAAAAAAAAijgrZ2ww08wKZvb7rViZ55dcdoZwBgAAAAAAXLNu5cx+o68xkyzuHZu2q3gdWbggMAAAAAAAQL5u5cxh4UwjmtVGlF6iRiGcAQAAAAAA1yx5t6bHQjgDAAAAAACuWeRuTY+LcAYAAAAAAFwzVs4AAAAAAACcECtnAAAAAAAAToiVMwAAAAAAACfEyhkAAAAAAIATYuUMAAAAAADACbFyBgAAAAAA4IRYOYMLthNNdSNubirR7MxDeHS7ppLH4EZU9do8gtNbi7qq5f+PGdsGAAAA4BhYOXOm3tXfF1/cyFK9Fp/MY0m71+KlquuVF+Kd2Zzyrrlt676sM17jROzEfta8fteISj63DQZIZ07EBmSqLDHhX4vaHNOulL451nX7vMfJihbo7+LsMZHHI/ax2Nk+Hy+g2cljUNn3RdXIHgEAAADXzV85s9+KzaoRd3d3pjRitdmbjWn7Tf+c1dY8mIlwJu744cyDuO/q3oo3jz472sk5ctWFJ6pUdTOYLB4Uzpxw5Yzqd3XEye3S8vobCRq6kh7jZVfOLB3O5LxHzGvOChHOL5xZ16ofE58JG2weo69m/LtCOAMAAADI78Z25cx+I5oulAnKWOISPC+s+rOf/Uz82V98J37nYSv+7dd/0P5X/aweVwhn4orCGccnsxrmvFfOuKspwuIHBIeFM6ejJ8BPJ5zJ6++8cOZ4TH8OCmec8Ci1A6b+4auvZvZ3SQX7cqzPnn6vyXYf/w0DAAAAnC1n5cxWrJqV2Gz7lTL77cqELiu5NWYvNo3evjGrZ9xwRgUwX//+W/H1w1vx4bu/Ep/++v+0/1U/q8fVdsKZuMcIZ07FTvrUX8z7lTJqJY2etLmTV8KZx1EUzpzNwVgmnJFvMr1KJLGCQ4/NEuHTqcfPhKLZK1VMfxde2dKOJ6tlAAAAAM/kNWe2KxW+NCJ2dpM9nUkFMu7/tt792Y/Fv/u9rfjLv/6/g6IeV9ufejhjQ5SXzUfxaf3COb3oVtzLx1ypwKV7vH4wj/iPfVq/FveV+TnSrmsynJF91NvdMhHk7B7k69t2VbkVL1W/zOYyZsIXDQKca2HYR9pwRk+Md03dnwZV1cPJcni6hFPi8+GdWLttytdRp94kJ427tWhqEyyZ+t5f/0de35bDVl/oU8Fi7Q7Dg4x9K+5vSbhgj7NTRp9XeCxaOf0x7UZWavVPGzu1KRFQmPdC3185VuoiuqMdHu9vMohMrnYpHLNkO2nHCEcJZwAAAIChybs1JcMZczpTYzbEwpnXmz8U//XP/5f48Fd/MyjqcbX9UsKZVFGhjTUrnEkUt13X4uFMtL4u93MmbBMTxHAyaMOZqoqFEsFkeiRsiE0u9YqISIlNHJ2LC/vF6UNx2FFi7FQwVfyxyNq34v4eL5wpOhadqf6oMCtozynu08qCkfzT8nzLhjOlY6brxwKoEUe49kzbD8IZAAAAwDOxcmYrVnd34q7ZCD+bMaczOY/Hwpl/9uu/I97+z/8t/t7f/4eDoh5X2y8qnKlei3ftjOOjeNOtdOmDj9nhzES7rpLTmqbrOhcNrmSdbjalVwm9mTNfMxPN5Fwv2G4nrKr0qwLUigH9+FTYMTXhVZPOvgU1mY/V7yfj/soEvXIh1gU9EZ46TaiA7a87qU3dVado37S8/kYCF1sOCVFm9FfLbFf2zV3Rou4UNGg3EULEAw35fqjlcfeWyaj+qrrz+1sUzhSPmXkPF4cic5+XIMe5HYOl2gMAAAAuxOjKmdSqGR3E+I/Hwplf/a3/LP5w953407/86aCox9X2iwlnVHhhHmt1K076OyHNCmcy2nUtGc7025e7m1NyAmoFE1FbfxjCmInuxCQv9XrpMCIygZ6xemDpcCa1H/rx2KqZzH0z8vprnh8ro8dhPJSY019tbLsN1CLtxsKZaH3Tfm6QEG3XNb4/yc9GJJwpH7OpsUxb4r1s960tsVMSAQAAgCuXXDmzNbfUdsOWVnA6kxULZ7Z/+mPxb/7jfxEffvI3g6IeV9svJ5wJLtzr3N7anv4zL5yZbte1ZDiT7MMhpiawwfbkhNVOpmeFM3YiPlLcdicn3UNLTGg9pg83tdOv6MqZwn0zisKZkoFojT1vXn+1jHZjz00cz8F7xdSLrs5SYx891W7sfTI+fvnhzJwxm3vs1MurNglnAAAAgGOKrJzZmxUzKmgJlsxINoSZKiq8UXdj+u0f/rH4rd/9Y/GjD3vxF/uftv9VP6vHL+FuTYQzhcYmvFI4QU1OWMcm347488smt+k+pC0ezoz12evYnIl7bn/nTvAzQhS3f2FJHuOxds222HMT4Yw80N4KKX3cI9dosfUSJT084+OXfJ9dQDhj7dbLX8MGAAAAuATByhl7a+zIihmjJJxRVADzJ++/E7/9u1vxr//9H7T/VT+rx5VLDWdipwTF6zrXdckIZ2LtupYMZ6ZeaxY7sY1OuM0E0pkIJiesmacapZ7fTjiTk/7ARKAUoye0hRdfHWP74K3WCO4WZRTtm5HX37kT/PHnzemvNtauDTCGoYLe11iI4j7H/O9Iv+zzq8a93ouUCn064+OQfq/qx933X/mYpfdn3Nznpc0/3gAAAMDlclbO2GCmSQYzY2KnNeW4xHBG3fq6u6W2+7gbhqiZye7BucCvLBPhTKpd15LhjLtKJ3ZB4LFbeo+xk1s1Se2aVLcmbifG/iS0n7A6UzmnbnoirKUmvPbx9gK/TtNxNjQKJ+TpCwJ37YcT+Jn0mNViLTs71d+yfdPy+nuccGZOf7XxdvsQxTTqvG9UiT3N9qVudPgXC+Rsu+57Uq0IqSffkxPjZ8Kd/tS1/gK/qsQ+FyVjpvtdGBjOuN7SlLYfhDMAAACAp1s5M7kiZnDHJt/VhzPREqw4ccMOp7ysTEgSC2eixW+3D1kSJRoQJUoQ+ozVT93Oe9LYaSHBpM1OQqMlY8LYTbYHVe0qiXgZ1LcT50FJTHYT9WOT/Rxj41BVKrQxFVuF+6Zk9bcgnEmOly5+uwX9LWk38T6r6rp9PLob3nPix3b0PSnL7P7a8Q2LWS01e8ws0xe/nXHpz898hDMAAADAULdyhnBmnniIcite1g/xlS3rF05Ac6tXn9g7MDnhjFolc1/Jdrq6un7bbjCrOWY4o9i+9PXS+5dNrWJwVgXoU3QiqzZMvcqdiMrJaux0npjxyaVemRCbwMfq69URYZ/T/VC3bPb6LUvJxNjXT9zDNnUJT98p2zdlur/HCmeUzP6WtquucWL3Sb1vVIplApjUe6ILPUYChF2jAx79urLfsjF7PZWD+iv7Zlfg9J8JPe6zx6xj9214qlecqb9wkEI4AwAAAAwl79b0WC7xtCacDx3OLHjtl5NwJtWD/ZDbutNszENAigmLhkHP0DFWzSj69KrcgAgAAAC4DpG7NT0uwhksQ4UUKrxwJp07u9rkqU8E+/1ogguM7Lp9fOoBFB5L1rVn7OldR0j89OurgCiyUg4AAAC4UqycORDhzLmwq0uGJWeVwHlL75stT38f8Xic0DL2trGB37FOPQqvBcQpTgAAAAArZw5FOHNG1KTSvSaMvcbIRTDXFwlCGnUx4OZi9hGPR31WUivKxrYto70+j30vE84AAAAA8rsxK2cAAAAAAABOhpUzAAAAAAAAJ8TKGQAAAAAAgBNi5QwAAAAAAMAJsXIGOJJd8yA/YF+Lqt6bRwAAAAAAGGLlDFBot34rqurrNnixpR7c2uazaLo6bxe4881e1M7rtaU09JH9jvf1GBboLwAAAABcCX/lzH4rNqtG3N3dmdKI1SY2odqKVVcnKM1GTsvyEc5clk/r1+K+uhVf1A/mkctiV8OEJRZ4LLtyZulwxoZHD6JJ3sfYvGb1fsatjglnAAAAACBXv3JmvxFNLGxRZbXVdTqEM4j5KN5U3xdf3MhykeGME2isP5vHTsEEHweunOnCoyaxL6Z+cnu2mf0FAAAAgCvhrJzZilWzEpttP4Hab1cmdFnJrS4dzjTRVTVlCGcuyaWHM+cSMiwTzojde1GpdhIrY9a13Da6siYX4QwAAAAAjJm85sx2pcKZRvg5DOHMk7V+ocOT6rX4JD6Kd/Wt/lmWl7V6LCTrNC/ES1PH1nvnTNg/NX0bqfKy+WhqC/ma5vG2D73ucTfYKeivfb56rU/yeX2fb8W98/rz5YQMpo5bRut/FuvmrQ5J2vLQngY1nofk9MO0G1wbR5X+FKyxU5vMa4TBzW4vGnl8+v5+LV/jrViPdni8v3YFz+DUsOTKnfIxW9eVrFcNXwMAAAAAzsDk3ZoIZy6MDTtuXoh7G4a4xVvx4qyEGZQX4p2p9SjhTEZ/u+cnyv2cibldXTJWvACjLJzRq1MiZfQ6L1PhzOd0u7K4AUVZMOJe5DgsYxc9XjacKR+ztXz9G1lHlqoZDXEAAAAA4BQmVs6Ya8sMriNjHndLoy4evA3qTSOceWRd2GEDCx2a9AFLLHS5FW9MPbF7EPf2+V6Qo+Sd1jQvnNFlrL9eOCPb1qt7xvqboTiccU2EKCZ8UNv756tgJRFWdDLblf1yV7Sou0wN2rX7F7QVP6Xps2jqt8H1dvogaG5/i8KZmWPWr5yJHykAAAAAOKXRlTPxVTNKJJyxhQsCnzcn7HBXs/SP34o37fy1D1q8elIXjAThyrHDmfH+uuFMH9go0XZnmVqxEhqvr0ON2IqTqdcZ225Xt0TajYUz0fqm/dHVO45ou67x/SkJZ+aPGQAAAACcr+TKma25pfbgRk0J+/2mC2xKTncinHlkkVAjzllxkix+CHLccGaqv4XtzlIaAOSEKCNl1ooc027suYkQZRCOREKRzk6+dqXrh+X44cwhYwYAAAAA5yuycmZvVsyoYCY/ZGmZuzsRzpwxwpkDPIVwxmwrCGfCU5t0WBK5SPDEKV6EMwAAAAAwT7ByZi82jQ1mzEMF9hu92oZw5oxlhx3p05rSDglnEteGudhwRu6aOkVnVpgw1q4NMIan/qSvDeM+x/zvSL/s86smuDNSKvTpzAtn7HVkBqc1EcAAAAAAuDDOyhkbzDQzgpm92G9XornTzy+5iRPhzCMrCDvcCwLbC/FO6YIQtaom0b53MV9VZ/fQhzqqXEk4Y0OJ9jbQRWlDRujjhhrq9tfOipNYiNIFJI1eHRM7pakPd/ptu/V7UZu254YzNty5qW3o0l/gVxW3L3PHbNeoCwLfyOdxtyYAAAAA56dbOWNXvSSLe6Ffc/rSsJQHO4Qzj6wg7GhXs7ihSVCiK2q69kfq7l6Ll7E6lQltnnI4Y4OGRPFDj/HTdLywo6TdxOlHVf22fTwaonjPiZzSJNlgJFVm99eOa1jMtW1mj1lnJ59jbqUtSzpEAgAAAIDT6FbOHBbONKJZbUTpJWoUwplHVhTOKB/Fu/o2HqYkTnf61LwQL4NQJ6z7Sfajb/NW3Kvttm9XE84oepVILEyZH3ZI6/eisiFG9SDbkttNABMPJ5zQY+S0oV2jAx79urLfagWLeq2w3dL+yr7ZFTiq3bo9dUqP9+wxc61ruZ1wBgAAAMB5St6t6bEQzgA4tt26EVUbzlTRVUEAAAAAcEqRuzU9LsIZAMdirzVjS0UyAwAAAOAMsXIGwMXqLgRc1WJddtVlAAAAAHg0rJwBAAAAAAA4IVbOAAAAAAAAnBArZwAAAAAAAE6IlTMAAAAAAAAnxMoZAAAAAACAE2LlDAAAAAAAwAmxcuZgO9FUN+3tem+qStRrbtcLAAAAAADy+Stn9luxWTXi7u7OlEasNnuzMW6/3YhV4z5nJbZmW46LCmdMqddmEwAAAAAAwIR+5cx+I5ouYAnKKha37MWmidS9unCmt2tqHdCQzgAAAAAAgEzOypmtWDUrsdn2K2X221UycNmudBjTrDZiux9fXTPmksKZbhUN4QwAAAAAAMg0ec0ZHcI0wju7ya6yia6oKUM4AwAAAAAArtnk3Zpi4cx+o64xEwQ2MxHOAAAAAACAazaxcmYrVmqFTLMRbg6jAxt1CtRKNO51Z4LTonJcZDhzU4mGuzYBAAAAAIAMoytnoqc0JS8E3JeSs50uK5yRdo2onbs3VQ0hDQAAAAAASEuunNmaW2oPg5Y+nGnkxv5awHuxbU93ktsK0pnLC2fWhDMAAAAAACBbZOXM3qyYUcFM7BQlE84EpzppY9viLi2cWdfmtCYyGQAAAAAAkCFYOdOvihlb/BI/3Um59nCGCwIDAAAAAIAyzsoZG8w009eM2a706UteCKNW3OjTmpqC2zgRzgAAAAAAgGvWrZzRt8fWq2aiJQhi7AqbYb2VKLgeMOEMAAAAAAC4at3KmbJwRulXyujS6AsEm625CGcAAAAAAMA1S96t6bFcVjizFrW6SxPhDAAAAAAAyBS5W9PjupxwZifWTdXePptwBgAAAAAA5GLlzMHMqUwqlGkLt9EGAAAAAAD5WDlzMCecqSrRrElmAAAAAABAPlbOAAAAAAAAnFC7cmb/J5+OUnIQzgAAAAAAgGvWrpyJBStLlByEMwAAAAAA4JqxcgYAAAAAAOCEWDkDAAAAAABwQqycAQAAAAAAOCF/5czDD8Vv/NN/LO7u7kz5x+Jf/Op/9wKX/Z/8d/Eb/6/dnij/72+I/ybr5iCcAQAAAAAA16xfOfPwG+Ifx4IWVf7pDwlnAAAAAAAAjsBZOfND8S/+338pfuO3+pUy/+23/qUJXP6l+KF5bLSY+v/YrLbJQTgDAAAAAACu2eQ1Z374T1U484/FbzzEt/fFrqjpg5wchDMAAAAAAOCaTd6tKTucCVbNqJKDcAYAAAAAAFyziZUzPxT/wrmGTLyOKsNVM6rkIJwBAAAAAADXbHTlzCGrZlTJQTgDAAAAAACuWXLlzA/NLbX/xW8Nt/klvmpGlRyEMwAAAAAA4JpFVs78d7NiRgUz/kqYaLF3dPJut61LDsIZAAAAAABwzYKVM3YVTM6KGVVs/fipTzkIZwAAAAAAwDVzVs70QUteMCPLyKoZVXIQzgAAAAAAgGvWrZz5b7+qrzGTLIM7No2vmlElB+EMAAAAAAC4Zt3KmeJwZmLVjCo5CGcAAAAAAMA1S96taYmSg3AGAAAAAABcs8jdmpYrOQhnAAAAAADANWPlDAAAAAAAwAmxcgYAAAAAAOCE2pUzNzc3Ryk5CGcAAAAAAMA1a1fOxIKVJUoOwhkAAAAAAHDN2pUzp0Q4AwAAAAAArlm7cuaUCGcAAAAAAMA1Y+UMAAAAAADACZ3hypmdaCpz3ZqqEvV6Zx4HAAAAAAC4PP7Kmf1WbFaNuLu7M6URq83ebAyYuk1XV5ZmJTbbRP2E0XDGlHptNgEAAAAAAFyYfuXMfuMHLW5ZbXWdzlasYvVMGVQfMXZa066pdUBDOgMAAAAAAC6Us3JmK1bBypf9dmUCl5Xc2ttv9OqaZrMV7jqZrn5BOjMWznSraAhnAAAAAADAhZq85sx2pcKZRrhnN9lwZpjBmBU1hDMAAAAAAOD/394dHDcKQwEY3rpcUGpwGSqDCnykCm7pQE1olyAwJgKb3WyUge+b4WLI5P7P0xMveXpbUynO3I9A9TtphumZGPvJm8K3T4gzAAAAwJk9mZzJkzChfTi+9CG2OcbMntCknfuAX4szvy4puLUJAAAAOKDNyZni1MwkLm52yt/+821NC+8hvc1ub7oEkQYAAAA4jtXJmS6Hl/L6mPttTcNS4Dh9v/43Zc/jzE2cAQAAAA6rMDnTh5YxspSnYMb3YTFSM93WVDoGteJZnLm95WNNmgwAAABwQIvJmZjavEdmffpl/KZ03GmcqHm8envLdpyxEBgAAAA4ttnkzD26PDuWdJ+cGW5qGn395Iw4AwAAABzbNDkT2+Vy38UzDy5jhFl5vm7njDgDAAAAHNs0ObMrzvRil5rw+Dfhf12lLc4AAAAAB7V6W9N32Y4zt/TW39IkzgAAAAAHVbit6Xut///3dAuXj+uzxRkAAADgqH7g5Ew+ytRHmY/HNdoAAADAcf3AyZlZnLlcUrgpMwAAAMBx/fCdMwAAAADH9oN3zgAAAAAcnzgDAAAAUJE4AwAAAFCROAMAAABQkTgDAAAAUNFjnIldapuQrtdrfkJq2phfLsXCt92fX/cRZwAAAIAzu8eZ2KYwhZbF03TDN5MuNaXv+ufTt9vEGQAAAODMZpMzXWpCk9ruPvsSuyZHl+bP27uuGUJMmE/K9FM3of89pNVhmwJxBgAAADizpztnhhAzDy55aia0n48w5embsKPOiDMAAADAmf19nCkeX9p6VybOAAAAAGf2JM6UpmRiPr50Tc3sCNTDMuHSVM0KcQYAAAA4s80483lqJpt20aw84gwAAADAS1bjTJenYNZOKPXLgkOeoBmCTL9MuHWsCQAAAGCHQpyJeWJmcWzpFRYCAwAAAOyyiDPzfTL5px1Wj0FtEGcAAACAM5vFmTHMhJ1hJqYYu9SMR5x2Vh1xBgAAADizKc7ENt+0tPbMl/zm40ub37xInAEAAADO7AviTEghNKmLe7PMQJwBAAAAzqywEPh7iTMAAADAmYkzAAAAABWJMwAAAAAViTMAAAAAFYkzAAAAABWJMwAAAAAViTMAAAAAFYkzAAAAABWJMwAAAAAViTMAAAAAFYkzAAAAABWJMwAAAAAViTMAAAAAFYkzAAAAABWJMwAAAAAViTMAAAAA1aT0Gyq422mJYwZ3AAAAAElFTkSuQmCC;" vertex="1" parent="1g2Fbw7G-Om38af6y5-P-1">
          <mxGeometry x="390" y="450" width="365.7" height="220" as="geometry" />
        </mxCell>
      </root>
    </mxGraphModel>
  </diagram>
  <diagram name="Copy of exception" id="ONMmyrVKAejeUagbYcQW">
    <mxGraphModel dx="881" dy="399" grid="1" gridSize="10" guides="1" tooltips="1" connect="1" arrows="1" fold="1" page="1" pageScale="1" pageWidth="850" pageHeight="1100" math="0" shadow="0">
      <root>
        <mxCell id="Z4MrF43F7MTzpPwPq6Oa-0" />
        <mxCell id="Z4MrF43F7MTzpPwPq6Oa-1" parent="Z4MrF43F7MTzpPwPq6Oa-0" />
        <mxCell id="Z4MrF43F7MTzpPwPq6Oa-2" value="Exception package will have a class&amp;nbsp;ResourceNotFoundException that extends from RuntimeException" style="rounded=0;whiteSpace=wrap;html=1;" vertex="1" parent="Z4MrF43F7MTzpPwPq6Oa-1">
          <mxGeometry x="410" y="340" width="230" height="110" as="geometry" />
        </mxCell>
        <mxCell id="Z4MrF43F7MTzpPwPq6Oa-3" value="" style="shape=image;verticalLabelPosition=bottom;labelBackgroundColor=default;verticalAlign=top;aspect=fixed;imageAspect=0;image=data:image/png,iVBORw0KGgoAAAANSUhEUgAABGcAAAKmCAYAAADgs/NDAAAAAXNSR0IArs4c6QAAAARnQU1BAACxjwv8YQUAAAAJcEhZcwAAEnQAABJ0Ad5mH3gAAMowSURBVHhe7P1BjyQ5Yt9/1/MCnvPzHv5nQYDjsK/Ce/BBB6HhOOhchzJ8GMDoAfQHDDj60BfDHhsQ2kioBLUBWem1ZKSn5dHKKkvQ2MrutZWS1S1se6zsFQyt3IZOy4cMkhEkg4wgIyMrszK/H4iarQwmk8HIrE7+ihFx87d/+7filE79+gAAAAAAAKdEOAMAAAAAAHBChDMAAAAAAAAnRDgDFNg1lbi5uRFVvTaP4CnguOHc8J4EAACAi3Am4lNzK764+b74onotPpnHADmdEk11006obm5qca5TKjvpu4Y5325di6o7JroM9/tpHDdcE96TAAAA8B0YzuzFdtWI5u5O3DUb+VM5whk8JU/hr93nFM6ovlRHmnza/QxLbL9PfdyOOQ44D6XH+NTvSQAAAJyXeeHMXocydyqUsYVwBjgLdtJ3DnO+dX2slQF25UElmvXOPHa+jjcOOBccYwAAABxiVjizXdlQphGb7UasCGeAs3Ed4cxa1HIfb57IqgMm7pePYwwAAIBDzFs5s92IZrU1Ycx20XDmXf39Nhh52XwUn9YvxEsVkrTlVtzLx0Kf1q/FfWXCFFNeVi/Em9Qf03cPQf1b8bJ+8EKYaDize933JQhtivogX/9N7dd1y733zf6jeNe4YyDbrV+Ld0ssFNitRVO7p4VUom6iHZaTDrVc39a7EVUlJyBu1V3TblfzZFW3rVc18pm77jUOW7ov+9DUfh/qxu+DpEOJSqjd2Ln1ZX+Hu6Yn91W7oe+nbduvboIAtyT2p+9D0OdoHxQ9vl7bXdH7UqpsHJSMY9zJqLuuu22posf9EDnhTP5xK3s/KBnvyWOPg/kMTx23kvdD+XunRDhmsu/yePjN9tdiGRwq83tG/24JlPw+m+yDeqnMcSg+xiXvSSXvs1n+e0fTv3vkWI11AQAAAI9igQsCHyecSRUV2nTcwGRQbofhyPpFpJ4ubigyDGcexL2tW70Q79rHjKI+OO0kSt+Pj+JNFa/zxU3Qh1J2kjMoejLS6ydKo3VNe1UVTI6CydLYJGGM/ot0pAQzCjtBCS8Qq0v4+mYyLifUg8mSKl7b+RMq3Qc1FkH9tshJlamnjY2vKvPGrB8Hd/xTbWYe41Zm3WOFEsn3rVO8ifuMcCbr/aB2MVInrHfUcGbsWPjvs5LPRdlnqExyzAZhiz1u7n7Y/Y30Ifv3WX4fssfhqOFM/mez7PeO5fQlFngBAADgUZ13OFPZVSJuUOEEE7vX4r5dSRIPbLwgJwxYum+ieoXOG+fbqx/OJF7bKuhD165qx7y+em39mB/k9HXl42vThlr1Y9r9on7QjxXrv/D7fzHWf3GNfeFXX9z7v9Tqv+S2j9tJhTM5aicizoRFVbHtJOcgo8wEIli9sFvLSXTjN9j1V5Z+39R+mYlLcpIkJzp2B3exiaHL9ie+NdkHMyn0nmbHyZ0YTb7+tJJxyD7GUkldS+/3/H3xFIczrvHjVvZ+sG1NvyetRcehJT/Htfy89gdCir/PZr0fMuoWse/1rk2lf+8MDotTX7H9GtSTbeT+Pivpw5xxKD/G4+/Jks9bsr+x3zsO3ZZaOTPcHwAAADyu8w1nwhUqiRBjyAlTnADDCzsmvoe64cybLiyafl4v3gf3lK1eH7jEVs34df2+zboejp3gpr6td+ykJzbZCLbZNu3EOAwdzM+TLxllJ8fOhDnBTlCGEyfThjdxj026tfFJVuaEKtxuxiA2EQ6r6sf9v4yXyB+HgmNcVLe3fChhjR+Hoan6Je8HW3f6PWkdbxwCkc9ayeeipG6J9P6nj4t+jtyXZuR3Vvbvs7I+zBmH8mOc3vexz1Rsm+3voK3I7x0AAACcpzMOZ4LwwVmN4p2CZK4hEz21KBKM5IQafZDTlzAkceX2oQ9WplbOOCtkkiWyiidHdlAyNnGwExETIJgJUjcBCCcE2a+ZIJ/fTsDaoq4lEVzbw7ATlOHrmMlMLJwp7tT485J9iE2SzGPeCowFV85Mj0PBMS6q2yufsOYqPX5T9Qvby3xPWkcZB/VeiZ665h/7ks9F2Wcolw0TRkq0Xfd5ibHL/t1S1oc541B+jMfec+Pvx/DzVvR7BwAAAGfpaYczI9eQacuh4Uz1QtyPndKkFPRhNHTx+nW8cCY96QgVTA6OHc60dvq0EWeCpZbvu8omVIWT8c7488omSSMTxuJ+9fLHoWQCWDZZtMonrLlKj99U/dL2lOn3pLX4ONgVI4nidqPkc1H2Gco18j63JdquOSZtiY9dur+hsj7MGYfyYzz2nht/P4aft2R/CWcAAACejCcTzvSrWewKE+fUIVnXvYbMkqc1ffKuVRMGO2V96IIcb5XN8G5RY6c1HSz7y7qdGMUmG3aiY7Y9Sjjjsq/vhwHJCUr01Ic5k3Fl/HlFkyT7WHgh5cljMy5/HAqOcVHdXiq0OVzp8ZuqX9peKP6etJYeB92eej+510+RIp+1ks9F2WcoX9vfwmCnG7O1ee3Y82Ofq4SSPswZh/JjPPaeK/u8Ff3eAQAAwFl6EuGMulV1F2Z0j7sBSP/Yuy6EUY87wYiz8iZ2QWD3Nt1+OCO5q2O8lTAlfSgLXNww6d5eEHgR9kt/OLEbXkDTTgDV5MGrF16Q0kxYysMZOckwbaVWHKi261qdMuJ0TIpNRvrHnLrtqR96P/yXmDsZH39eySRJj6+cYMl9C3ZvxPSYpcZBT+j8vmUfY6mkrmX7MggRojLeD53S4zdVv6C9gvektfQ42GPhHmN3FY/7tNT74dC6vfz3pNqe817vx0tXDn/umePWbgvel4kLnOf0Yc449H3MOcbK+Huu5PPW99c8YE2EM/2YlAVnAAAAWN68cGa7EncqkEmVgqAmGc5Ei7/qZbyuLF6Q4gYew+IGJoNwRnJfy73mTUkfRut6gZGirmMTqWfKQStqzBf2YQn/6ttPfAalcv6iOzecsX+FbkvsL8SSVycs/nPsRCNahrOW/Ml4crx0cSc+JZOksf5Wany9Y2FkjNmscYgV9xi3SuoaibGLThZz3g+djONXcNyy2rMK3pOdhcdh9BjL4u5Gyfuh7L1jZB23XRcOxorXtG3PW+XSP3/QjeRxDn+f5fdh1jjkHOM578lYCT5vtr+psYm+z4LxSO0WAAAAHscTCWdip/4oH2V9N3C5FfeNrGfDlSCcUdQqHHXx3rG2Y+GMt0rGC4kK+uCu3omW8Doyuu3Ycw493Un/ld2dgCROp1ErLuxfak299i/PZnPLTKa6CUA4ITA/D7/8T//FXdnJ51fepCrSByk6oZL7qG5vPNyzgsl4wYSqbJLUT778/bMlNtHNGDNzzLw223EYjkIr5xhbJXWN4fELx8HKez9oJwxnpNz3pGvpcdg1/kWJ29c3pwC5Tyv5XJR9hqzc46ZXffR97kv/NPuZiJwe1IVAw89F9u+zrD6ol5ozDqofE8e46D0pZX7eyn7vOJz+jB46AAAAHN0CpzUdJhnOeMHIJeivXTM4TWn9ogtg3FU5KJOcoJwlOaFtJ3FyojmYN6nJLhMmLKPkc/G0PkPHcy3jYMO8aBgGAACAR0U481jcu015q17ca9RMX6wYaU9rQmVXCKjrYvgHfbcbWT0AFCKcKXfp42D3z5bkyhoAAAA8GsKZRzN9e2x1ehXme1oTKrtyJl2YMGEJhDPlriWc0de24vcMAADAOSCceUy7B/Emcg2Zl9UL8WbROzJdp6c3oTLXvwivUSEnTE30asBAOcKZcowDAAAAHtvZhTMAAAAAAADXhHAGAAAAAADghAhnAAAAAAAATohwBgAAAAAA4IQIZwAAAAAAAE6IcAYAAAAAAOCE5ocz+63YrBpxd3dnSiNWm73ZmI9wBgAAAAAAXLN54cx+I5oulAnKamsq5SGcAQAAAAAA12zmypmtWDUrsdn2K2X225UJaFZyaz7CGQAAAAAAcM0WvebMdqXCmUaUnN1EOAMAAAAAAK4Z4QwAAAAAAMAJLRjObMVKndbUbETJZYEJZwAAAAAAwDVbLJyZs2pGIZwBAAAAAADXbJFwZmtuqV14o6YW4QwAAAAAALhmB4Yze7NiRgUzhUtmDMIZAAAAAABwzQ4IZ/Zi09hgxjw0A+EMAAAAAAC4ZjPDGRvMNAcFMwrhDAAAAAAAuGazwpn9Rl9jJlkK7thEOAMAAAAAAK4Z4QwAAAAAAMAJHXhB4MMRzgAAAAAAgGtGOAMAAAAAAHBChDMAAAAAAAAnRDgDAAAAAABwQoQzAAAAAAAAJ3Rzc/cj8z9Pww1n/tdPf0ahzCrqfUyhUCiHlv/f//f/05bY7xkKhUKhUCgUCuVYhXCGchElnGBRKBTKnEI4Q6FQKBQKhUI5RTmr05piHaRQckpskkWhUCilhXCGQqFQKBQKhXKKwsoZykWUcIJFoVCefqk2+t+H3fZjdPsxCuEMZanyn37578gvWTfi537xN6PbKY9XOBYUCoVCeQrlalbO/N4vfl98cSPLz/+6+FFku1f+6NfFC1XXKy/E78XqOuX3fvm2rfviFzNe41Rl5r6de4lNsiiUsy2rn7a/89aryDaKKf9DNPt2mKSfijpaZ/lCODNdun9Pf/H3o9spquzEP/r5mzYQuLmpxb+K1qE8TjmfY/Gffq0WP2f78vP/RPynSB0KhUKhXG+ZvXJmv92IVXMn7u5MaRqx2mxF91060+WEM78vfqWreyt+849idc6gXHI4Yya8vr9t/+peOZMvypziTJQHqxjMtv1PDhpntUpiNzkJ/yjWuhcRfyuaJvacMyzRcGZs3y4jyMk7xn1h5czPxI9+7dfFr/z87VkFIY8azsjJrJ5Uu+XvtCsgHntiq1Zf/FzB5P50qzV+U/zCYMz68gu/FnvO0ypP51g4JXwvE85QKBQKJSgzV85sxcqGMmFZbU2dPGcZzjjlR2Y1zMWsnHFKyb6de2knVtFwxjgwOKC4qxjCEGSZcKZuf3UQzqRcQjiTd4xPW84rnPmx+M2fN/92Ec4MyyNPbv/VL6rXfQqrYC4/nHk6x6Ivus9y/H95F91OoVAoFMrMlTNbsVltxNZdJrPfiKYNaFZya75LCmeeWrnUcMadxFarn4hd++gTmrifZbEBzE/FWv53t/kfkW2PGM484kqKo5SxcOap79tIIZwpLYQzNpxxA4X/9Gv/RPxcGzT8HfGPHnGV6pMLZy74+ipPNpxhtQyFQqFQRsqi15zZrg4PZ+yXvhe//GPxo1974ZyCcyt+RT7mdj4VuMS+OLqP6WXi5udIu26ZDDBkH/V2t0yEHX/0+3qZelf/VrxQ/YrVLSmF7eaEM92S+q5NeWx+/kXitK0fy3GWr+nU/ULW/b0/io1vSd3p0k6sohPe/tSI4cqD/yHqzU9NeKOMnQIV1lWnWvxE1NHAR9bdqtM3eru9nJAGdZP9MvvhByB64q4f+x+ike1bqh/RPjcfvXpq/9Zem7bkjEMfwNRtv90JdiqcyRgHs69jYuOQH2Asfyx0XRX2BeMm240HgKaeGqPAvHDGjLc06G/zE92fWFC26PvBHQf1v0fGYe4xdo2OSckxnj5u88IZ+fvsl91/r/QKyt9zf0+6p5QGoUb/u1ifEtv/nC7q30i3jaw+yFLyb6wukd/VtgT7sfTv9bZEwhlV7GkqXmgTeawtpo2fc1Ys6Loq3NmJf/XLtQl71OS59gOfsZU7prjtRletxEKSP9IBk+rrv/pF3W89cd+Jf2R+Hp6CE/Q1eXpXbjjTX4tlMGamf9Ew4Y9+s+uj7Ud8NUhef/tjof73CY5FV2R/5X71/ZXtyT78q+AzlP3eCQrhDIVCoVCmymJ3a9pvV+3KmWYTmYGMSIUzqeJ+IZ0VziTK8IuuLouHM9H6uvxK+OWopMxod3LfotensSW8ro57zZ2whO2X1M0r7cSqMJzRf8WPiExsk3UHk8Z+4jzkr94pCQS6cGb7k+HEVQn7YSfpA8MVRHnj4AQwpu2+f7FwJnMcjhrOHOdY2LqxsGW4KkQFB2ZThP96JftmA4xISBY5xsu/H/qwIz4OCxxjV3JMyo/x1HErD2ec1S0Tv8/c0KX7vez8nrX/DpWHM/l9mPq30P/3Yux3tSxeOLP87/W2HDWcUZPvfiLeF2dFxpHDmZ/7ed0PXf6O+IUg9HAn+/a0mEEZTPhLVs7Y/rqrUGxoE1mZZEObQRnWze2vDTvix8Jp96jhjHvR4LD4+5b93gkK4QyFQqFQpsoBK2f2YuNeEFiWVWEwo4yGMz9v/+rnfvHsv+TNDmcm2nXLZIDhlOm6zpfX9q+J9nH9F8zfDL9QZpd57eaEM7/S/uXVmQREJhJt6cKhW+/L/Y/a1TyyDVuvtG5maSdgkXCmko/pSWkwabYTRjnpcwMF9Rd4JT5pDianq5+I9cafNNoJoJrI9n+579t1J5klgYA/YZWTzpXZ1oxN0mUb4f5tEqsaJsfBtGkm6O0Evpus+9tU/ZJxsEWHAmG4EZbIxN1yXl+VYx2Lrl2pH1/Vrn7Ma8OOr9cH2YZ5PPo+i4qMi3Ps1M/JfbDHR1ru/TAyDuZx//2rS94xdov97A3fL6rMOcbK2HErDWf636O38net+Z2ofpeZ35Ph6pL+3yL9ezf271Vf8k5rKulD/N/Cqbrqd3X/+z7a5yP8Xm9LJJxp73gTmQjPCWfax7vVHGrlhH5s0IYselt68j0sIyGJE3K0/XKCB/Xag32x27u+qqJXenj12hIJJboS6b/Ttvo5OY5OgOGvgNErSLxwpqC/yWNhHvcDF10WPRaydH34+X/irJTp++s+b857Rx3v9vUJZygUCoUyUg5YOTMMZ1RZbOWMChnczjpf/OyKjb5uQTiT0a5blgxnvC/QkdeaW+a2W7JvfUlMFrpxlKX7wp8oJXUzSzsBsxPLgb8dTFjTk8TYZNBOmp1QJFrsJDjW7nBbcjJt9iMezgzbHuyLXSWRmNC6JX8cggDGCxfCcKZsHGzJm7jbcYjoXl+Vsj6UHItukh+O76DuSB+88bNlZN8S49IFC5uRY36U90M/DsMQxtT1jocuecfYLcPX7cu8Yzx13MrCmf73Ybj6svv9Gvz75IfpU7+Dc8KZsj50/xYGrzn8d7PvZ9hu7N/YY/xeb4sTWvjl7wwmwclQwbQRDWfCyXqkri1HCWfsZN3uZ/Cz3Zf0a8deozCckaULFn7Z9Gusz7FtQSnprz0WwzE3dSOBxqLH4qc2dIq1N9xW8t5xg5yp054oFAqFQlnsmjPq1tr6gsB3ouSGTelwJvhC66zYsH+VS9WNfXEsadctJQHGVN1kHw4sc9vN2Tf9V8+c6w04kwinxK55UFY3r7iTLF/sOiB24jYinFjKtvvTQtS1OvyVELqMTSR/ZCam/akWs8KZjAl2fOIfKyXjYOqGP7f9CbeVjYP/+NTEPXccjncs8uuG4zKsGw1nco5xV9xjmBi7o7wfRsZhZL+XDWeOc4zLwhknaEmWyO9XN8iQJfZvjy454UxZH7L/3Rz5t3FQty3L/15viw0tvBKf5M4JZ3Lq2nKMcKZ7nfB1zc+6f2On3JjiBRhjQUSquK+R2EevT2OlrL/JY2HbOXo4Mz5e+rX6U5vmvM/0PhPOUCgUCmW8LHbNmZa5Y1PJ6hnCmcPL3HYn9y2YQAzKYLKgTqNyL7Zsi7/MvbzudHEnWXby1d+pKZwMlk1C3ee1pzI5z1WnR/TbjxcIlEzc05PmsJSMQ2TC3fZT7U+4rWwc/McvKZwxfYi9l4L3qlc/4xj3xTynFR+747wfxtqNvFdMyTvGbhkbk+Mc41OEM+HKlL48pXBGlWV/r7clCAT6OzUNJ+aEM6btWeGMeU5b4vuYDlHCQjjjPS5L974tOiYUCoVCubay6N2ajhnO9EHC1GlNzhfVjHAm1q5blgxnpl5rbpnb7nh/nUmBHLP+L585kwVV5Jf0X3YmIIvVjRd3kuVOvuyEzA86fqQnbrFJc3axE1k3ZLAT5djk09bvt6Umi/Z6GXPDmVigkCr54xCbcOs+7TYfg21l42BLOJmOl9xxON6xyJ3kT+9r2EbBMTalGzMbRMaO5VHeDyPjMHIaVd4xdsvYmCxzjA8LZ/rfh+mAJShu6PGL9vde6nd3zu/bsj6k/i0cBC7JcOYY/waMFC+k0MVOjsNJcGrSbK8b4tafM8EOJ+nTZalwxrx2JKSIl/Jwpts3GyLEXmtkbMJS0t/ksRg5jWrRY2G3RcMeGzT12+a8d1QpO4YUCoVCucay3N2a9luxaq9B04iSy87khDPqL3H2S6L3uBsuqH+g/+j3+y+NqjhfBkvadctU4OKWybrOl93YhXvHbuk9Wma2mx3O/KIdG3WrVvsc9Xg/vupLeHvbbveLktuvmXVzizvJik54gwmhnai1FwadmijKyea6vW22P7mNTfbspFtNJvsJ7v+Qj5v3uTvJNP3tLzTs1JP8yXTJxN3us2oj6EdwAdj8cYiFM/b55o49zraicTCl64vX57Dkj8OxjkXsuLttuHVtH7rH1O2snd+P0fdqxr6p0o+Xbjv8uS/HeD+44+C8nrpAtdm/wfjI0vdx7Bi7ZXxMSo5x39/++W05KJxxf4/6F82Nl2GwkQpLbOm223/nInVK+pB6ve7x7vev09eurvOYV/c4v9fbEoQUutjJdDA5N3VvftFOgJ0LugaT5jkTbPucn/tl9yK3Y2W5cKZ7bdnWf0q8D/pSFs70+6VfO/y5L3bc1bbgQr/BBYFL+mvr/sKvOa/3R/K1zOqbwTGSpe/jAsdCFh326O3efo1cEJhwhkKhUChLl3krZ7Yr7yLAbjnurbSDvy66X/yc8sJeZNH5MljSbv9FN1HcgKeg7lT97L+8RkpuuyX9HR8zWbwv5mPtloxv2eofW9xJVmry5U/w7F/W47w2krchVsK/2vcT4YF9Zt29ncC6k+zxSeqg2H0eCFct5I5DPJzxxsbbVjIOpiT6PH8cjnMscif5bUm8d3ZbfQ0jv42R/krR96Q35v2xTPVtaO77oR+HqNTxyTnGyb5q0fdDTHCMjxXOtKs13cAiKO7v3/53qhOITwUYidNL/X8vZvRhMpxJ/66O/Rt7jN/rbQlCivBxf7LdhwdeMberdifNsybY9jWD4tVN1LGlq1sYzvQrOOLF34/EOJji1bWrU7zQoH+t5LgPSriKJb+/9lhESyJMWfRYtGVkzH7eX1FDOEOhUCiUY5V5K2cG4UwjmtVGbEe+1KfkhTO3+i9yQedVUStD+oDmVq8SsV9m3S+O7Xnw4YVtTbvBl8aSAKOkbte+6UtfL71/JSWn3bL+/lgeD7+9X/ll2Z5twxlfvapGHgtvgqBeP35B4Py6ecWdZA0mX92EczgRVX9hj02ewzbaW3J772/5PDkBjf71X62OcFZdjNd1r2GjLjSs6ukJZ3QSmhvOyKKvj+P3Y+21aUvOOCTCGVm61QuD4KZgHEwZjvOB43CEY1EUzrSP/6TfJ3k82pUmJlzx2xgJGqS+rq0XOT2oC4OGAdiy74d+HDxq/yZWxUweYzOOKYPxzTzGxwtnVNG/K6N/LLDBiBOy+MGK/3s5dm2WdlVKEL6EbWT1QZaScEaV9rW7tszKnMi/scf4vd6WQUhhi538B6HAH/2TbsWF2vYL7coKPfF2J81zJ9jtbbyD0GFWIFAczqiiV3K0YUpQ/Hq54YytFzk9yIY2kVN91PVTfsEEXrqocY6NV15/o+GMbF8fO7c9vyx2LGz5o98U/8hZaaX2y79luC6EMxQKhUI5Vln2mjMz5JzWRKFMFW+yRaFQjl6SYccTL/PCGQqFMrckw44LK/rUqZKLGFMoFArl2sqyd2uagXCGskQJJ1gUCuW4hXCGQqEsUa4rnFEra3Kvk0OhUCiUayusnKFcRIlNsigUyvEK4QyFQlmiXEs4058qZgqnOFEoFAolKKycoVxECSdYFArluIVwhkKhLFGuJpyRRV2vp7tODuEMhUKhUIJyditnKJQ5JTbJolAolNJCOEOhUCgUCoVCOUU5q5UzAAAAAAAA1+asVs4AAAAAAABcG1bOAAAAAAAAnBArZwAAAAAAAE6IlTMAAAAAAAAntMjKmf2mEXd3d21Zbc2DmQhnAAAAAADANTt85cx+IxoTzBDOAAAAAAAAlDlw5cxebBoVyqzExqyeIZwBAAAAAADId9DKGXs6kwpk3P9dgnAGAAAAAABcs/krZ8zpTM1mb34knAEAAAAAACg1c+WMOZ2p2cj/ZR4hnAEAAAAAACg2a+WMDmIaYRbNtAhnAAAAAAAAypWvnAlOZ7IIZwAAAAAAAMoVr5yxIcxUCcObFMIZAAAAAABwzYpXzhDOAAAAAAAALGf+3ZoCnNYEAAAAAABQbubdmoYIZwAAAAAAAMqxcgYAAAAAAOCEFls5MxfhDAAAAAAAuGaLrZyZi3AGAAAAAABcM1bOAAAAAAAAnBArZwAAAAAAAE6IlTMAAAAAAAAnxMoZAAAAAACAE2LlDAAAAAAAwAmxcgYAAAAAAOCEWDkDAAAAAABwQqyceQLeNbfii5vvi5f1a/HJPIbzdx7H7aPsxwvxUvZD9cWW+7XZ7DhZf3evB/374uaFeGc2z3asdhG3fiuqm6/FTfVWRN5eM3wWTSXbU23We/PYhVl8zAAAAPBUzVw5sxWruztxFyvNRpR8jSacmfIg7ruJ5a14szMPP6JP69fivpIT9/rBPHLejtXfsnZPf9yUd7Xtg1+G4cwJ+0s4cwGcIEWWepGkYS9q017VfDaPBdZvzWs+iCb2nu22L9WnJR1jzPKsa/O6kdBruK0/DvHSB0vdc73yIKr6vVif6HfgtJ3sdyWqmxtxUzXyp7h1Lbff1IRoAADgaGaunCGceUynXYHxUbypzMT2SYQzx+pvebsnXznjhBMvm4fJPpzDSp9Ppg9LhyjHahe9XWNXgciJuHnsILv3ur1U8KKMhi9O+CH7dI7ZwOJjlqUfl2HoFQnEnDGOlm5s80Ocs7DTocyNCmVsIZwBAAAndNDKmWZz+FJzwplzRzijPbVxkNYvTCBxupU7pQhn0OlCgZFJfRfgRMKZs141c0p9iDIYl7HxlLqVMbGwK/rcz2LdPOjnqHJGp6fpsEWVSjTrRo4J4QwAADitg1bOEM70p428bD6KT3Iy3J9GcSvu5WMeO1mu1MqEj/K5dsIYWa3QTazdMpxY9pPO2AQ8Hih0p+c4bb+sXnjP79tNF7XPvuH1TdR+vTs4GNBj5Z2iIvv7bte//pz+HmUcMo+bZ/cQ9EPuqzxeB69eyQlnCvpb9F6XcsY3dKwQJatdeRzeBO8z1d/w/Vs6DrZd22ZYYtf/ybVbvxd15Ux+ZUmfQiInyvJ9ZSfQbV11rZOgrp2Aqwm2bt9t2/2drybeZuVHWx7kcxKnH1m7/aC/N/LnSpVgFcdoENCJrPRoja2aWXoctLxjscyYDdu146CDrG5Fjipy37yVR11oFVmRNBqIja24kZLPPdMVTOtGjuPa9Gd9lHBGr8ypnLAKAAAgjZUzB0pd08OW+MT9hbiPPc9dkZE7afZOXQkmhs62bgIYvQ6HLf0kvjzscIKgQTlkou1eCyUsfbvF/T3WOBSEHa1ofV1mTdpH98uUNhw0Cvo79V73+ps5vqGThTMT/XX3rWgcRt+/usw6ztLOXZEQljA8cFY1DIs7mbYT6QdRywl+rH430XRWpvQlNqnXRvsriz+BdSb0o6stEuFMagXIMcZByj4Wi46Z87xuv96KOnrdl75u3+bwdbtt0RClH+tY2DD23P5aNOl9Pa1jhDOmzYl2AQAArOWuOdM0YrXZyq9vZS4qnJGTXv1XdjeocCaDwUT4fq0n9VMTx6ntXR/cSbfUPc99XE5C79vVLPGgYhDwJFbfhPo+yom32a92RYhpd/apQN2Y+RPkT+1qE7kf5ude5ulHRxoH12Qg4E7cvRUaekXGmzmzmNGQwZTgfWJlv89MG7q/iWNcPL7a9JjNM95u8Hm1x8F9/zpjVjIO3uuadtWx1Y+NrGia1E+U1eS/b+az2K3fiqpxfxM7deXE2a64aOu1j7srKJxQpC1yMt1ui4QgaqWIfJ12cxc6TF+Y1+1DHyqEz0uELgPxECe+6uZI4+C2O3UsZo6ZWqljq7iBTReShKGTrR95jW5snPGyxralj5WW1W4kuJnSn36UKIsEH8deOXN4DwEAwOXjbk0H6oORYNIXm4A54Ux8tUV8sjY5YY0+v59wpibCvbHgISeUSL9W1/dEIDDJGbN+Ijwmp78ph46Db+q49dsPmaSPmHhfhab624cS/vbu8clxmR7Dyff6TKPtjoVGkTEsGQf7mN9uH+TMXTWTChpi4isaPsvHY+GA027i8bJTWhQn6Agn56nnTQQBvUg44wQV0dUti49D/rHwzB2zWB+cIMerP3iNvt3hcRw/xn0oNN7f4XPH9mXaUw5nAAAASsxcOTO032+6wKbkdKfLCWeC8MGZ8HUTsMLJsjU9YY1M9rrXH76WXnUSXMPFllmhhLNqIFnmTrad13dK+lo2+SHK8uPgyw475gZXU44VzgT9jYUSStn4aicJZ8bGKfI5LhmH7nWdlVHLrJxxJ8u2qFNw3JUbijMxThTv+ilOsBGboKeMrowYaTP5vNHgwhe2EW/zuOOQdyx8uWM2PIVoGKL0r++HWcNAqn/uoN3R11y2v+eHcAYAAJzezJUzCdsV4Yz1qOGMU8dMDMOfO10fEmUwaT51OKOo03zUxWXDNv1TnbTMEOUo4+CbOm7J985SCt9vc/sbCyXKx1fLea/PMdru2DgdGM6MfjYWOO672AV2vdNK+omxX9RFeN+KJrwYbReKTK1YcTnBR+SUlnSb6Un7MFRI8+omQ4Ljj8P0sXDNHTOp29bvYxeceG1FXiOr3YmVPIX9TQVH54VwBgAAnN5iK2eU/aYhnDH6yaAz4SucLFtZE9ZuEqnq9EGCH144AYPsb7/yZCx4yAkl+jrTp1Ad6qMcD2fif2B/lx0H39Rxi75HlnSycGbO+GpZ7/UZRtuNBalG7BgVhTP2GHgriOT/lnUODWZ86g5EZvLsToInVkOESkKRXjpkaSUm7n1/w75NBAGBfvL/VjSp/j/KOFiJY+EZH7OxQGO4gqUfL7+t/jW6fR4JYIbtuiJtOZLjpQIr87ycYxnDaU0AAOBaLLRyZi/225Vo2tOaGlFyE6dLDGfUKo9uIuZO4I4ZzjgT3/vGvH4wefQnx3abuv21bV89Ppw0d/uoXj/Rb3cSay90vAQVxLQTWfd1ncn0vP4ebxxck8fN3Y/IBYGjt2UucQ7hTMH4Knnv9XLj7Tr9dY/t1AWBC8Zh0dBSTrD1rZTdibicoHeBgDvx9ifH42+DslCkMwg+9IVwaxsUdIFAv13dyto+1j9uOWFD1w/VprpVdWRVh9N+vD3lSONQdCwcBWPWBy7+uPX7mAhOutdwAp5ou7Kq8/hw7KRYW44u2HHGq7/QsiqJccjwlMOZXaMuCHwj3yNL9BEAAFy6eStnzOlLw9KI1dbUyXQx4Uy0BJPigslyP5lMlEHwInXt6xKbEI73V5bYpDlo15bBRU67Ce6wzJ2cjo9DYhwz+nuscSg9bmP1545ZJ+P9VtLf/FCibHxnvdczFLUrx6pf2RIWf/wWGwcvkCvgTKRjJVyJ0a/CiBQvfOgn+bHVHGlO8OGUvo349pvqrajbECSc8DvhyKBEJvlO0NGWxGqXo4xD4bHoTY3Z2BgE7XZ9CMaxezwR1kWKd92diX2LrdyJFhWozXmfH9u6lv1zQp6wBEHNaEgUT7TkuPR1olUAAAAc81bODMKZRjSrjdhO/JEx5jLDmcRpCxmTZWvehNW9vkXqNT7KPrtt34p7OWnpXi8WSkjtCpYgfBmGB7rt2CR3ftCgVlyEr63Gd/zOTdP9Pc44zDlu+no6fl8WOe3lhOFMyfjOGbMcxe2aCxj3deLvs6JxcFdHRcu8FULtqoRgQhy9dooRq98WdzI+WM2Rz18lEbkYrmxbBzHudhsUxAIXuc3r74NZoWK2u4JwZqzvxxiH0mNhTY6ZCj3keylsNxyD1ClFydOU5NjG2g37OxpmqWLHLAzHTMkZg5M6ejgjOa9BOAMAAKYses2ZOS7xtCYAcMPSwal+zkqd4UWtAVyC3boRVRvOVNHTwQAAAFzL3q1pBsIZABfJvdBwuGqrW9UzvYoOwNNirzVjS0UyAwAAMrBy5kCEMwDi3NMM40WdvgbgsnQXAq5qsd4RzAAAgDysnDkQ4QyApN2DeBO5DtPL6oV4s+BdzQAAAAA8baycAQAAAAAAOCFWzgAAAAAAAJwQK2cAAAAAAABOiJUzAAAAAAAAJ8TKGaBAdxeOem0eAQAAAADgMKyceQLeNbfmtrvcEeq0dqKpbtpw5uamFsQzAAAAAIAlHLxyZr/diFXTiLu7O1NWYmu25SCcmfIg7rtb8N6KNzvz8CP6tH4t7qtb8UX9YB55bDuxritRtaGILlVVi/UuPhhqdUt1pPCElTPX7rNoqq/le0CWem8es8y26r18xwIAAABAvgNWzuzFprGBjFsIZ5Z22pUzH8WbyoRDJwln1qJ2Qhm/xAOYdZ3eBhzGCWduHkTjpTCEMwAAAADmmb1yZrvSYUyz2ojtPvwLcj7CmXN32nBGBy16pYo34d2tRVM3hDN4ZDaAeStq+d+q+WweVwhnAAAAAMwzb+XMfiMatUpmVbJGJu6phzPvah1cvGw+ik/rF+Jle/qRKrfiXj7mkdvbbZVaAfNRPleviGmfH66KsXW98kK8M5utT2ZVTfyUp3iw0p2m5LT9snrhPb9vN13UPvvkPjXuGOj9enfATFUHLVWwQiFiXbchzlipvEb0ihz92E40tT5dqa1XN8HkOrJ6J3Fakz7tSfV3J9ZN3Z+KVdWJfdCnbHltdyVjv6P2sr82OPgs9+1BtqVXe1R1LDj4LPv6VvZV11ErQqp6nwgYwrq6zXW0sqwrX9urW70d1N01un+DIV2/1c/xApDSfZN2e6+e2r/aa9PKGYc+gFm3/Zb7Y7a427znmNcfHYfd+3a7GgM1Zm29tp1+H1VffCXHTdPvtWo41gAAAABOatbKmf1GXWOmEZv5C2Y6lxLOpIoXYHSBywtxH3uenIR1MsMZsXvdhSGDsMTZdm8nY85jw9IHPOXhjBMEDUqk35nsyhkVhoxNOmVFXW+kRMOZuhkGL6p4s9fScEa221042C3hah73AsOxcmA4U79v/2sDga4Ek/x1HamjSmQFSLJuJDhog4pY3eB0oFnhTOa+2dBjUC/og5I3Dk4AY9ru+xcLZ8bGwQl2bFtVECIFoZLb55Ljpjnv4yoMIAEAAACc0qyVM/qUppXYbFeica8706jHyhKbiwpnKrtKxA0qnGAiCFzu1zrc6IOQeIgxtb3rQ7sip9c9z31891rct6tZnGBlLOBJrL4J9X28FW/MfomdczHjkeeOkxPKLsCoRN1MhDRS3mlNbuBSicYuY9jZx1PPN9snwhlV+lOx1OoY/Zif+ZhAyZ0oT75+Dh1g6Mm6nNCvTXiws487oYAJQFSo0Y+rXvGiHvd30zw/WKGyW7+Xx8X/3NvARQUF/QqRvl03RJkTzrRtTO2bE4z4K0r0ihM/q8sdBz+AaQOSLgxJhDO1fC3bz5ZqV/era9cJkdr9tf0xdQZjVHTcev3Kmf5ZAAAAAE5vxsqZ1IWA+1JyttPFhDNVEJx0QYxzupETzsRX1MTvxjQVzsSf34cqw8AlNBbA5IQz6deKBkTFglOEZFErXlLzy7JwZlhv/PmZ4Uy43QQx7uodWzes2p8aZR4oFgsqNB0K9I+HP/dsEOOGLrZdJxSJsqFIrN3htnnhzPS+dYGHtw9x+eMQBDCmj7rvsXAmwXueZPsatBt/nZL+AgAAAHgKZqyc6cOZZrUV/bWA92Lbnu4ktxWkM5cTzgThQ+yUookQJmUynHFutz08fWn4Wp/UipbqNn5606xwxr3dd6qk+l5mp1aWOCtpYgFGUTgzSASm5IUzg82RcMY+duNe42bJlTOTE3QblIyUMGhY+9c4qZvY9WbGX18HC/0pOrPCmZzwIQxAkkrGIQxgzM9tfxLhjFrV452u1Jeub+EpUuG+e/sy47gBAAAAOGvzV840G/m/QmPb4ghnpk2HM04dE6CEP3ec1TvRcubhjJVcoSI9mXBGTp+T15wp7pfriOFM67M+lcl5rn+x2vMIZ5LtDpSMQySAafup9ieyzTldKVa6vhHOAAAAAFftgGvOxC4ITDhj9YGKE8QcMZzpwyBVpw9UumCo5QQtsr/9XZTGApiccKavM30K1VJMSBK5sKkOZ6ZOCzqDcMY+VpmgqS3qujoFb46o/ACjDUoOmsjboKAPW7rXj552Y+v321Ihir1+ytxwJh7uxOWPQySAMX2qmv1gmw6i9DavbS9skYrCmZL+AgAAAHgKZt2tSWxX+vQlL4TZy4f1aU1NwW2cLjGcUbeq7k4ZckObY4YzbiDTmNcPV/N4QYvdpm5/bdtXjw8DmG4f1esn+u2GUfZCx4dbi1rdgnq98yeh6jbV9vbTkZDEBiTV6MWDTx/OdCt85P7I/1tQ+eqS9oK5U33YvRd1e9tsP+yIhSs2lFB96JuNXxDYBg/9hYaderLMDmds3baNoB/BBYHzxyEWztjnP4gqEc7UzjV63FVH3ZgVhjNFx83RfTYGt4sHAAAAcEqzVs6oSU/yosDNShRcD/hywploCUKYgnCmDzsSZRC8SMEpS7FVLOP9lSW2OiZxKpTfvrqOzbCOLfNW1JggJFlUsGGquuy1XILin1JUEM4k2rPFbbcknLF1Y6WqEvuWpSTAGD9FxtuP0VN0wlUyfTAyKFVmXXOdlvnhjGSDn0FxV/ooueMQD2e8sXG22RAlVbp2C8OZouPW8U+ji9cBAAAAcArzVs60+pUyujT6AsFma67LDGduxcv6YSQ8OVI44137JfUaH2Wf3bZvxb2cQHavFwtnpE/NC/EyCF+GgYtuO3ah4dmnO+3WoqkrOXF1wotK/ixnlmMrBnbrWlTB9VzOLZzp+qAej157Zu5FgQsDDDnRVytVYsFLuB+79Vu9OqSrI5+nVm+Y7Z7dXh47N5wYq+tew0ZdaFjV0/txUDgj6ZUqfj9qr00rZxwS4YzUrRYarKrxL6LcjoHsk3qsa7c4nFHyj1vHeS8n6wAAAAB4dDNXziznEk9rAqbZVQyxFTJyW3vKExNoLGu3boQOOg+5VTsAAACApR2wcmYZhDO4TnbVTC0nyf4sub1dOBNoLCg8hc5fwQUAAADg1Fg5cyDCGcwzchttU5hAYyndhYDbaxnxvgIAAADODStnDkQ4g/n0XacG18Yxd6gCAAAAAFwHVs4AAAAAAACcECtnAAAAAAAAToiVMwAAAAAAACfEyhkAAAAAAIATYuUMUKC76029No9cjl3zIPfta7lve/MIAAAAAOAxsHLmCXjX3LZ3hHpZc0eo03Jvf12LpxLP7NZvRVV93QYvtgyzpc9y3+z2twvs217Uzuu1pTT0kf2O9xUAAAAALsuMlTN7sWnuxN3dSGk2slYewpkpD+Je3aq7LbfizQnusPxp/VrcV7fii/rBPPLYzC2ng9tNr3fxwVCrW6ojhSdPbeWMXQ0Tllj3l105c4xwxgmQBm2ZbdV7+W4BAAAAgKdlxsoZwpnHdtqVMx/Fm8qEQycJZ9Zykt+HMn6JBzDrOr3tutgw40E068/msVMwQc2S4YzaJy+FIZwBAAAA8HQte82Z7aoNZ5pN/iSMcObcnTac0UGLXqniTbp3a9HUDeHMqJmhyOIWDmeqt6KW/60aN3AinAEAAADwdC14zRm7omYltuaRHE89nHlX6+DiZfNRfFq/EC/b049UuRX38jGP3N5uq9QKmI/yuXpFTPv8cFWMreuVF+Kd2Wx9Mqtq4qc8xYOV7jQlp+2X1Qvv+X276aL22Sf3qXHHQO/XuwNmyzpoqYJVEhHrug1xxkrlNaJX5OjHdqKp9elKbb26CSb4kdU7sfOCJH3ak+rvTqybuj8Vq6oT+6BP2fLa7krGfo/KCUVKTz/6LPfrrdwvW/+hPQ1qvJs5/TDtditj+jIMZ97LuuoULPfaOIlwZreXx1b20WmvquTz3Eq79+129TprWbet17Yj2zQ/D0/1Kh8HfZwrZ38AAAAAQFtu5cyMVTPKpYQzqeIFGF3g8kLcx57nrkzJDGfE7nUXhgzCEmfbvZ0QOo8NSx/wlIczThA0KJF+Z7IrZ1QYMhoAzA1n6mYYvKjizaBLwxnZbnfhYLeEq3ncCwzHyoxwxgQNNoiIFi/AKAtn1nVQ15bRFStT4czndLuy9EPtBDBmP/vVM7FwxjwWtKeLE+zYtir3+jwPorZBjfnZPRbl4+C8h6ow/AMAAABw7RZaOTNv1YxyUeFMZVeJuEGFE0wEgcv9WocbfRASDzGmtnd9aFfk9LrnuY/vXov7djWLE6yMBTyJ1Tehvo+34o3ZL7FzLmY88txxclLbBRiVqJuJkEbKO63JDVwq0dilFDv7eOr5ZvtEOKNKfyqWWh2jH/MzHxMouZP1ydefUBzOuCZCFHOakdreP18FKzrESAyJlNmu7Je7okXdZcpv1w9g2oCk25dEOFO/Da630wdBXbvOmLVhj+2PqWMvlNzVnzkO/coZZycBAAAAQFpm5czMVTPKxYQzVRCcdEGMc7qRE87EV9TE78Y0Fc7En9+HKsPAJTQWwOSEM+nXigZExYJThGRRK15Sc9yycGZYb/z5meFMuN0EMe7qHVs3rNqfGmUemC3ndCLXeH0dasRusz31OmPb7eqWSLsT4Yy/PRbOJITt2nAmaDf+OvLH2eMAAAAAAHELrJyZv2pGuZxwJggfYqcUTYQwKZPhjHO77eHpS8PX+qRWtFS38dObZoUz7u2+UyXV9zI7tbLEWUkTCzCKwpkwGZmUF84MNkfCGfvYjXuNm0NXzniWDGdsiDJSksFIRrux506FM/bntt1EOzv52t7pSn3p2g1PkTKvG/6s6x8yDgAAAAAQd/jKGbNq5m41J5ohnMkxHc44dUyAEv7ccVbvRMuZhzNWcoWK9GTCGTmFT15zprhfMU8hnDHbZoUzUltHXQ8msm3iFK+uXcIZAAAAACd24MoZu2qmETPOaGpdajjTBypOEHPEcKYPg1SdPlDpgqGWE7TI/vZ3URoLYHLCmb7O9ClUSzEhSeTiqjqcmTot6AzCGftYZYKmtqjr6hS8OUYtGc6o7s4NHnJCn+FpQoNrw8TCGdN21ewH2+zz1Tavz2HoUxTOmHYJYAAAAAAs6LCVMweumlEuMZxRt6ruThlyQ5tjhjNuINOY1w9X83hBi92mbn9t21ePDwOYbh/V6yf67YZR9kLHh1uLWt2Cer3zJ8LqNtX29tORkMQGJNXoxYNPH850K3zk/sj/O4Jlwxl7Ydz2ltFF/c0IfVS7NgxRt792Vqf0YxkLZ2y/HvRtuCPhTO1cEHi3fi/fU0G7heHM3HHo3peDW7UDAAAAuHYHrJw5fNWMcjHhTLQEIUxBONOHHYkyCF6k4JSl2CqW8f7KElsdkzgVym9fXcdmWMeWeStqTBCSLCrYMFVd9louQfFPKSoIZxLt2eK2WxLO2LqxUlWJfSuSEc6Y4CFVuoCiNX5Kj7fPJe0mTj+q6rft43278XDGe76zzYYoqdK1WxjOFI1Dxz+FLV4HAAAAwLWav3JmgVUzymWGM7fiZf0wEp4cKZzxrv2Seo2Pss9u27fiXk5iu9dLnLr0qXkhXgbhyzBw0W3HLjQ8+3Sn3Vo0dSUnz054Ucmf5ex2bNXCbl2LKriey7mFM10f1OPRa88celHgpcMZRd8yOhamePtc2u76vV75orZXD7Itud2EJn27iXBGsqtkhqtqdMCjX1f2W612Ua/ltlscziiZ4+By3kfJOgAAAACu0gJ3azrMJZ7WBEyzKyliK2TktvaUJybxl2S3boQOGZe4TToAAACAS3L43ZoORDiD62RXzdRyou7P1NvbhTOJvxjh6Wv+6ikAAAAAYOXMwQhnMM/IbbRNYRJ/GboLAbfXEeKYAgAAABhi5cyBCGcwn77r1ODaOOYOVQAAAACA68DKGQAAAAAAgBNi5QwAAAAAAMAJsXIGAAAAAADghFg5AwAAAAAAcEKsnAFa9u5J13v76l3zIPf/a1HVe/MIAAAAAOAxsHLmCXjX3LZ3hHpZc0eoMfaWxfXaPFBi14jK3i3pwtKZ3fqtqKqv2+DFluEYfRZNV+etmDOEvr2onddrS2noI/sd7+sxLNBfAAAAAJhp/sqZ/VZsVo1o7u7EnS3NSmy2ZRMawpkpD+Je3aq7LbfizQlyg0/r1+K+uhVf1A/mkcdmbjltwpM2QKkbEd5t+qBw5oQrZ1S/q5t6gUBkyK6GCUtsjJZdObN0OGPDo4eR42Nes3ovj2YpwhkAAAAApzNz5cxWrNxQJiirramWgXBm2mlXznwUbyoTDp0knLGhSaz4gcZh4czprOvhvizDCTTWn81jp2CCjwNXznThUZPYF1M/uT3bzP4CAAAAwEyzVs7sN00bwjSbrZzG9PbblQ5oCtIZwplzd9pwxgYuN5W7UkatpDEBjZPEEM6EziVkWCacEbv3olLtJFbGrGu5bXRlTS7CGQAAAACPa9bKGRvODDMYs6LmisKZd7UOLl42H8Wn9Qvxsj39SJVbcS8f88jt7bZKrYD5KJ+rV8S0zw9Xxdi6Xnkh3pnN1iezqiZ+ylM8WOlOU3Laflm98J7ft5suap99cp8adwz0fr2bPVley0lyKriwK2r6bTqc0acl7Zq6Pw2qqocT9nWtt0VKPNzZibXbpnydSlZM7tpuLZraBEumfu12YuT1bTn82jc5IYOp45bR+p/lOLzVIUlbHtrToMZ7mtMP025wbRxV+uMxdmqTeY0wuNnt5XGQfXTaq6q3g1PifOP9tSt4Bu+T5Mqd8jFTp/G175noexEAAADApZl3zZn9xlxrphErs3pmv9+KVaMf24zNwQKXEs6kihdgdIHLC3Efe567MiUznBG7110YMghLnG33XYLRPzYsfcBTHs44QdCgRPqdwwQYqZAiXCljw5mqckMRW4JryRSGM91KnbBUzXCS7Vxc2C9OH44VztjVJWPFCzDKwhm9OiVSRq/zMhXOfE63K4t7PMqCEfcix2EZu+jxsuFM+ZjZUFKW2PsLAAAAwMWZf7em/caEMU5pVqLwesCXFc5UdpWIG1Q4wUQQuNyvdbjRByHxEGNqe9eHdkVOr3ue+/jutbhvV7M4wcpYwJNYfRPq+3gr3pj9EjvnYsZzTokyAUYsLGkF27tToGTpV7WoFS/68amwI3lalA1SujYVfZHiYf3+Gjn+yhq98ibWhUVPayoOZ1wTIYoJH9T2/vkqWEmEFZ3MdmW/3BUt6i5Tg3bt/gVtxU9p+iya+m1wvZ0+CJrb36JwZuaY9Stn4kcKAAAAwGWZf7cmOYFRd2vywhm1aubK7tbUByNBcNIFMc7pRk44E19RE78b01Q4E39+H6oMA5fQWACTE86kXysaEGVKhiWWCU1s6GLrD0MYsxJhYhVC6vXS4Ylp132CXTWT7PTQ+VxzZry+DjViK06mXmdsu13dEmk3Fs5E65v2R1fvOKLtusb3pyScmT9mAAAAAK7JwXdr0hcF3outE9Rc092aUqtWoqcUTYQwKZPhjHO77eHpS8PX+qRWtFS38dObZoUz7u2+UyXV9xEzV84M65vVLLPCmbG7RZnitjvV54inEc6MnSJkyqwVOabd2HMTIcogHImEIp2dfO1K1w9L+hiNj1t+OHPImAEAAAC4JrNWzmxXNpjxJy/d3ZqajZze5CGcmTYdzjh1TIAS/txxVu9EyxmGM2XXnDltOJPuQ9p1hzNmW0E4E57apMOSyEWCJ07xSh8jwhkAAAAAj2vGypm92CQv/GtX1Kzk/8pzqeFMH6g4QcwRw5k+DFJ1+kClC4ZaTtAi+9vfRWksgMkJZ/o606dQFbCnCEVDleGdnJLBSOapRqnnt+HJRLDTmQiUYnQ4E1yweBFLhjOqn3PDhLF2bYAxPPUnfW0Y9znmf0f6ZZ9fNcGdkVKhT2deOGOvIzM4rYkABgAAAMCEA1fO6Ds1Wayc0dStqrtThtzQ5pjhjBvINOb1w9U8XtBit6nbX9v21ePDAKbbR/X6iX67YZS90PESdHChg5XupdVtqu1Fd51Eow9XnE46ddOTcS0VztjH2wv8Th63/k47VZN3QeCufa/+EpYNZ2wo0d4GuqijGaGPG2qo2187K05ix60LSBq9OiZ2SlMf7vTbduv3ojZtp98PE+Nmwp2b2oYu/QV+VXH7MnfM+vdcZigIAAAA4Embd80ZG8IkylVecyZaghCmIJzpw45EGQQvUnDKUmwVy3h/ZYmtjkmcCuW3r65jM6xjy+wVNcnbUssSrGaxE9pomUpmpFQ4I7d0AU+sDOqb1TPDklgdk6hfsvomLiOcsUFDovihx/hpOt44lLSbOP2oqt+2j0cPnfecyClNkg1GUmV2f+24hsVc22b2mHX891u8DgAAAIBLMv9uTfutWDX+3Zqaa7+Vdlduxcv6YSQ8OVI44137JfUaH2Wf3bZvxb2cxHavFwtnpE/NC/EyCF+GgYtuO3ah4YNOd1KrX8xtq3WpRB1bZWLqVW6QUqm6eSFHOpxR9K2zY0FRrP5u3YhavnZfb7wfu3Xt91uW8wtnFL1KJBamzA87pPV7uf9me/Ug25LbTQATPx5O6DFy2tCu0QGPfl3Zb7WCRb1W2G5pf2Xf7Aoc1W7dnjqlx3v2mLmcwC5ZBwAAAMDFmHm3puVc4mlNeJp0OHOMa78AZVS4p4NA3o8AAADANZi/cmYhhDN4fDvR1LVYuxcB2Q0vMAw8tvDUvMNXTwEAAAB4Clg5cyDCmacofQ0ZJsM4JRvOVFUQHgIAAAC4aKycORDhzBOlVsq414RR16Zx7/IEAAAAAMAjYeUMAAAAAADACbFyBgAAAAAA4IRYOQMAAAAAAHBCrJwBAAAAAAA4IVbOAAAO0t1lqj6HG9Gri32f/y3xz2vMAFiX/Nn87tUz8Uvf+5748vk35hHA3sG0Etd6w1I+F+fgaXx3ewysnDlTRXeB2r0WL1Vdr7wQ78zmlHfNbVv3Zc2dpoCodd1+SWf+PMa9Nf2p/2G1fVG3IjcPnaVzGjMAvaf52fzum+fiy2ffayeYtnw1mGd+ED/o6jwX35pH5/tGfOW8XltKJ7ey3/G+ooQNFGd9V9k1omrf7zeiurB0hs9FjgX6uwR1F90j/97dye/0lf39XjXyt/15OmDlzF5sVo24u7szpRGrzVY+WoZwJu744cyDuO/q3oo3j/kONRNev1TtX6muNLRfkPPFcvCvtNl24C8k9SWgmvzlaX/JxsoT+utMNJwZ27fLCHLyjnHvXP7SvK7VMRh7f+1kHbVv/fGq1F9qdvEnlI5DiXMZM5yKMyEYfBE22569Et+ZRy4fn8257F/9wxKb2C27QuAYk1A+F77I56JuBn98sO/ZeW9Z+73x8b+bHfNzfDmfC/uZeCZ+8KHdGmFec9Zn40zCGcUGhcf43RvOPc85nJkXjmzFqgtlgrLamjraz372M/Fnf/Gd+J2Hrfi3X/9B+1/1s3pcIZyJKwpnHJ/MapizXjkTDWdMOeMPy9Pg/tUv/Id2mXBGT4Cn/jElnHnK8o7xmTHHKv2Xv7HjFt/XJzkOeCKcSejgS/e1TUL5bM7nTNy+Sc7cHoGZ4C0Zzlz958L9PhcW/71/WDhzOsf7HF/W56ILj14l9sXUT27PNrO/CzrWe1m/12S7T2ACMmvlzHalg5jGXSmz34pNox5vxMY8qAKYr3//rfj64a348N1fiU9//X/a/6qf1eNqO+FM3GOEMycTmfDu1nZZ5ROauJ8lG8DUopb/9SeqJwhnnnpSMRbOPPV9G/H0Jj7T7237D/Nghd5uLRr1l0jzo+vpjQOeDjvRfC6+kv/1v1Rf1ySUz+YhTj+Z0hYOZ/hcdJNU9e9av1JGraTRnxf3OwjhTOjCPhcfXokvVTuJ9/63z+W20ZU1uc5h3Mx37IX/WN++1xZu81hmrJwxq2aazfAUpv1GNG1oo7e8+7Mfi3/3e1vxl3/9fwdFPa62P/VwxoYoL5uP4tP6hXN60a24l4+5UoFL93j9YB7xH/u0fi3uK/NzpF3XZDgj+6i3u2UiyNk9yNe37apyK16qfpnNxaIT3rF/XOQ/Rk3tLOushl/iOmHd+BJQLbWM2mw2kv2K/qVe/1LRj8kJo2y/a1v2I94N9QW0r6f2L57s5oxDP0ldt/12/9FLTWAzxsHs61iJjUN+gLH8sdB1VdgXjJtsNzq8qg+qnhojW9cU//Vy982M9+D5kl26GfuHYtH3g3opOw7qf4+Mw9xj7JbRMSk5xiXHTYp+Fn36S2BG+DtzHPRjU5/5/DGb9f713jduydjvKP1FTU+Q5MToeb9M/MvnsS+JH8S3r57rL5FtedYuE49PpMK6us1vo18uZV352l5dOXkL69q/LvYTPSP6V8XSfZM+fOPVU/v3ldemlTMO/UTz27bf7rUOEpNQ8/qj42C+xKsxUGPW1mvb6fdxuHS/5Lgtj8+mqTZLzmTK1HHLaP0574ecfph21Xu7a1uXYThz7Z8L+350v8NZ9rtFvy3733ll5HMUf8sH73P5Ounv4NLUd5jiz/EcF/q5kK85DGDMa8z5XAyM97fs31hl3mdIv59T78d5nlQ4U75yxoQzwelLmr/t9eYPxX/98/8lPvzV3wyKelxtv5RwJlVUaGPNCmcSxW3XtXg4E62vy/3cD435xRx+6FIfRv3FLVIiH7Jk3cEnvJ84D4v/ZSn5S8LsR/TLoPziN/iip8pwp51/8Nwy/MKWNw5mv9Rjpu2+f84280j2OMz8Ujw+WbeOcyxs3VjYMvzCo748x+rp4r9eyb7FvmDZ/R0e4+XfD3Yc5Jep6DgscIzdkhyT8mOcd9w0PRaR8XR04yX7OFJt9jjkfebzx6z0/ZseX1XGxyZNf1FTYcXgS6wqwRc4/de7SAm/NErJuoMvhfZLaaz4X1RnhTOZ+9b95XJQhl+W88bBmWiatvv+xSahY+PgTGBtW8/MBLQtz8RXdkJqfnb7XHLcjoHPpqmaK/ledIp37MyEyy2JyZcy7/0wPqlT799ku7LEwpmr/lxEvtO47HvQvkX7f+f1434J3mMjn6PYWz73u0Yr5ztM8ec400V/Lkr/fcv8XAyM97c0nJn9GbLvo8Tv4Dna93HsPXuGZqyc2ZvTl+7EauusnVGnNdkLBJtVNf/s139HvP2f/1v8vb//DwdFPa62X1Q4U70W79qj/lG86Va69MHH7HBmol1XyWlN03WdiwZXsk73jtarhN7M/cyYX8zuZ669gnb7Szn4YmN/icvK/Qeq/yuU/7k1X66Cv4ipU6bqxu+s/YftRn5Q+7/cO3/dchoO/xHsmL6lJ6zyHyPb+M4+Hpukqy+Pwf41iVUNk+Ng2jS/gPxfRv629pGCcbD0P9TxSXIv8kXXFuf1lWMdi65d9Xg3bqpd/ZjXhh1frw+ytnncf72RfYuNi3PslOQ+yL4t/37oX89vV7WpH499Cco7xi772Ys/Y84xHvQ3dtxaw/d1nOyjGV/12VS/E8br546D+36Y+sy7MsdMlpL3b7dPk6+fw/3yKicu9tz9D/Zx50ue+XKmvtS5Eyf7V2r/y5z9Auh/Qfvum1fiq1f+tz77ZVB9mev/4te3636JnBPOtG1M7ZvzRdf/q5/+q6AXzmSPgz/RbL/Edl9YE5PQ5/K1vOsn9F/su3adCUq7v7Y/ps5gjIqO27Hw2SxSPAl12c9e4sDOfj9ktut9jtVnXj/et8vnohX97uEIts/5d95lnz94vYLvGurx7O8wRt7nONNFfy4ku39BW/q9Hv6RIPNzMTDe36J/Yw/6DOV+r8u0MwH9Uu0d2by7NW1XOoRJFRPO/Opv/Wfxh7vvxJ/+5U8HRT2utl9MOKPCC/NYq1tx0t8JaVY4k9Gua8lwpt++8N2c7C/7QZFfyoLf0Olf3LEvT/YLj/MlLMr+AxJrd7ht6h+teDgzbHuwLwXJcP44BL/QvH/Aw192ZeNg5f1jaschUrxfjmV9KDkW3ZeVsPKg7kgfvPGzRvYtMS56zGQ7zcgxP8r7oR+H4ZczUzfyj1XeMXYNX7c37xhPHzdr7LVD+kuiDoJ1UX9VT/26KHuvD+uNP3+83yXjkPpc6Medv1gWM1/UIn9p01/y+sfDn3uxL3u2XScUiTKTsWi7w23zwpnpfUt9KY7JH4dgoul9GQ+2jQm/xNu+Bu3GX6f0uB0Tn815So/TeP3574ex7SOf4/D9y+eilXrfdIL3mq1f8u+8K/V66c9J5DMyY7VD3ud4jkv7XCix+qb9nM+EEm3XNb4/Jf/GHvoZWuK9Yd/XbRk7Nf7MzLxbk1oosxKNWUGjA5mV2Gw33mlN2z/9sfg3//G/iA8/+ZtBUY+r7ZcTzgQX7nVub21P/5kXzky361oynEn24VDmHxW/xD40duI2UsJ/cGTb/Zc79Re42Je78S9e+hdC/6Up+Y9k5IvYVNse8/zpqiXjYOqGP7cvEm4rGwcr7xdm7jgc71jk1w3HxRE9RgXHuOMew8TYHeX9MDIOI/td/o/i2Jgc7xhrc46HfB311+tuHOOTpGXf66Hx5xWNg3nMWzW45MqZiS9R/ZfGkRJ+eZRf5vq/cqprt/h/OdTGX19/+ev/YjgrnJncN2nyC61VMg7hRNP83PYn3GaoVT3eaRl96fpmJqHdvob77u3LjOP2CPhslih4H7fG6h/yfshoN/bcwWcrrGt+vrbPhXnfJN+6wfY5/8674s8v+64x2eeI8u8auS7tc6GlVnj5/7YZOZ+LgfFxy/839vDP0BLvDfu+1u/VJxTOzFo5kxJcEFjdjem3f/jH4rd+94/Fjz7sxV/sf9r+V/2sHr+EuzURzswQ/qPS3akp/BAW/sPQ2bVt9l/u5Jcl71+L8S9eh00W878Mpv8xDZWMQ+Qf4rafan/CbWXjYC37pfh4xyK/rulD7L0UvFe1/GPcM89pS3zsjvN+GGs38l4xyv9RHBuT4x1jbc7x6NnXiz1/2fd6aPx5ZeMw8p6YOS5a7hfcuV/EPuhTmZzn+hflHH/9xwpnku0OlIxD5It520+1P5Ft9i//idL17QLCGYvPZo7897E2Vv+Q98NYu2Zb7Lne+1Hhc9FK/nunhe/B5Hty5N95V/z5S33XSCv/rpHr0j4Xhn2/m/b0v039v4Gd3M/FwPi4PbVwxurmmYv8zj2+2StnYvQttvtbaSsqgPmT99+J3/7drfjX//4P2v+qn9XjyqWGM7FTguJ1neu6ZIQzsXZdS4YzU681W2TCa3+ph/8QtR/OiX9Uxtl/XNyQwXzxin7obf1+W+ofHHvOrd/ngi+DE//4uvLHIfYPse5T1ayDbWXjYOlfmMPQxpc7Dsc7FskvCoNxn9rXsI2CY2x0Y2b/gYgdy6O8H0bGYWQJct4xdo2NyTLHOD0+sfd8CdO/yPOXfa+Hxp9XNA72Me9ikMEdMmbJ/4LbBiUHTVjslzn3i6Z5/ejSaFu/35b64mjPce+/OCr5+zb84pmWPw6m/15d3acvX30z2KaDKL3Nazv8El80CV3iuB0Tn81pBe/j1nj9+e+HsXaHn1XLvq/7zyyfi5b99zn675p5f+b8u5l5qlHq+SXfNaLv/wnl3zVyXdrnwnKfE/usaNmfi4HxcSj5N/awz9Ch3+uGit7LJ7bAypm92O+3YmVPcYrexSntEsMZdevr7pba7uNuGKLeHbsH5wK/skyEM6l2XUuGM+4qndgFgcdu6T3K/AL3/xGw/9j4v6TtPxjtxcWmPlHyH6G6PUfdrxj7R0f/gyCLatc8JmvKx80XKL+yecx+qJ16svj/EJV8GbT7rNoYv3ha/jjEf6Hp55s79jjbisbB6PoyetHG/HE41rGIHfdW5AuE7UP32M4EWaZdv42SY+yOl+lx8HPvGO+Hvm7tnt/nnDYQ242+j2PH2DU+JiXHuO+vecAa+eKn2x/7gqf2V46hHAOvihy8x3yv+8afVzIOev/lF3W5P1PvhzL5X3Dtl7b2grn997M4OVH6qr1ttl8x9sXPfslUfei/5PUXFfT6Zr549hcadurJ4n5xLNm3rm7bRtCP4ILA+eMQ/2Ktn/9M31bV2dZ/We8bdVcddWNWOAktOm4O+7nxV6XOwWfzMCXvYyVv8lX6fphqt58smkY/mKBFPUeW/jPP58KK/rvpfDdx32f9e9J5kzl1p7qTek93nzPVh8n3r/ncqPoT32GsvM/xHJf2uejZvqhTgb33tCP7czEwMW4F/8bOHzNpxvWLprSfp6cSzswKR8zpS931ZmwxFwIucTHhTLQEK07csMMpLysTksTCmWjx2+1DlkSJBkSJEoQ+Y/VTt/OeZL7ADD5z5nH/w2j/sh4vflXzYY6W8K/2/T8igyK/KGbVNX8J8yeLhV8G7T4PSjjRzB2HRNrsjo23rWQcjESf54/DcY5FyRfo1HunqvU1jPw2Rvori1fXtuuNeX8sU30blrnvh34comXQASPnGCf7qkv0/RArwTEuOm7W2LbW+DHTkydT1ZUzDrbt1Fi6CsasZBzGjnGlxjc1LJNKvuDav+jFi/dl0EyUYvWGf0U0fYiVZ5l1zXn3/pfYkn2T7JfSQQmXlOeOQ+Kvnu7YONvsF91U6dotnITm99flfp4O/as3n83DZLyPk+9dXfzPRcH7oaTdxGf+y+f62lN8LiLGvtMG3/HG3mc57//ke7rgu0Yr+TlKjEfW53iOS/tcOLznRE5pkrI/F0rROJT8GzvnM6Sl34/zPalwZtbKGS+caUTTrMR2XxrLaJcZztyKl/VDfGXL+oUT0Nzq1Sf2DkxOOKNWydxXsp2urq7fthu8s44Zzii2L3299P5lMb+M0/8IDCei6q8RsX+kwjbaW3J7/5DI58lK0Q+j+quC/cvcZF33Gjb2Vp/6H+LZXwYNfX0cvx/xJc8545AIZ6TurzDhtpJxMIbjfOA4HOFYlHyBbqlTjmy78ni0f4EyX478NtwvYMPS17X1Il9Kui9dfjChLPt+6MfBK2r/Jv5SNXmMzTimymB8M49x8XFr2d8dw/HsmNf3xkuOQ9uHkYFY9L1eMGZl49C/J8O+6jIyLqMKAwz5ZUz9FS32ZTP8IqZuFdr+FbyrI58nX8ebkFnqr4nOX+fG67rXsFEXGlb19H5Ev2Rm75vqs2rb78dXXptWzjgkJqGS/atnuO27V/5FlNsxkH3yvsQXT0KV/OPW6d7LS0xC+WzOt/QkVMl8P5S2q96r9rMpP0ftX/XN+5XPRULk383ov932M+S+x9p/5/M6kXxPt/K/gyv532G06c/xHJf2uXA5oUfkc2JlfS6U0v5m/xurzPgM2e9zCwcpl79yZkGXeFoTAJyL8S9dFyQ6MboGTjA12HW5zYSyF3/88ajaCVU7kTo0XLhkfDavzVP9XOjvCQsFSsABjvWdVf+B+ml8Lpe9W9MMhDMAcDxXE85I+h/fa/uCaf8yr87p93e8vSVxu40v3VhGtwLTFIKFMXw2r8XT+VyoUFCFhc6brnsvErTixOyq8iN8gOxndPnrGy2PlTMHIpwBcM6uKZxxJ0OHX8vhqbB/nU+X61tNhGPpvuAucr2US8dn81o8nc9F+j3JexEnZUPCY5161F1OwJQzPsWJlTMHIpwBcM6uK5xR5D/wwUWGL5+5JkDwpVtNFNRdcACcCp9NnBk1CXavCaOuTcN7ESd3/O9u6npI3e/icw5nWDkDAAAAAABwOqycAQAAAAAAOCFWzgAAAAAAAJwQK2cAAAAAAABOiJUzuHBP4+Kg9qKtFfclfaKu8SK0eOr+vBHi/7kR4u/W5gEAwGzfvXomful73xNfPv/GPIJLwzE+ByXfuZ/e93NWzuCC2VsGyg/lWV+I3r214VOb4Mu+qztR2Kv+myugX1dIMf4++w9y4qsmwP+PmQCHP1tqovx31eNmsvzn5vGWbFdt+7uyDtL+XL7x/m5lxteUf/AU3oyyj6fo6z93xuo/mMfmskHP0vtwLZ+L1O8F6zHGYaoPSu7vM+CSfPfNc/Hls++1k3JbvhrMzT+IH3R1notvzaPzfSO+cl6vLaWBgOx3vK8IcYxzLNDfJdjbbufMmUrqnonIypm92K4a0dzdibtmI39KkfU2K13PlGa1HakfRziDY1nX6sNYiSYZzJhbXDrBgrq95XoXf4Ja3VId6cP9NFfO2F94QTnj29NlMbeZrJq8YzH1PrOT1nAy402k5Eu1dZzibm8n0bJ4E7InyE4wDw0CYrpxDgrhTJods6mVMznHzba16D5cyedC6d6/sWPxSOMw2gcjrBP9fYYnypl4DiZcZtuzV+I788i1sCslwhKbDC+7quIYE3eOcczlHGN7fJ+JH3xot0aY15x1nM8knFF2jZ6/5cybSuqegX7lzF6HMjZoactIOLNdOfUynxNDOIOjWNdtUFAlk5lEsNCWeACjJ+FPJ3k9ti5QSqdfT5N572T9Dp98n/WTGTt5CX9W7ATnn5tm/oGabJnJj61vtz1ldj+PEc7YVSD//Cl+QGWfVd/PNUjKOW72fbrkPlzL50KJ/V6wHmscxvpghXVynoOnwpm4DyZ31zpxdya73yRnu4/ATIqXDGc4xsZlHeMuPHqV2BdTP7k928z+LsjOQ/Lymfy6p9atnOnDlkZsthuxGgtatisTxKzE1lbYb8Wq0W00m/x4hnAGyzOnmYys4NBBi16p4tXZrUVTx0/LIZxxTY/xU6V/gY+tuLLyxiBnMjOYfMn/bSdf6n9fysTnmOGMO2ZPjvylosaFcMZ3LZ8LZSzkeKxxyAlacn6f4amyk/Pn4iv5X3/ydq0T99NPQLWFwxmOsePCjvGHV+JL1U7iOH77XG4bXVmT6xzGzfyhPWsuUlL3tPqVM9uNc1rSdjSc0UFOIwYZzF62MRbqRBDOnMJH8a6+FS9vvi++sKV6Id7tPprt2rvabnstPpnHlO7x+sE80j/2svkoPq1fOG3finv52JDsQ+PWk8+tX8s+mM2WbKvd3vZB99ut7/ark7GaYfqUJ8O0NVb819Effv2Yvh5LV68OfyFEVu8kIt0+MNiJdVP3p2JVdWIf9ClbXttdyQkeJuQuEWzDLvfUMfm/w0BM8gIR2XbdXYNHB2hWW6/9xSrHztRpx7o9FUm3P+jSoA/yOeq0JVnf1rWJ+lgZtJvxPmvJ53mTF/OzN4k1j7lF1W8nZSOnK/wHWcdeh6J9jqz/Hw44tnaipSaBXtuyD6m/zKs+en2Qdb0+RPYtLEtM7HLDmcn+SnYcBkGD2Re3v7PGTNWT29t6TpkTbNiJ+1hwEo5N+7NbYuNWeNzcMVP/O2ccJkX6cIrPhcuO95IhVMvsa/Sz8FjjMNYHK6xjfl58PJL0hEBPKuVk8nl/OsKXz2OTkQ/i21fP9WSlLc/a0xHik8+wrm7z2+gkRtaVr+3VlRPesK79K3Y/OTaif70u3TfpwzdePbV/X3ltWjnj0E/Ov2377V5TIzFxN68/Og5msqjGQI1ZW69tp9/H4SkiJcftmHImoKaOW0brz9m3nH6YdtVx6trWZRjOcIx7F3qM5WsOAxjzGnOO8cB4f8t+9ynz3g/2+/vgO3pEbl09f4rMJx5J4m5NY+FMYtt+KzbdaVErWSsP4cxjexD3JtwYlhfinamlzAlnUkWFNr2P4k0Vrxf2oQtn5OP3sddw+mDlBC925YwKF0a/s88NZ+pmGLyo4n3SS8MZFSoE9dsSruaxF6hNlXnhTDdmI8UbCxvgxEqwn92qpMR42+ptvar2wpv2Z6eu1/ZYH5xxmN634Zjp58wbyxg76bOTKHVx27FJj1vfK/LxuewEOxYcqBIGAO4FZcPSTcjNfoyV0clgimzfnXhGSzBxzeqvNCecyR2z5HGTZc4E175+MgAx4+T2+ZjhTO445DqHz4WrG7vgvXVs5zYOp6MnBCqsGEyWVAkmCvqvxJESTk6kZN3B5MNOfmLFnxDNCmcy9637C/mgDCdleePgTM5N233/YhP3sXFwJv22rWdm0t6WZ+IrO4k3P7t9Ljlui0uOq1O8fphJqlsSE1Zl3r6NT4TVsUi2K0ssnOEYR17bLU/2GJf+3sk8xgPj/S0NZ2a/H0quJ5NV15mbnWiVTeJuTSPhjF0ds7LxS+RaNbFVNQmEM4+sCztuxb3z3vy0exD31etlwhnVTvtudkOYPnT51NjVL7fizdqENur17fPdwKXrry73pn7fRhDm2GBi8gPVr7xQE+y6mQhppC5AMD/HuYGLnLjb2/eolR3tY6nnm+2JXxjuyo5+5YlaHaMf855mAw53DCZff9p0gOH2w75eMLaJfnhttxdl1o/vGnd1ihs6qVDE/Vk9JxxD+1rq+e7xtc+LjIX5xT25Gsa2ccRf3FMrQex2d4KoJmz/wJkwl7ITbFXaCaB53E703IlgV1dOUt2/xneTwkjf7ba5E3WPfM2ScKakv7ZuSTjTPi7bGBsz+/ywD1MT7VHhc83PYTiWanvqfabkHLeicTjAKT4XrqX3Z65Tj8PpuJMkOdmz14j4YB93JhNmEqAmD+5k0/5l35802ImGPxH47ptX4qtX/uzCTjrUpKH/y3LfrjtZmRPOtG1M7ZszofL/uqz/+uyFM9nj4E/O28lSNzFKTNyfy9fyrtPRTyC7dp2JcLu/tj+mzmCMio7bERRP3F32fZTo5Ox9y2zXe0+q969+vG+XY9y66GMs2f0L2tLHLQxvM4/xwHh/i373HfR+KPk+nle3Xzkz3eIxlK+cMeGMOgXKv1tTI1Yb9ZgKaghnzpYbdnQhStyscEadHmUeazlh0Jv2tfrAxl9N4wQu7us5/fXqD9q1wgn6mOAUITUpV9ebSYxJWTgzrDf+/PF+d+FMuD1yak1q2Z5+fJmVHlNjkeqDMuyHE7KEvzDN/ul2+nr65z58aX8OghXbh2HQYtqJdc57vTEl77NyOZPhdvIly5IXwO0m2OGkT76GetwNJewqlFgfU9ty9muuqclqSX9nhTOHjJmpO2vCL9/e7soY25/udU3bqZU1U+OmFIUzGeMw16k+F+fmusfBTAgif9HVk4n+8fDnXmxSYdt1QpEoM4GNtjvcNi+cmd631OQrJn8cgsm5N+kLto0JJ4u2r0G78dcpPW7HVvqa4/Xn79vY9pH3ZHgsOMYRl3aMlVh9037O8VWi7brG96fkd9+h74e8+ZlWUvdU5q+ccYp7C+3k9WgSCGceW/yUotj1XuaFM35dsXvdXVdGr9QZO63KFifgSYYwKfMmzTu16sIGBIkAoyicKZ60jz8vGXZEwhn72I17jZsFVs70TFvJ5Hl8+zCcsX2bCo6CdsPlie1+2zZskBPZ35HVMcO+pZi+FB/nDLJJNalSE3X1l267OsRdjdBytrX15eT30OtqlIQSY5N6O3kMA4FThjMl/Z0TzuTUbcMZWbzjqJi6s8IZSe2bfR31Gv9A7Y95Hdu/1JhPjZuSc9xKxmEWZ4we+3NxVq5+HPK+rPeTk5ESTlLkpKH/a7q6dov/F2pt/PX1JKP/y/SscGZy36TJiZNVMg7h5Nz83PYn3GaoVT3eqSx96fpmJu7dvob77u3LjON2VAXHpDVW/5B9y2g39tzB+ySsa37mGF/QMdZSq5X83zlGzjEeGB+3/N99h78fLi6cKV45Y7e1ocymv1tTay827R2buObMeVMX7X0t7gchjX+q0zWFM5YNQWLPfzLhTBdMRMrMcfFMnbM5empQJDSZas8y9bpqXhijNqsxsu2mx1Mfx/jqmPxf2scLZ7rJstwvd3LVTsAiE9z2VAWzIqOtMzHRHkM4o38+VjjT9uEI4Uwb+ph9U6+hJuHqvaP2p9232GsaU+OmnEM40/XzBJ+Lc8I45E6k5n7h/6BPZXKe61/IdPz1HyucSbY7UDIOkQlg20+1P5FtdrVEonR9Y+JuHLJvY+2abbHnemOrcIyHLu0YG/bYmfb074z+d1Mn9xgPjI8b4cx85StnugCGuzVdho/iU9OfOjQduMSvDZMKZ7zry7QTn/RpTVHF4YyZ/E+cT5hmJt2R5+sPdObqjuJJ+4LhjH2sMkFTW9S1X+aNyIBpP7mLY+HMSH+nhixc1eKHMaoZuZ/dcUuMp3mt+HFMH/uhQ99ncXaCqybB9n/bwKCdYI1MshV72kwYiuQqDhpkiU3YU6fvpEKbJUyFDCX9TY2D7b87DiVjNjUuc8OZLoBRr6n+Kx9Tr6Veu902NS4j25Wc41YyDqVs22rc7P9+zM/FuWAclPyJVBuUHDTJs5MGd0JjXj+6BN/W77elJij2Wgr9BEXJ37fhBCctfxxM/726uk9fvvpmsE0HUXqb13Y4WSyauC9x3JZUcExa4/Xn79tYu8P3nWWPUf/+4xgPXdoxttznxI67ln2MB8bHoeR332Hvh5Lv48f57r60GStnVAZjLgDcrPqVM3v5nDa0uRPdtYIzEM48LhXEvKwfxCf3XemsbnEDF++iu6r+7sE/JWoinFGrc7p23cedwMZe4DepOJyRT5kMUeQkXN2Cer3zP5zqNtX29tORpMAGJP7FZUOnD2e6VFjuj/y/TPIXltl399bVMWFIMmBXwrR9MI/J9vvr+/iJ9WR7hh++hL9gzc9d38OgJby+0Fg44/Y7LS+sKyDbUX8Jt5Pb0cmXfEyduhKepmCfM3eSn3y+/Fk97k6w7YRdTezdCaH7eMi2r9oZm0TOMRUyFPXX7K9bt6snizsOc8ase0wePzthjraRqXuvyPZt2+1jsu32fePuWyAnnMk5biXjUOQMPhcuewyXaKvImY1DCfvv6tS/LXnyJ1J2ctBeMLefB8TJyeVX7W2z/YqxCYadzKg+9JOJ/uKVXt/MBKe/0LBTTxZ3glKyb13dto2gH8EFgfPHIT6B089/pm/f62zrJ4V9o+6qo27MCifuRcfNsez7zCo5JkrehLV036ba7SfYptEPJmhRz5Glf/9yjIcu7Rj3bF/UKZre8XFkH+OBiXEr+N03f8yk3NX3Smbdbr7nXh7iEfUrZ7YrHbikihfU2NUzkVKSzEiEM4+rD0ZiJQhA3NDGKS8r00YsnImWMFhRd4aK1dMl78K/I2KrMzxmEp4sicl5t+rCL/7rFIQzifZscdstCWds3VipUsFDF6io4ocnoS78MT/H6DqxEoYZJlSZaK+r1w1AMM6R1TrRPlSNaJL9t30JSupYTr7PyrSTdHeSLF9WTaTc4k7qw1Ma3BJbHZKjdIJtV6MMityXaB8i+6TK7Im7IydkKOlvtK46RvK/bn+Lxixx3NSpJu7Eu5TtgyrdqghnrL0+JI6BLdFjkXjO7HEocA6fC1f3vpD9SgVVx3Bu45DP/fd2iTC7ZCJl/3IcL96kw0wuY/WGf602fYiVZ5l1zfUd/MlSyb5JdvIzKOGpC7njkPjrujs2zjY7oUqVrt3CiXt+f11Lv8+sjGOSPA66+Me4YN9K2k28f798rq+jxDEec2nH2OE9J3JKk5R9jJWicSj53Tfn/aAl50cReXX9uUBOu0vrV84UhTNKeAttfbem3NOZLMKZx/ZRvFOrZ7xw5DZ6QWDl01rWderdq+DEBiaT4Yxq98G/Bk1H9qOW2wfPWSCc6T5YIxP+3bpdKdIHErJU8mf5KRxbbbKTE/IqmMCfWzjT9UE9HgsbUsFE1l8kTNuTSwL1KqR+fNXYxu6Elduertftpwljuq6acfC7Lp/j7H97bNWjKpxJvZ56X3ing42NR8b7LJOd2IanG7iT7vCCn+3FQE1YkKpTqniCLfurVmuU9CHa77DdGXLCmaL+yrrtagRTT11QVdVTr+P2t3jM3P2X/22fJ1/rkHDGvpYq7sTbBgleu07dWEkdi6njdoxw5lw+F65TrJw5x3Eo0v1b99jhjKL/Whub1IRf+NUtaduVA10d+Tz5Ot4k1lJ/tXb+Cjxe172GjbrQsKqn9yM6mcneN9Vn1bbfj6+8Nq2ccUhM3CX71/Vw23ev/Isot2Mg++RNFosn7kr+cess+j6zlp64K5n7VtquGnf7PpPviXYlhBl7jvGYSzvGLif0iBxzK+sYK6X9zf7dp8x4P9jv4ZNzCKWgbvc+O1E4E7/mzOMhnLkMqWvOnIz5YC21quHpcAKDwa6rAObAXzYlywevwdW+zwAgT/tHDfXvxgJBNpDC++zycYzhWn7VjLZb27MJlgwB8yWuOfN4CGcuw9mFM9Li1wR5EuyqmVrut7/j7e3CD/plo1bDqOefJkk+V9f5PgOAceGppfy7gWPgfXb5OMYYKPljcWZdG+DYcqo/vLJyBos4x3DGDSpyLvB6GezKmXQp+2UTaY9/FQPX+D4DgHF2QpW81hmwAN5nl49jDI/9Y3POKUoFdW04o99np3ujsXIGizjPcEaRH0r1ITM/XQdzvZcgVFG/bNQdqsrY4EH9YlO34x67U9U1u8b3GQAAAPCYSr5zP73v56ycAQAAAAAAOCFWzgAAAAAAAJwQK2cAAAAAAABOiJUzAAAAAAAAJ8TKGQAAAAAAgBNi5QyS5t6B6V1z2z7vZX1ud24CAAAAAOD8RFbO7MV21Yjm7k7cNRv505iSunGEM6fxaf1a3Fe34ov6wTwyNC+ceRD36jltuRVvuO/yhfgsmupr+QtDljr8pJtt1Xtus41H9EH84Nn3xC99T5bn35jHLLPt2SvxnXkEAAAAOGf9ypm9DlruVNBiSypwKak7gXDmFD6KN5UJUBYPZ1g5c5mccObmQTReCkM4g1NwwpnvPRM/+GAebhHOAAAA4GnpVs5sVzZoacRmuxGrkcClpO4UwplTOG44g0tkA5i3opb/rZrP5nGFcAanYAOY5+Ir+d8vX7npDOEMAAAAnpZ+5cx2I5rV1gQs2/HApaTuBMKZx/PJrGgZKy+bj6a2E87UD+1pUC9toHNzK+6deq31i66NvrwQ78zmoY+y/Vvx0q1fyfq7oN0ie1Hf2ODgs2hkv/VKD/lYHQsOPot181ZUpo5aEVLV+0TAENbVba6jlWVd+dpe3ertoO6u0f2r1+YBa/1WP8cLQEr3TdrtvXpq/2qvTStnHPoAZt32W+6P2eJu855jXn90HHbv2+1qDNSYtfXadvp9VH3xlRy3U/tGfPU9Gxx8ED94/sys9JCPPY8FBx/Et6+eiy9NHbUi5Mvn3yQChrCubvNbbwWJJevK1/bqPns+qPvdK92/r8KzhL55rp/jBSCl+yZ9+Marp/bvK69NK2cc+gDm27bfcn/MFneb9xzz+qPj8OFVu12NgRqztl7bTr+Pqi++kuOmretKvner4ecfAAAAVylxt6aSwIVw5qmYHc4kyr07qSgKZ9zr0oRlLNCZYgKM+n37XxsIdCWY5K/rSB1VIitAknUjwUEbVMTqBqcDzQpnMvfNhh6DekEflLxxcAIY03bfv1g4MzYOTrBj26qCECkIldw+lxy30zMBxvNX7X9tINCVYJL/7fNIHVUiK0CSdSPBQRtUxOoGpwPNCmcy982GHoN6QR+UvHFwAhjTdt+/WDgzNg5OsGPbehaESEGo5Pa55Lhpa/k5vpHvW1mq5kyDRQAAADymxN2aCGcuW+FpTapUr8W7dgbhBCuJ5/YhUCJo6YKcWy/g+bSTbavXMT+X0wGGnqzLCf3ahAc7+7gTCpgARIUabqBgV2/4gYl5frBCZbd+L+rGf9fbwEUFBf0Kkb5dN0SZE860bUztmxOM+CtK9IoTL5zJHgc/gGkDki4MSYQztXwt28+Walf3q2vXCZHa/bX9MXUGY1R03PKtazNRTpXZE2gdYOjJupzQf2Nm9B/s404oYAIQFWq4gYJdveEHJub5wQqV7755Jb565YciNnBRQUG/QqRv1w1R5oQzbRtT++YEI/6KEr3ixAtnssfBD2DagKQLQxLhzHP5WrafLdWu7lfXrhMitftr+2PqDMao6Lj1+pUz895ZAAAAuCysnLlKpeGMH7K4pzvF5IczsnShzxJiQYWmQ4H+8fDnng1i3HezbdcJRaJsKBJrd7htXjgzvW9d4OHtQ1z+OAQBjOmj7nssnEnwnifZvgbtxl+npL9ljh/OuEGFpkOB/vHw554NYtxZvm3XCUWibCgSa3e4bV44M71vXeDh7UNc/jgEAYzpo+57LJxJ8J4n2b4G7cZfp/S4AQAAAHGsnLlKh10Q+OBwxn19p6i7Ox0W1ORO0G1QMlLCoGHtX+OkbmLXmxl/fR0s9KfozApncsKHMABJKhmHMIAxP7f9SYQzalWPd7pSX8JwptvXcN+9fZlx3E4ud4Jug5KREgYN3/jXOPnqVex6M+Ovr4OF/hSdWeFMTvgQBiBJJeMQBjDm57Y/iXBGrerxTlfqSxjOdPsa7ru3LzOOGwAAABDBypmrdOpwRvnYXmT4fhDS+Kc6lTliONP6rE9lcp7rX6z2PMKZZLsDJeMQCWDafqr9iWxzTleKFcKZ0NxJ/gd9KpPzXP9itecRziTbHSgZh0gA0/ZT7U9km3O6UqwQzgAAAOCUWDlzlc4hnHF9lM9xTnUa6dO4/ACjDUoOmsjboKAPW7rXj552Y+v321Ihir1+ytxwJh7uxOWPQySAMX2qmv1gmw6i9DavbS9skYrCmZL+ljn6aU0ZAUYblBw0kbdBQR+2dK8fPe3G1u+3pUIUe/2UueFMPNyJyx+HSABj+vTlq28G23QQpbd5bXthi1QUzixx3AAAAABWzlytLmBRAUpi1nmscEYFMS/lcz+5r7t73d9WO9ruTjTtBTRvRBWmGZ3y1SXtBXOnZt2796Jub5vthx2xcMWGEqoPfbPxCwLb4KG/0LBTT5bZ4Yyt27YR9CO4IHD+OMTCGfv8B1ElwpnauUaPu+pobjhTdNwKnEM4Y4OR9oK5UxnGh1fiq/a22X7FWLhiQwnVhz5AiF8Q2AYP/YWGnXqyzA5nupAoDEdk+8EFgfPHIRbO2Oc/E18mwpmvnGv0uKuO5oYzRcfNsWvs7zPu1gQAAAB35cx2Je5UyJIqbvhSUncC4cyJRG99nbiVdkY40wcyieK0MV73VryJzVR2jZzE28lyHVmZopQEGOOnyHj5z+gpOuEqmT4YGZQqs665Tsv8cEaywc+guCt9lNxxiIcz3tg422yIkipzw5mi43YWSgKM8VNk3MBl/BSdcJVMH4wMyrPMuuY6LfPDGckGP4PirvRRcschHs54Y+NssyFKqswNZ/L769rJ93Ef/p3f+xYAAACPrV85QzhzddoVLME1Xx4jnFGnMb0bvPbtxAWBl105o+mVKrHgJXyJ3fqtXh3S1ZHPU6s3zHbPbi/76oYTY3Xda9ioCw2reno/DgpnJL1Sxe9H7bVp5YxDIpyRutVCg1U1/kWU2zGQfVKPde0WhzNK/nE7vcIAQ0701UqVWPASTvK/++a5Xh3S1ZHPU6s3zHbPh2/ED5wVMON13WvYqAsNq3p6Pw4KZyS9UsXvx1dem1bOOCTCGalbLTRYVeNfRLkdA9kn9dj8cEbJP26ddS3fs4QzAAAA0BLXnHk8hDMAgGuzW9vVgFWwmg0AAADXKHHNmcdDOAMAuBb2WjO2VCQzAAAAkFg5AwDAI+kuBFzVYr3kVa0BAADwpLFyBgAAAAAA4IRYOQMAAAAAAHBCrJwBAAAAAAA4IVbOAAAAAAAAnBArZwAAAAAAAE6IlTO4ervmQdzcfC2qem8ewTX77tUz8Uvf+5748vk35hEAAAAAOC5WziDpXf198cWNLNVr8ck8luNdc9s+72Vd9ryl7dZvRVV93QYvttRrs7HzWTRdnbdisLnYXtTO67WlNPSR/Y73FYf47pvn4stn32uDF1u+GuQvH8QPujrPxbfm0fm+EV85r9eW0tBH9jveVwAAAACXIrJyZi+2q0Y0d3firtnInxL2W7GR9e5UvbY0YrUpX3lAOHMan9avxX11K76oH8wjQ/PCmQdxr57TllvxZmcefmR2NUxYYoHHsitnjhHOOAHSoC2zrXovTjTUT4JdDROWWOCx7MqZY4QzToA0aMtse/ZKfGceAQAAAHD++pUzex3K9GHLSDiz3+jwJlZWW1MpD+HMKXwUbyoToCwezpzDyhkbZjyIZv3ZPHYKJqhZMpxR++SlMIQz02yY8Uz84JsP5rFTMEHNkuGM2idvlwhnAAAAgKeoWzmzXdmApRGb7Uas1P9OrpzZilWzkvX6rfvtyjx/JbfmI5w5heOGM6c3MxRZ3MLhTPVW1PK/VeMGToQz02aGIotbOJx59lx8Jf/75Ss3nSGcAQAAAJ6ifuXMdiOa1daEMduJcCZOBzyNKDm7iXDm8XwyK1rGysvmo6nthDP1Q3sa1Esb6NzcinunXmv9omujLy/EO7N56KNs/1a8dOtXsv4uaHeWnFCk9PSjz2LdvBVVV/+hPQ1qPBDJ6Ydpt1sZ05dhOPNe1lWnYLnXxkmEM7u9aORx6/v7tXwN+Ty30u59u129zlrWbeu17cg2zc/DU73mjMOp5YQipacffRDfvnouvuzqP2tPgxoPRHL6YdrtVsb0ZRjOvJJ11SlY7rVxEuHMh2/ED57LPjrtfflMPs/LdV6129XrfCvrtvXadmSb5ufhqV7l47CuK/m+qZz3NwAAAIDE3ZoIZy7R7HAmUe7dyVVROONelyYsY4HOCBM02CAiWrwAoyycWddBXVtGV6xMhTOf0+3KEgtndmY/+9UzsXDGPBa0p4sT7Ni2Kvf6PA+itkGN+dk9jWreOJyACRpsEBEtXoBRFs58+zyoa8voipWpcOZDul1ZYuHMd2Y/+9UzsXDGPBa0p4sT7Ni2nrnX53kmvrJBjfnZPY2qfBzW8jNxI98zslTNmYd6AAAAwONJ3K1pTjgzL9AhnDmFwtOaVKlei3ftTMoJVhLP7UOgRNDSBTm3XsDzaSfbVq9jfi5SHM64JkIUc5qR2t4/XwUrOsRIrwDIbFf2y13Rou4y5bfrBzBtQNLtSyKcqd8G19vpg6CuXWfM2rDH9sfUsRdK7urPHodx69pM1lNlziS+OJxxTYQo5jQjtd0NQOxqkz5ECWW2K/vlrmhRd5ny2/UDmDYg6fYlEc48fx5cb6cPgrp2nTFrwx7bH1PHXii5qz9zHPqVM8VHFQAAALhYi62cmbNqRiGcOYXScMYPWdzTnWLywxlZutBnSTmnE7nG6+tQI3ab7anXGdtuV7dE2p0IZ/ztsXAmIWzXhjNBu/HXkT/OHodxRwlnPDmnE7nG6+tQI3ab7anXGdtuV7dE2p0IZ/ztsXAmIWzXhjNBu/HXOWQcAAAAAIQWWTlj7/JUeKOmFuHMKRx2QeCDwxn39Z2i7u60TFCzZDhjQ5SRkgxGMtqNPXcqnLE/t+0m2tnJ1/ZOV+pLGM50p0iZ1w1/9kIg00a0JMfh1JYMZ2yIMlKSwUhGu7HnToUz9ue23UQ7H+Rre6cr9SUMZ7pTpMzrhj97IZBpI1qS4wAAAAAgdODKGXX7bbViRgUzuRNhH+HMKZw6nFE+thcZvh+ENP6pTvM8hXDGbJsVzkhtHXU9mMi2iVO8CGemnCKcMdtmhTNSW0ddDyaybeIUL8IZAAAA4PQOWDmzF5vGBjPmoRkIZ07hHMIZ10f5HOdUp5E+5VkynBH6dJ5ZwUNO6DM8TWhwbZhYOGParpr9YJt9vtrm9TkMfYrCGdPuEQKYJ3la06zgISf0GZ4mNLg2TCycMW1/+eqbwTb7fLXN63MY+hSFM4eMAwAAAIDQzJUzNphpDgpmFMKZ0+gCFhWgJGa+xwpnVBDzUj73k/u6u9f9bbWj7e5E015I9EZUfWqRsGw4Yy+M294yuiglyAh9VLs2DFG3v3ZWp4yHM7ZfD/o23JFwpnYuCLxbvxe1aXtuODN/HMY9tXDGXhi3vWW0yS3yZIQ+ql0bhqjbXzurU8bDGduvZ/o23JFw5ivngsDfffNKfGXanhvOzB2HXWM/x9ytCQAAALD6lTPbVbsKJlmcoGa/0deYSZbMa9UohDMnEr31deJW2hnhTB/IJIrTxnjdW/EmNmPbNaLqJux15KK0roxwxgQPqdIFFK3xU3q8rKik3cTpR1X9tn18Kpzxnu9ssyFKqswNZ4rG4axkhDMmeEiVLqBojZ/S04coUkm7idOPvnz+vH18Kpzxnu9ssyFKqswNZ4rGobOT76E+eDvf9wwAAADwuPqVM4QzV6ddwRJc8+Uxwhl1GtO7wWvfTlwQeOGVM0XhjKJvGR0LU7zulLa7fq9Xvqjt1YNsS243ockgFImcUmRXyQxX1eiAR7+u7Lda7aJey223OJxRMsfhrCwdzij6ltGxMGV2OKN880qvfFHbnz2TbcntJjSZDGcku0pmuKpGBzz6dWW/1WoX9Vpuu8XhjJI5Dq51Ld8vhDMAAACAK3HNmcdDOAMA12O3tqvgKtEkw1gAAADguiSuOfN4CGcA4PLZa83YUpHMAAAAAB1WzgAAjq67EHBVi/WSV5QGAAAALgArZwAAAAAAAE6IlTMAAAAAAAAnxMoZAAAAAACAE2LlDAAAAAAAwAmxcgYAAAAAAOCEWDmDq7drHuQH4WtR1XvzCJDnu1fPxC9973viy+ffmEcAAAAAoBwrZ5D0rv6++OJGluq1+GQey/GuuW2f97Iue97Sduu3oqq+boMXW+q12dj5LJquzlsx2FxsL2rn9dpSGvrIfsf7egwL9PcCfffNc/Hls++1wYstXw3ylw/iB12d5+Jb8+h834ivnNdrS2noI/sd7+sxLNBfAAAAAK3Iypm92K4a0dzdibtmI3+K2283YtXIOqpeW7cRq802WT+FcOY0Pq1fi/vqVnxRP5hHhuaFMw/iXj2nLbfizc48/MjsapiwxAKPZVfOLB3O2PDoQTTJsTSvWb0X5cNNOBOyq2HCEgs8ll05s3Q4Y8OjZ+IHH9qtEeY1n70S35lH8hHOAAAAAEvpV87sdSjThS2j4cxWrNx6blltTZ08hDOn8FG8qUyAsng4cw4rZ5xAY/3ZPHYKJvg4cOVMFx41iX0x9ZPbs83s70VxAo1vkonGIzDBx4ErZ7rw6FViX0z95PZsM/sLAAAAoNWtnNmubMDSiI1aFaP+90g4s1ltxNbduN/o1TZ3K7k1H+HMKRw3nDm9cwkZlglnxO69qFQ7iZUx61puG11Zk4tw5nxChmXCGfHhlfhStZNYGfPtc7ltdGVNLsIZAAAA4BD9ypntRjQre1qSWRkzclpTjA54CGfO1SezomWsvGw+mtpOOFM/tKdBvbSBzs2tuHfqtdYvujb68kK8M5uHPsr2b8VLt34l6++CdmfJCRlMHbeM1v8s1s1bHZK05aE9DWo8D8nph2k3uDaOKv0pWGOnNpnXCIOb3V408rj1/f1avsZbsR7t8Hh/7QqewalhyZU7c8bs1HJCBlPHLaP1P4hvXz3XIUlbnrWnQY2fRpTTD9NucG0cVfpTsMZObTKvEQY3H74RP3gu++i09+Wz5+Lb0QBnvL92Bc/g1LDkyp3yMVvXlXyPVcP3JwAAAPAEJO7WVB7O7LerduVMs8l9hkY483hmhzOJcu9OgorCGfe6NGEZC3RG2NUlY8ULMMrCGb06JVJGr/MyFc58TrcrizvJLAtG3Isch2XsosfLhjPzxuwE7OqSseIFGGXhjF6dEimj13mZCmc+pNuVxQ1ByoIR9yLHYRm76PGy4Uz5mK3le/dGvr9kqZozDwABAACAocTdmnLCmb3YuBcElmVVGMwohDOnUHhakyrVa/GunfE4wUriuX0IlAhauiDn1gt4Pu1k2+p1zM9FisMZ10SIYsIHtb1/vgpWEmFFJ7Nd2S93RYu6y9SgXbt/QVvxU5o+i6Z+G1xvpw+C5va3KJyZPWbj1rWZgKfKnIl5cTjjmghRTPigtvfPV8FKIqzoZLYr++WuaFF3mRq0a/cvaCt+StMH8YPnz4Pr7fRB0Nz+FoUzM8esXzlT/A4AAAAATu6AlTPDcEYVVs48BaXhjB+yuKc7xeSHM7J0oc+SplashMbr61AjtuJk6nXGttvVLZF2Y+FMtL5pP3clSrRd1/j+lIQz88ds3FHCGc/UipXQeH0dasRWnEy9zth2u7ol0m4snInWN+2Prt5xRNt1je9PSTgzf8wAAACAp+uAlTM+dWttfUHgO1FywybCmVM47ILAB4cz7us7Rd3daZmgpjQAyAlRRsqsFTmm3dhzEyHKIByJhCKdnXztStcPy/HDmUPG7NRKA4CcEGWkzFqRY9qNPTcRogzCkUgo0vkgX/uZrh+W44czh4wZAAAA8HQtds2ZlrljU8nqGcKZUzh1OKN8bC8yfD8IafxTneZ5CuGM2VYQzoSnNumwJHKR4IlTvAhnxjyFcMZsKwhnwlObdFgSuUjwxClehDMAAADAcSy2cqZFOPNEnEM44/oon+Oc6jTSpzxLhjNCn6IzK0wYa9cGGMNTf9LXhnGfY/53pF/2+VUT3BkpFfp05oUz9joyg9OajhDAPMnTmmaFCWPt2gBjeOpP+tow7nPM/470yz7/y1fBnZFSoU9nXjhjryMzOK2JAAYAAABXZrm7Ne3lc9pr0DSi5LIzhDOn0QUsKkBJzGaPFc6oIOalfO4n93V3r/vbakfb3YmmveDnjajS6YKxbDhjQ4n2NtBFM/+M0McNNdTtr50VJ7Hd7AKSRq+OiZ3S1Ic7/bbd+r2oTdtzwxkb7tzUNnTpL/CrituX+WM27qmFMzaUaG8DHTmDKC0j9HFDDXX7a2fFSSxE6QKSV3p1TOyUpj7c6bd9980r8ZVpe244Y8OdX3puQ5f+Ar+quH2ZO2a7xv5+4G5NAAAAeHr6lTPblXdh30Fxg5qRulwQ+ImI3vo6cSvtjHCmD2QSxWljvO6teBObWe0aUXWT8DpyoVlXRjhjg4ZE8UOP8dN0vLCjpN3E6UdV/bZ9PBqieM+JnNIk2WAkVWb3145rWMy1bWaP2VnJCGds0JAofugxfpqOF3aUtJs4/ejL58/bx6MhivecyClNkg1GUmV2f+24hsVc22b2mHV28v3Wh3Tn+/4CAAAA4vqVMweFM41oVhuxLctlWoQzp9OuYAmu+fIY4Yw6jend4LVvJy4IvPDKmaJQQtGrRGJhyvywQ1q/F5UNMaoH2ZbcbgKY+G46ocfIaUO7Rgc8+nVlv9UKFvVaYbul/ZV9sytwVLt1o06d0uM9e8zOytLhjKJXicTClPlhh/TNK/GlDTGePZNtye0mgIkHGE7oMXLa0HevdMCjX1f2W61gUa8VtlvaX9k3uwJHtftVe+qUHu/ZY+Za1/K9RTgDAACApylxzZnHQzgDADjUbm1X11XRFWUAAADAOUtcc+bxEM4AAOay15qxpSKZAQAAwBPEyhkAwJPVXQi4qsV6yatPAwAAAI+IlTMAAAAAAAAnxMoZAAAAAACAE2LlDAAAAAAAwAmxcgYAAAAAAOCEWDkDAAAAAABwQqycAQAAAAAAOCFWzhxsJ5rqpr2V601ViXrNrVwBAAAAAEC+yMqZvdiuGtHc3Ym7ZiN/mrbfNOJO1ZdltTUPZrqocMaUem02AQAAAAAATOhXzux1KGNDlrbkhDP7jQ5yTLm+cKa3a2od0JDOAAAAAACATN3Kme3KBiyN2Gw3YpUVzuzFplHPWYmNWT1zzeFMt4qGcAYAAAAAAGTqV85sN6JZbU0Ys80KZ+zpTCqQcf93CcIZAAAAAABwzRJ3a8oIZ8zpTM1G1yCcUQhnAAAAAABAmcTdmqbCGXM6k7OdcEaxFweuRMNdmwAAAAAAQIZZK2d0ENMIs2imRThj7BpRO3dvqhpCGgAAAAAAkFa+ciY4nckinDF2a8IZAAAAAACQrXjljA1hpkoY3qRcWjizrs1pTWQyAAAAAAAgQ/HKGcKZMVwQGAAAAAAAlJl/t6YApzUphDMAAAAAAKBMv3JmuxqsfvHKRFBDOKMQzgAAAAAAgDL9yhnCmQUQzgAAAAAAgDKJa848nssKZ9aiVndpIpwBAAAAAACZEteceTyXE87sxLqp2ttnE84AAAAAAIBcrJw5mDmVSYUybeE22gAAAAAAIB8rZw7mhDNVJZo1yQwAAAAAAMjHyhkAAAAAAIATYuUMAAAAAADACbFyBgAAAAAA4IRYOQMAAAAAAHBCrJwBAAAAAAA4IVbOAAAAAAAAnFBk5cxebFeNaO7uxF2zkT/FbMVKbY+V5HPiCGcAAAAAAMA161fO7HUokxe0EM4AAAAAAAAsoVs5s13ZgKURm+1Ghy8T4UyzKYlh4ghnAAAAAADANetXzmw3olltTRhjVsYQzgAAAAAAABxV4m5NhDMAAAAAAACPIXG3prxwxr/WTCNWG7vyJh/hDAAAAAAAuGYHrZzxwhlbks+JI5wBAAAAAADXbObKmaH93lxEWJaS050IZwAAAAAAwDWbuXImYbsinAEAAAAAACiw2MoZZb9pCGcAAAAAAAAKLLRyZi/225Vo1HPuGlFyEyfCGQAAAAAAcM36lTPmlKRkcYOaZN1GrLamTibCGQAAAAAAcM36lTMHhTONaFYbsS1YMWMRzgAAAAAAgGuWuObM4yGcAQAAAAAA1yxxzZnHQzgDAAAAAACuGStnAAAAAAAAToiVMwAAAAAAACfEyhkAAAAAAIATYuUMAAAAAADACbFyBgAAAAAA4IRYOQMAAAAAAHBCrJzB1ds1lbi5uRFVvTaPAJhnLeqqlv8/ZmwbAAAAcN1YOXOm3tXfF1/cyFK9Fp/MY0m71+KlquuVF+Kd2Zzyrrlt676sM17jYu1EU9204czNDRNHYD77WZKfo515yLVbi/rIn7PduhaV/TxXjewRAAAA8DREVs7sxXbViObuTtw1G/nTuP12I1ZNI+5U/basxNZsy0E4E3f8cOZB3Hd1b8WbR5/F7MS6rkTVTtZ0qdRf1XfxjqjVLdWRJnWsnMkcXznxtceqL/J5ctyYBB/KCQkH70Oz7czDhnWt3w/NWCd3jf7MH+OzFr4/CWcAAADwhPQrZ/Y6lOlDlqlwZi82jVO3K34487Of/Uz82V98J37nYSv+7dd/0P5X/aweVwhn4orCGccnsxrmvFfO2L+gx0o8INATv+P9xf3aZY1vNJwxhYnwgdwVXGHA8QTCGfPeqEaTGc2GoUvnM/o9LNvN6AMAAABwbrqVM9uVDVcasVGrYdT/HglnbP1mtRHbfbyWCmC+/v234uuHt+LDd38lPv31/2n/q35Wj6vthDNxjxHOnIqdRA1WXOzWoqkbwpkTKAln3En1bm1WQkytmMAEG8DUopb/9UOOcw9nSvtnwtmF96d9DxMSAgAA4InqV85sN6JZbU0Ysx0PZ/ayrtou649592c/Fv/u97biL//6/w6Kelxtf+rhjA1RXjYfxaf1C+f0oltxLx9zpQKX7vH6wTziP/Zp/VrcV+bnSLuuyXBG9lFvd8tEkLN7kK9v21XlVrxU/TKbS+kgIGMyP7ZSwxR/EqsnffoxOWGs9V/o23p1OGmLrN5J/Clf/6Vf9Xcn1k3dn4olJ9LxfdCnbHltd+WQEKOk3aCvcvsgDCsd30g4o6RXQmT0oRPW1ccseu0SVTd6SpzZbCT7FV3lUfLeMdow0T0eVWLVRs449AHHuu23G5Qlwg/z+qPjYE4jUmPQvXfadvp9VH3xlRw3KTqe446xeoZwBgAAAE9Z4m5N4+HMfqNOf2rEJrWsxni9+UPxX//8f4kPf/U3g6IeV9svJZxJFRXaWLPCmURx23UtHs5E6+tyP3NipcMZWcYmfMrccEZOpgfBiyreTLA0nFET36B+W8LVJmYiPahny9xwpqzdbozD4k5ejxzOZPXBSNYdHJOxcfDHYFY4k/Xekey1UwZleHzzxsEJYEzbff+cbeaR8XFw3pO2rUqPhS6VqINQyT/M9vGgRI6bousXvq+PcO2Zth+JPgIAAADnLnG3pvFwRp/StBKb7Uo07nVnGvVY/4x/9uu/I97+z/8t/t7f/4eDoh5X2y8qnKlei3ftzOCjeNOtdOmDj9nhzES7rpLTmqbrOhcNrmSdbtajVwm9mT2vkhPhbmKpVhtMhDSSngCGQUjIDVzkZNEuIZi8S4zZnpgo2km+Kv0KArV6Qz/mPc0GHu4kcYm71JS0a+t2fVX0apNBf42s8Y2EM+3dcQ7ugx1/f2KtTplS7w1XdyzkOPQrRPp23WM4J5xp25h87/TBiL+iRK848ZvNHQc/gPGDhkQ4U8vX8pfJ6Oe57TohUru/tj+mzmCMio6bEutbjrnPS5D72R6npdoDAAAAHtmMlTOpCwH3xZ7t9Ku/9Z/FH+6+E3/6lz8dFPW42n4x4YwKL8xjrW7FSX8npFnhTEa7riXDmX77Me7mpCeyduKoSvo0FjNZnQw30iHI+PNtOBDf2gUC4fbIJD8VCOjHC1cXOEraTe9rej+zxteZ2PulGvSrrA/2uDmhSJSZ0EfbHW5LjVnsuPV9GLY92JeCVR/54xCEFaaPenNBkOE9T7J9DdqNv476UW7L6q+Venxa1ntugj3Gep9SpxkCAAAA52/Gypk+nGmvUdNV2Itte7qT3GbSme2f/lj8m//4X8SHn/zNoKjH1fbLCWeCC/c6t7e2p//MC2em23UtGc4k+7CwnVqd0E6sVYkHGHkTubkTxfHnFU3y7eTXXQWy5MqZyXZtSDFSIpP8rPG1ffBKbEI8ow+y7T6oU6upYkHd+HHS+9C/f2aFMznvHfP86aol4xAGMObn9kXCbUb7uXHCCad0fTPhTLev4b57+zLjuJWMW4BwBgAAAOjNXzmTsU3djem3f/jH4rd+94/Fjz7sxV/sf9r+V/2sHr+EuzURziynm2hFJnpPJpwZm+DOmMD2ctudM8HOHN8glOjv1BQ+b14f1PPaU5mc5/oXqx0/To8VziTbHSgZB1PXHZe2n2p/Ituc05VipevbhYczVvdenNEPAAAA4BwccM2Z2AWBh8GNCmD+5P134rd/dyv+9b//g/a/6mf1uHKp4UzslKB4Xee6LhnhTKxd15LhzNRrLc9M9CIT93DiHTd3ojj+vKJJvn0svADreMenFbTbjlVkDMdkja83kdfs2PhBx7w++GxQ4PbJHKfohN7W77eljpu9fsrccMaOQ7jPMfnjEAlgTJ+qZj3Ypo+X3ua1HR6jonDGtFt03GL9zjH3eWmHv+cAAACA05l1tyaxXenTl7zte/mwPq2pmbqNk+MSwxl16+vultru424YomYQuwfnAr+yTIQzqXZdS4Yz7iqd2AWBx27pnSYnnOr0g7W6ma9D3aY6clFXqw8Bgsmop2CC7Rl/Xkk4oyfNtVjL/ZH/t5iSdruxkh3O7UPW+IYT/5YZuyDYKerDrhF1e70hv2Js3G0ooY5VXzvx3jH97U8Fc+rJMjuc6fY5HC99HaV54xAPK/TzK32nMGebHYfaOffLXXXU7UZhOFN03Azdl6ngNGBX/mSNd562H4QzAAAAeKL6lTM2cEmVIIhJXhS4WQlzPeAsFxPOREuw4sQNO5zysjIhSSyciRa/3T5kSZRoQJQoQegzVj91O+9x/cQ2XlQAYaq67EQ7KLMn2In2bHHbjYUErXCiK9m6sVJViX3LUNauXUUSL9HhyRnfYCLfsc/1NhT0wU7Uo0Xum6mmjbx/1DiYWlqirll9NPu9oyTfP2FIkTsOiZUk7tg428beD6p07RaGM/n9dYRtZkh+pg5AOAMAAICnrF85UxTOKP1KGV0afYFgszXXZYYzt+Jl/RBf2bJ+4QQ0t3r1ib0DkxPOqFUy95Vsp6ur67ftBrOPY4Yziu1LXy+9f1l2a9HUlT8hlxPmqb/Wt7dtDiaOsyfYycm1Lm67JeFM1wf1eHSSGwYIuUrb1atEYqFHangmx9fs7/D5dkI/DCZy+zB8bfN+MNs95v2TV9e9ho29bbsey9nvHUOvVPH7ET99LWccEuGM1K0WCrbtvLudmTEw117p2i0OZ5TS9449/rnv7fS+HoJwBgAAAE9Z4pozj+cST2vCtXImqYMZotxmJtnxCe6YY7ULLCQMfUYcY9WMokOsueEnAAAAcFqJa848HsIZXA67ukVdd8SfpLa3C2+3FV6bo3WsdoHl6HBk4n1oT9M6QpJoVxiNX5cKAAAAOE+snDkQ4Qx6doVLuuSsLBg6VrvAkvoQMXptJRskHuvUI/f6PMd8HQAAAOAIWDlzIMIZ+Mz1OoIwRV20V92har5jtQssad3ejS2+LmZs2zLaa+7YzwjhDAAAAJ4QVs4AAAAAAACcECtnAAAAAAAAToiVMwAAAAAAACfEyhkAAAAAAIATYuUMAAAAAADACbFyBgAAAAAA4IQiK2f2YrtqRHN3J+6ajfwptBebRm5T21Ml+rw4wpnL8mn9WtxXt+KL+sE8Aoz5LJrqa/mLSJY6/K1htlXvuSUyAAAAgIvWr5zZ61BmOmQhnEHKR/Gm+r744kYWwhlkccKZmwfReCkM4QwAAACA69CtnNmubLjSiM12I1aFIUtru2rbaDb5zyKcuSSEMyhlA5i3opb/rZrP5nGFcAYAAADAdehXzmw3olltTRiznRHO2BU1K/nsfIQzj2z9Qocn1WvxSXwU7+pb/bMsL2v1WEjWaV6Il6aOrffOmS1/avo2UuVl89HUFvI1zeNtH3rd426wU9Bf+3z1Wp/k8/o+34p75/XL7UV9Y4ODz6KR/dMrPeRjdSw4+CzWzVtRmTpqRUhV7xMBQ1hXt7mOVpZ15Wt7dau3g7q7RvevXpsHrPVb/RwvACndN2m39+qp/au9Nq2ccegDmHXbb7k/Zou7zXuOef3Rcdi9b7erMVBj1tZr2+n3UfXFV3LctHVdyXrVcKwBAAAAoEDibk0zwpkZq2YUwplHZsOOmxfi3oYhbpET156zEmZQXoh3ptajhDMZ/e2enyj3syfQJsCo37f/tYFAV4JJ/rqO1FElsgIkWTcSHLRBRaxucDrQrHAmc99s6DGoF/RByRsHJ4Axbff9i4UzY+PgBDu2rSoIkWxQY352+1xy3LS1HLMbWUeWqhkNcQAAAABgTOJuTaXhzLxVMwrhzCPrwg4bWOjQpA9YYqHLrXhj6ondg7i3z/eCHCXvtKZ54YwuY/31whnZtl7dM9bfXDrA0JN1OaFfm/BgZx93QgETgKhQww0U7OoNPzAxzw9WqOzW70Xd+J88G7iooKBfIdK364Yoc8KZto2pfXOCEX9FiV5x4oUz2ePgBzBtQNKFIYlwppavZfvZUu3qfnXtOiFSu7+2P6bOYIyKjluvXznTPwsAAAAASi2zcmbmqhmFcOaROWGHu5qlf/xWvGnnmX3Q4tWTumAkCFeOHc6M99cNZ/rARom2WyQWVGg6FOgfD3/u2SDG/YzYdp1QJMqGIrF2h9vmhTPT+9YFHt4+xOWPQxDAmD7qvsfCmQTveZLta9Bu/HVK+gsAAAAAy1tg5cz8VTMK4cwji4Qacc6Kk2TxQ5DjhjNT/S1st0juBN0GJSMlDBrW/jVO6iZ2vZnx19fBQn+KzqxwJid8CAOQpJJxCAMY83Pbn0Q4o1b1eKcr9SUMZ7p9Dffd25cZxw0AAAAAFnT4yhmzauZuNSeaIZx5dIQzMxwxnGl91qcyOc/1L1Z7HuFMst2BknGIBDBtP9X+RLY5pyvFCuEMAAAAgKfowJUzdtVMI2ac0dQinHlk2WFH+rSmtEPCmcS1YZ5UOCO7q4KSgybyNijow5bu9aOn3dj6/bZUiGKvnzI3nImHO3H54xAJYEyfqmY/2KaDKL3Na9sLW6SicKakvwAAAACwvMNWzhy4akYhnHlkBWGHe0FgeyHeKV0QolbVJNr3Luar6uwe+lBHlScczthgpL1g7tRMf/de1O1ts/2wIxau2FBC9aFvNn5BYBs89BcadurJMjucsXXbNoJ+BBcEzh+HWDhjn/8gqkQ4UzvX6HFXHc0NZ4qOm2PXqAsC38jncbcmAAAAAPP1K2ds0JIqg6Dm8FUzCuHMIysIO9rVLG5oEpToipqu/ZG6u9fiZaxOZUKbJxzOdGGDqh8pbuAyfopOuEqmD0YGpcqsa67TMj+ckWzwMyjuSh8ldxzi4Yw3Ns42G6Kkytxwpui4dXbyOeZW2rLE6wAAAADAtH7lTGk4s8CqGYVw5pEVhTPKR/Guvo2HKYnTnT41L8TLINQJ636S/ejbvBX3arvt25MOZxS9UiUWvIQT+N36rV4d0tWRz1OrN8x2z24vGtluXl33GjbqQsOqnt6Pg8IZSa9U8ftRe21aOeOQCGekbrXQYFWNfxHldgxkn9RjXbvF4YySf9w661puJ5wBAAAAcJjENWceD+EMgKdqt25E1YYzVbByCAAAAADyJa4583gIZwA8NfZaM7ZUJDMAAAAADsDKGQAo1F0IuKrFuuQKwgAAAAAQwcoZAAAAAACAE2LlDAAAAAAAwAmxcgYAAAAAAOCEWDkDAAAAAABwQqycAQAAAAAAOCFWzgAAAAAAAJwQK2cOthNNddPeVvemqkS95ra6AAAAAAAgX2TlzF5sV41o7u7EXbORPyXst2Jj69nSrMRmm3xG1EWFM6bUa7MJAAAAAABgQr9yZq9DmS5oacOWVDizFSu3XlBWW1MtwyWd1rRrah3QkM4AAAAAAIBM3cqZ7cqGK43YbDc6fEmEM/uNDnGazdbbvt+udBsF6cwlhTPdKhrCGQAAAAAAkKlfObPdiGZlwxazMmYinBlmMOZ5hDPmZwAAAAAAgHGJuzWNhzNivzHXmmnEyqye2e/lcxr92Cb6pDjCGQAAAAAAcM0Sd2uaCGeU/caEMU5pVqLwesCXGc7cVKLhrk0AAAAAACDDvJUzrX17tyYvnGmvV1OWzlxWOCPtGlE7d2+qGkIaAAAAAACQNnPljNkui74osH+np2u9W1NrtyacAQAAAAAA2WatnLF3dmqCi8t0d2saXXHju7RwZl2b05rIZAAAAAAAQIYZK2f2YpO88K9dUbOS/yvPZYUzXBAYAAAAAACUOXDljL31tsbKGcIZAAAAAABQpl85Y4OVVHEDl4m613vNGcIZAAAAAABQpl85UxLOKPutWDX+3ZoabqVNOAMAAAAAAIokrjnzeC4rnFmLWt2liXAGAAAAAABkSlxz5vFcTjizE+umam+fTTgDAAAAAABysXLmYOZUJhXKtIXbaAMAAAAAgHysnDmYE85UlWjWJDMAAAAAACAfK2cAAAAAAABOiJUzAAAAAAAAJ8TKGQAAAAAAgBNi5QwAAAAAAMAJsXIGAAAAAADghFg5AwAAAAAAcEKRlTN7sV01orm7E3fNRv6UshcbWe9O1WtLI1ab7Uj9OMIZAAAAAABwzfqVM3sdyvRhy1g4sxUrt55bVltTJw/hDAAAAAAAuGbdypntygYsjdhsNzp8SYQztm7jrpTZb8WmMc8vWD5DOAMAAAAAAK5Zv3JmuxHNyoYtZmVMNJwZ2baXbbShTX46QzgDAAAAAACuWeJuTRnhTPT0pbFtcYQzAAAAAADgmiXu1jQWzuzN6Ut3YrV1tqrTmuw1axKnQ8UQzgAAAAAAgGs2Y+WMtF3pECZVCGcAAAAAAACyzFg5o+23K9GYFTQ6kFn1FxLmtCYAAAAAAIAs81bOpHBBYAAAAAAAgCKzV87E6FtscyttAAAAAACAXAusnNmL/V7Wt6c4FZzSpBDOAAAAAACAa9avnCm5yK85fWm0TibCGQAAAAAAcM36lTOzw5lGNM1KbPelsYxGOAMAAAAAAK5Z4pozj4dwBgAAAAAAXLPENWceD+EMAAAAAAC4ZqycAQAAAAAAOCFWzgAAAAAAAJwQK2cAAAAAAABOiJUzAAAAAAAAJ8TKGQAAAAAAgBNi5QwAAAAAAMAJsXIGV2/XVOLm5kZU9do8giUxvo9lLeqqlv8/ZmwbAAAAgFNj5cyZeld/X3xxI0v1WnwyjyXtXouXqq5XXoh3ZnPKu+a2rfuyzniNi7UTTXXThgc3N0xel7f0+K5F3bbllNLQZ123z7usrMiOsxzjnXnItbPjdrz3+E6Oa2WPddXIHgEAAADI5a+c2W/FZtWIu7s7Uxqx2uzNxtBebDcr0XR170Sz2spHyxDOxB0/nHkQ913dW/Hm0WdSOzlHrkRlJ9iyVOov+7t4R9Tqi+pIE0tWduSObyQY6UolmsR7aNnxPUY44wRIg7bMtjMPG9a16n/6GLR2jf68HeN9bsa0K4QzAAAAQJF+5cx+4wUtXlltdR3HdhWpp0qz8QKan/3sZ+LP/uI78TsPW/Fvv/6D9r/qZ/W4QjgTVxTOOD6Z1TDnvXJmbJIfDwj05PN4f/W/dnnjOy+cOR7TnyXDmcF+PIFwxuxPlXEAbFC2dD6j3z+y3cd/EwAAAAAXwVk5sxWrZiU22z5a2W9XJnRZya0O+7is31Xfq+frgKYxq21UAPP1778VXz+8FR+++yvx6a//T/tf9bN6XG0nnIl7jHDmVOxETq2k8OfBa9HUDeHMCRSFM8dYeTHLwuFMVYta/tcPOc49nCntnxmzhfenff+wWgYAAACYbfKaM3qFTCPcs5tij7Xs6huzeubdn/1Y/Lvf24q//Ov/OyjqcbX9qYczNkR52XwUn9YvnNOLbsW9fMyVCly6x+sH84j/2Kf1a3FfmZ8j7bomwxnZR73dLRNBzu5Bvr5tV5Vb8VL1y2wupYOAjJUW4akSkeJPpPXEUz8mJ621XiXQ1qvDiaOZpLolMcnXqw1Uf3di3dT9qVhyMh/fB33Kltd2Vw5ZYVLSbtBXuX0Qhs0c37wwJH98tYz+DuT0x7SrAoyubV36p/UBx7o91m5IlQg/2iAxdlqe2a6Y04jU63THrW2nf28OT/UqHIeCVTPWMVbPEM4AAAAAh5m8W9MwiNmKVeT0Jf96NXqlzevNH4r/+uf/S3z4q78ZFPW42n4p4UyqqNDGmhXOJIrbrmvxcCZaX5f7mZM7Hc7IMjbpVOaGM3UzDAZU8WajpeGMmnwH9dsSrjYxk/lBPVvmhjNl7XZjHBZ3An1G4UxWfwem+qPCrKA9p/RPcwIYE6j0+x0LZ8aOhfN+sG1VJphpSyVqL2Cbcdwcun7he+oI155p+zF6rAAAAACMmVg5Ewli7OqY7jo0e7H1LiKsig5z/tmv/454+z//t/h7f/8fDop6XG2/qHCmei3etbOTj+JNt9KlDz5mhzMT7bpKTmuarutcNLiSdbqZl14l9Gb23E5OqrvJrZysNlMrJOwkNPO0G9NuY5cxTN6pZnySb8MZVfpVDP3E33uaDTzcieoSd8opadfW7fqqqP6mV0yUj29QRifm4+M7p79aZruyb+6KFnVXIb9dP4Dxg4ZEOFPX/furFXk/2BBEljbssf0xdQYrWIrHIda3HHOflyD3sz0OS7UHAAAAXKHRlTPR05dMOKPuzOTfrUnd2Uk9poIa/Zxf/a3/LP5w953407/86aCox9X2iwlnVHhhHmt1K076OyHNCmcy2nUtGc70249xNyc56fRO31DBhz+JdpWFB8N6488fn+R34Uy43Uym3dUlqVNG9ONzV82UtZve1/R+lo1vpIxOzMfHd05/tbHtJoCItTsRzvjbC4KMsF0bzgTtxl9H/Zjob3I/p8YnLe94j+s+F+0+pU7xAwAAAJAjuXLGroYZ3Kgpclcn9xbabqCz/dMfi3/zH/+L+PCTvxkU9bjafjnhTHDhXuf21vb0n3nhzHS7riXDmWQfFrZTK0DaibQq8QCjKDwonqyOPy8VjNjJtXfqj52Au9e4WXLlzGS7NpQYKZGg4XTjO6+/Wka7secGociwrvm5rZBop33POuGEU7p27WlN9v0Rvl+8fswZh7nHQ720apNwBgAAADgXkZUz6jQlHbqsnDs39cypTm0os+nv1tTai017xyZ9zRl1N6bf/uEfi9/63T8WP/qwF3+x/2n7X/WzevwS7tZEOLOcbrIXmWw+mXBmbJI9YxLdy213ziT/lOM7r7/aWLtmW+y5k+GM1NZRQWFkm3O6Uqx07V54OGPt1mY8ZvQDAAAAgBasnLHhSmTFTMfWCU53UoK7NSkqgPmT99+J3/7drfjX//4P2v+qn9XjyqWGM7FTguJ1neu6ZIQzsXZdS4YzU6+1vPSEWk8mp04LmjtZHX/enJUzg4vAjnd8WkG77VjFQokRpxzfOf3Vxtq1YccwgND7OhHOmLarZj3YZp+vtnl99sIWqSicMe0WjUOs3znmPi9t/jEEAAAAoDgrZ/rQJR3MaPv2ujIqhFn1K2f2W7GaDHaGLjGcUbe+7m6p7T7uhiFqFrN7cC7wK8tEOJNq17VkOOOu0oldEHjslt5pctKrToFYqxsKO9Rtqu1dbCKTbRuQDCbEnuOEByXhjJ6412It90f+32JK2u3GSnY4tw/nML4l/dXG2+1DFNPozgQt6jmy9E+LhxW6X5W+S5ezzbZbOxdIUqtH7Kl5XbuF4cyccdB9mQrVAnblT2Lc5mj7QTgDAAAAzNatnOkCl1Txbp3dr7AZlJJkRrqYcCZaghUnbtjhlJeVCUli4Uy0+O32IUuiRAOiRAlCn7H6qdt5jzMT6mRRAYSp6jIT2bC4wUjXds6kM9GeLW67dtI8aDYSzti6sVJViX3LUNauXTUSL9HhOeH4FvW3pN3E6UdVrS9E3bebWEniPt/ZNnYsVOnaLQxnun6YdsISHfawzQzJ9/MBCGcAAACAw3QrZ8rCGSW8hba+W1N4ptOUywxnbsXL+iG+smX9wglobvXqE3sHJiecUatk7ivZTldX12/bDWZAxwxnFNuXvl56/7KoFQx15U+cK/mznC2OrRhQt0BuVzE4z/MnpacPZ7o+qMejE+1a1pijtF29EikWTqSG51Tjq2X2t7RddT0Uu0/yPdaudjGhSd9uIpyR7CqZcNvOu9OYee+aa6907RaHM0rpcbOBTu77Kr2vhyCcAQAAAA6TvFvTY7nE05pwrZyJ8mCWKreZiX58kj3mWO3iIoShz4hjrJpRdIg1N3gEAAAAELlb0+MinMHlsKtb1G2F/Ylye7vwdlvh9UFax2oXl0KHIxPvAXua1hFSPLvCaPyaRQAAAABSWDlzIMIZ9OwKl3TJWd0wdKx2cTn6AC96XSMb4h3r1CP3+jzHfB0AAADgQrFy5kCEM/CZa4YEYYq6aK+6Q9V8x2oXl2Pd3gktvi5mbNsy2mvu2Pcn4QwAAABQhJUzAAAAAAAAJ8TKGQAAAAAAgBNi5QwAAAAAAMAJsXIGAAAAAADghFg5AxzJrnmQH7CvRVXvzSMAAAAAAAyxcgYotFu/FVX1dRu82FIPboPzWTRdnbcL3CVnL2rn9dpSGvrIfsf7CgAAAAA4JX/lzH4rNqtG3N3dmdKI1WZsArgXW1m/UXWbjfypHOHMZfm0fi3uq1vxRf1gHrksdjVMWGKBx7IrZ44RzjgB0qAts616zy2RAQAAAODI+pUz+40OWWJltdV1rL0OZbw6hDMQH8Wb6vviixtZLjKcsWHGg2jWn81jp2CCmiXDGbVPXgpDOAMAAAAAj8VZObMVq2YlNtt+wrffrkz4spJbe9uVDWUaWX8jVoQzaF16ODMzFFncwuFM9VbU8r9V4wZOhDMAAAAA8Fgmrzmjg5hGeGc3bTeiWW1NGLMlnHlK1i90eFK9Fp/ER/GuvtU/y/KyVo+FZJ3mhXhp6th675wZ+6embyNVXjYfTW0hX9M83vah1z3uBjsF/bXPV6/1ST6v7/OtuHdef76cUKT09KPPYt28FVVX/6E9DWo8EMnph2m3WxnTl2E4817WVadgudfGSYQzu71o5PHp+/u1fA35PLfS7n27Xb3OWtZt67XtyDbNz8NTvcrHYV1Xsl7l7A8AAAAAPE2Td2uKhjMewpknxYYdNy/EvQ1D3OKteHFWwgzKC/HO1HqUcCajv93zE+V+ziTeBA02iIgWL8AoC2fWdVDXltEVK1PhzOd0u7LEwpmd2c9+9UwsnDGPBe3p4gQ7tq3KvT7Pg6htUGN+dk+jKh+HtRyDG1lHlqoZDXEAAAAA4NxNrJzJCV4IZ56ULuywgYUOTfqAJRa63Io3pp7YPYh7+3wvyFHyTmuaF87oMtZfL5yRbevVPWP9zVAczrgmQhRzmpHa3j9fBSs6xEivCMlsV/bLXdGi7jLlt+sHMG1A0u1LIpyp3wbX2+mDoK5dZ8zasMf2x9SxF0ru6s8ch37ljLOTAAAAAPAEja6cmV41oxDOPClO2OGuZukfvxVv2rluH7R49aQuGAnClWOHM+P9dcOZPrBRou3OknM6kWu8vg41YrfZnnqdse12dUuk3Ylwxt8eC2cSwnZtOBO0G38d+ePscQAAAACAy5BcOWPvxhTeqGmIcOZJiYQacc6Kk2TxQ5DjhjNT/S1sd5YlwxkbooyUZDCS0W7suVPhjP25bTfRzk6+tne6Ul/CcKY7Rcq8bvizFwKZNqIlOQ4AAAAAcBkiK2fUbbLVihkVzORMQglnnhTCmQM8hXDGbJsVzkhtHXU9mMi2iVO8CGcAAAAAYJ5g5cxebBobzJiHJhHOPCnZYUf6tKa0Q8KZxLVhLjackbvmXeOlRE7oMzxNaHBtmFg4Y9qumv1gm32+2ub1OQx9isIZ0y4BDAAAAIAr5qycscFMUxDMKIQzT0pB2OFeENheiHdKF4SoVTWJ9r2L+ao6u4c+1FHlSsIZe2Hc9pbRRclERuij2rVhiLr9tbM6ZTycsf160LfhjoQztXNB4N36vahN23PDmbnjsGvUBYFv5PO4WxMAAACAp61bObPf6GvMJIsbvmxX8Tq2FAQ1hDOPrCDsaFezuKFJUKIrarr2R+ruXouXsTqVCW2ecjhjgodU6QKK1vgpPX2IIpW0mzj9qKrfto9PhTPe851tNkRJlbnhTNE4dHbyOeZW2rLE6wAAAADA09CtnCGcuRJF4YzyUbyrb+NhSuJ0p0/NC/EyCHXCup9kP/o2b8W92m77djXhjKJvGR0LU7zAobTd9Xu98kVtrx5kW3K7CU0GoUjklCK7Sma4qkYHPPp1Zb/Vahf1Wm67xeGMkjkOrnUttxPOAAAAAHj6kndreiyEMwDm2K0bUbXhTCWarKARAAAAAM5T5G5Nj4twBkAJe60ZWyqSGQAAAABPHCtnADwp3YWAq1qsy66kDAAAAABniZUzAAAAAAAAJ8TKGQAAAAAAgBNi5QwAAAAAAMAJsXIGAAAAAADghFg5AwAAAAAAcEKsnAEAAAAAADghVs4cbCea6qa9te9NVYl6za19AQAAAABAPn/lzH4rNqtG3N3dmdKI1WZvNgZK6o64qHDGlHptNgEAAAAAAEzoV87sN6LpgpagrLa6jlVSd8Ilnda0a2od0JDOAAAAAACATM7Kma1YNSux2farX/bblQldVnKrq6TuuEsKZ7pVNIQzAAAAAAAg0+Q1Z7YrFbg0IueMpZK6FuEMAAAAAAC4ZpN3ayKcKUE4AwAAAAAAykysnNmKlTpVqdmI6bylpG7vIsOZm0o03LUJAAAAAABkGF05c+xVM8plhTPSrhG1c/emqiGkAQAAAAAAacmVM1tzm+ycmy+V1A1dXjizJpwBAAAAAADZIitn9mYVjApbppbBlNSNu7RwZl2b05rIZAAAAAAAQIZg5cxebBobtpiHkkrqpl1WOMMFgQEAAAAAQBln5YwNW5qCYCan7jjCGQAAAAAAcM26lTP7jb5uTLI4d2EqqTuFcAYAAAAAAFyzbuUM4cwSCGcAAAAAAECZ5N2aHstlhTNrUau7NBHOAAAAAACATJG7NT2uywlndmLdVO3tswlnAAAAAABALlbOHMycyqRCmbZwG20AAAAAAJCPlTMHc8KZqhLNmmQGAAAAAADkY+UMAAAAAADACbFyBgAAAAAA4IRYOQMAAAAAAHBCrJwBAAAAAAA4IVbOAAAAAAAAnBArZwAAAAAAAE7IXzmz34rNqhF3d3emNGK12ZuNvv12I1aNrSdLo+puRbx2GuEMAAAAAAC4Zv3Kmf1GNF0oE5TVVtfpbMUqVk+VQd1xhDMAAAAAAOCaOStntmLVrMRm26992W9XJnRZya0utcJmI5yqTrgT1h1HOAMAAAAAAK7Z5DVntisVuDQicXaTR9clnAEAAAAAAMg1ebem3HBGrbJRK2eanBTHQTgDAAAAAACu2cTKGXNtmWYTudDvXmzcCwLLkrp48BjCGQAAAAAAcM1GV86Mr5oZhjOqsHIGAAAAAAAgX3LlzNbcUjv35kvq1tr2bk8lN2winAEAAAAAANcssnJmb1bMqJCl8DQlc8emktUzhDMAAAAAAOCaBStn+lOVSla/dAhnAAAAAAAAijgrZ2ww08wKZvb7rViZ55dcdoZwBgAAAAAAXLNu5cx+o68xkyzuHZu2q3gdWbggMAAAAAAAQL5u5cxh4UwjmtVGlF6iRiGcAQAAAAAA1yx5t6bHQjgDAAAAAACuWeRuTY+LcAYAAAAAAFwzVs4AAAAAAACcECtnAAAAAAAAToiVMwAAAAAAACfEyhkAAAAAAIATYuUMAAAAAADACbFyBgAAAAAA4IRYOYMLthNNdSNubirR7MxDeHS7ppLH4EZU9do8gtNbi7qq5f+PGdsGAAAA4BhYOXOm3tXfF1/cyFK9Fp/MY0m71+KlquuVF+Kd2Zzyrrlt676sM17jROzEfta8fteISj63DQZIZ07EBmSqLDHhX4vaHNOulL451nX7vMfJihbo7+LsMZHHI/ax2Nk+Hy+g2cljUNn3RdXIHgEAAADXzV85s9+KzaoRd3d3pjRitdmbjWn7Tf+c1dY8mIlwJu744cyDuO/q3oo3jz472sk5ctWFJ6pUdTOYLB4Uzpxw5Yzqd3XEye3S8vobCRq6kh7jZVfOLB3O5LxHzGvOChHOL5xZ16ofE58JG2weo69m/LtCOAMAAADI78Z25cx+I5oulAnKWOISPC+s+rOf/Uz82V98J37nYSv+7dd/0P5X/aweVwhn4orCGccnsxrmvFfOuKspwuIHBIeFM6ejJ8BPJ5zJ6++8cOZ4TH8OCmec8Ci1A6b+4auvZvZ3SQX7cqzPnn6vyXYf/w0DAAAAnC1n5cxWrJqV2Gz7lTL77cqELiu5NWYvNo3evjGrZ9xwRgUwX//+W/H1w1vx4bu/Ep/++v+0/1U/q8fVdsKZuMcIZ07FTvrUX8z7lTJqJY2etLmTV8KZx1EUzpzNwVgmnJFvMr1KJLGCQ4/NEuHTqcfPhKLZK1VMfxde2dKOJ6tlAAAAAM/kNWe2KxW+NCJ2dpM9nUkFMu7/tt792Y/Fv/u9rfjLv/6/g6IeV9ufejhjQ5SXzUfxaf3COb3oVtzLx1ypwKV7vH4wj/iPfVq/FveV+TnSrmsynJF91NvdMhHk7B7k69t2VbkVL1W/zOYyZsIXDQKca2HYR9pwRk+Md03dnwZV1cPJcni6hFPi8+GdWLttytdRp94kJ427tWhqEyyZ+t5f/0de35bDVl/oU8Fi7Q7Dg4x9K+5vSbhgj7NTRp9XeCxaOf0x7UZWavVPGzu1KRFQmPdC3185VuoiuqMdHu9vMohMrnYpHLNkO2nHCEcJZwAAAIChybs1JcMZczpTYzbEwpnXmz8U//XP/5f48Fd/MyjqcbX9UsKZVFGhjTUrnEkUt13X4uFMtL4u93MmbBMTxHAyaMOZqoqFEsFkeiRsiE0u9YqISIlNHJ2LC/vF6UNx2FFi7FQwVfyxyNq34v4eL5wpOhadqf6oMCtozynu08qCkfzT8nzLhjOlY6brxwKoEUe49kzbD8IZAAAAwDOxcmYrVnd34q7ZCD+bMaczOY/Hwpl/9uu/I97+z/8t/t7f/4eDoh5X2y8qnKlei3ftjOOjeNOtdOmDj9nhzES7rpLTmqbrOhcNrmSdbjalVwm9mTNfMxPN5Fwv2G4nrKr0qwLUigH9+FTYMTXhVZPOvgU1mY/V7yfj/soEvXIh1gU9EZ46TaiA7a87qU3dVado37S8/kYCF1sOCVFm9FfLbFf2zV3Rou4UNGg3EULEAw35fqjlcfeWyaj+qrrz+1sUzhSPmXkPF4cic5+XIMe5HYOl2gMAAAAuxOjKmdSqGR3E+I/Hwplf/a3/LP5w953407/86aCox9X2iwlnVHhhHmt1K076OyHNCmcy2nUtGc7025e7m1NyAmoFE1FbfxjCmInuxCQv9XrpMCIygZ6xemDpcCa1H/rx2KqZzH0z8vprnh8ro8dhPJSY019tbLsN1CLtxsKZaH3Tfm6QEG3XNb4/yc9GJJwpH7OpsUxb4r1s960tsVMSAQAAgCuXXDmzNbfUdsOWVnA6kxULZ7Z/+mPxb/7jfxEffvI3g6IeV9svJ5wJLtzr3N7anv4zL5yZbte1ZDiT7MMhpiawwfbkhNVOpmeFM3YiPlLcdicn3UNLTGg9pg83tdOv6MqZwn0zisKZkoFojT1vXn+1jHZjz00cz8F7xdSLrs5SYx891W7sfTI+fvnhzJwxm3vs1MurNglnAAAAgGOKrJzZmxUzKmgJlsxINoSZKiq8UXdj+u0f/rH4rd/9Y/GjD3vxF/uftv9VP6vHL+FuTYQzhcYmvFI4QU1OWMcm347488smt+k+pC0ezoz12evYnIl7bn/nTvAzQhS3f2FJHuOxds222HMT4Yw80N4KKX3cI9dosfUSJT084+OXfJ9dQDhj7dbLX8MGAAAAuATByhl7a+zIihmjJJxRVADzJ++/E7/9u1vxr//9H7T/VT+rx5VLDWdipwTF6zrXdckIZ2LtupYMZ6ZeaxY7sY1OuM0E0pkIJiesmacapZ7fTjiTk/7ARKAUoye0hRdfHWP74K3WCO4WZRTtm5HX37kT/PHnzemvNtauDTCGoYLe11iI4j7H/O9Iv+zzq8a93ouUCn064+OQfq/qx933X/mYpfdn3Nznpc0/3gAAAMDlclbO2GCmSQYzY2KnNeW4xHBG3fq6u6W2+7gbhqiZye7BucCvLBPhTKpd15LhjLtKJ3ZB4LFbeo+xk1s1Se2aVLcmbifG/iS0n7A6UzmnbnoirKUmvPbx9gK/TtNxNjQKJ+TpCwJ37YcT+Jn0mNViLTs71d+yfdPy+nuccGZOf7XxdvsQxTTqvG9UiT3N9qVudPgXC+Rsu+57Uq0IqSffkxPjZ8Kd/tS1/gK/qsQ+FyVjpvtdGBjOuN7SlLYfhDMAAACAp1s5M7kiZnDHJt/VhzPREqw4ccMOp7ysTEgSC2eixW+3D1kSJRoQJUoQ+ozVT93Oe9LYaSHBpM1OQqMlY8LYTbYHVe0qiXgZ1LcT50FJTHYT9WOT/Rxj41BVKrQxFVuF+6Zk9bcgnEmOly5+uwX9LWk38T6r6rp9PLob3nPix3b0PSnL7P7a8Q2LWS01e8ws0xe/nXHpz898hDMAAADAULdyhnBmnniIcite1g/xlS3rF05Ac6tXn9g7MDnhjFolc1/Jdrq6un7bbjCrOWY4o9i+9PXS+5dNrWJwVgXoU3QiqzZMvcqdiMrJaux0npjxyaVemRCbwMfq69URYZ/T/VC3bPb6LUvJxNjXT9zDNnUJT98p2zdlur/HCmeUzP6WtquucWL3Sb1vVIplApjUe6ILPUYChF2jAx79urLfsjF7PZWD+iv7Zlfg9J8JPe6zx6xj9214qlecqb9wkEI4AwAAAAwl79b0WC7xtCacDx3OLHjtl5NwJtWD/ZDbutNszENAigmLhkHP0DFWzSj69KrcgAgAAAC4DpG7NT0uwhksQ4UUKrxwJp07u9rkqU8E+/1ogguM7Lp9fOoBFB5L1rVn7OldR0j89OurgCiyUg4AAAC4UqycORDhzLmwq0uGJWeVwHlL75stT38f8Xic0DL2trGB37FOPQqvBcQpTgAAAAArZw5FOHNG1KTSvSaMvcbIRTDXFwlCGnUx4OZi9hGPR31WUivKxrYto70+j30vE84AAAAA8rsxK2cAAAAAAABOhpUzAAAAAAAAJ8TKGQAAAAAAgBNi5QwAAAAAAMAJsXIGOJJd8yA/YF+Lqt6bRwAAAAAAGGLlDFBot34rqurrNnixpR7c2uazaLo6bxe4881e1M7rtaU09JH9jvf1GBboLwAAAABcCX/lzH4rNqtG3N3dmdKI1SY2odqKVVcnKM1GTsvyEc5clk/r1+K+uhVf1A/mkctiV8OEJRZ4LLtyZulwxoZHD6JJ3sfYvGb1fsatjglnAAAAACBXv3JmvxFNLGxRZbXVdTqEM4j5KN5U3xdf3MhykeGME2isP5vHTsEEHweunOnCoyaxL6Z+cnu2mf0FAAAAgCvhrJzZilWzEpttP4Hab1cmdFnJrS4dzjTRVTVlCGcuyaWHM+cSMiwTzojde1GpdhIrY9a13Da6siYX4QwAAAAAjJm85sx2pcKZRvg5DOHMk7V+ocOT6rX4JD6Kd/Wt/lmWl7V6LCTrNC/ES1PH1nvnTNg/NX0bqfKy+WhqC/ma5vG2D73ucTfYKeivfb56rU/yeX2fb8W98/rz5YQMpo5bRut/FuvmrQ5J2vLQngY1nofk9MO0G1wbR5X+FKyxU5vMa4TBzW4vGnl8+v5+LV/jrViPdni8v3YFz+DUsOTKnfIxW9eVrFcNXwMAAAAAzsDk3ZoIZy6MDTtuXoh7G4a4xVvx4qyEGZQX4p2p9SjhTEZ/u+cnyv2cibldXTJWvACjLJzRq1MiZfQ6L1PhzOd0u7K4AUVZMOJe5DgsYxc9XjacKR+ztXz9G1lHlqoZDXEAAAAA4BQmVs6Ya8sMriNjHndLoy4evA3qTSOceWRd2GEDCx2a9AFLLHS5FW9MPbF7EPf2+V6Qo+Sd1jQvnNFlrL9eOCPb1qt7xvqboTiccU2EKCZ8UNv756tgJRFWdDLblf1yV7Sou0wN2rX7F7QVP6Xps2jqt8H1dvogaG5/i8KZmWPWr5yJHykAAAAAOKXRlTPxVTNKJJyxhQsCnzcn7HBXs/SP34o37fy1D1q8elIXjAThyrHDmfH+uuFMH9go0XZnmVqxEhqvr0ON2IqTqdcZ225Xt0TajYUz0fqm/dHVO45ou67x/SkJZ+aPGQAAAACcr+TKma25pfbgRk0J+/2mC2xKTncinHlkkVAjzllxkix+CHLccGaqv4XtzlIaAOSEKCNl1ooc027suYkQZRCOREKRzk6+dqXrh+X44cwhYwYAAAAA5yuycmZvVsyoYCY/ZGmZuzsRzpwxwpkDPIVwxmwrCGfCU5t0WBK5SPDEKV6EMwAAAAAwT7ByZi82jQ1mzEMF9hu92oZw5oxlhx3p05rSDglnEteGudhwRu6aOkVnVpgw1q4NMIan/qSvDeM+x/zvSL/s86smuDNSKvTpzAtn7HVkBqc1EcAAAAAAuDDOyhkbzDQzgpm92G9XornTzy+5iRPhzCMrCDvcCwLbC/FO6YIQtaom0b53MV9VZ/fQhzqqXEk4Y0OJ9jbQRWlDRujjhhrq9tfOipNYiNIFJI1eHRM7pakPd/ptu/V7UZu254YzNty5qW3o0l/gVxW3L3PHbNeoCwLfyOdxtyYAAAAA56dbOWNXvSSLe6Ffc/rSsJQHO4Qzj6wg7GhXs7ihSVCiK2q69kfq7l6Ll7E6lQltnnI4Y4OGRPFDj/HTdLywo6TdxOlHVf22fTwaonjPiZzSJNlgJFVm99eOa1jMtW1mj1lnJ59jbqUtSzpEAgAAAIDT6FbOHBbONKJZbUTpJWoUwplHVhTOKB/Fu/o2HqYkTnf61LwQL4NQJ6z7Sfajb/NW3Kvttm9XE84oepVILEyZH3ZI6/eisiFG9SDbkttNABMPJ5zQY+S0oV2jAx79urLfagWLeq2w3dL+yr7ZFTiq3bo9dUqP9+wxc61ruZ1wBgAAAMB5St6t6bEQzgA4tt26EVUbzlTRVUEAAAAAcEqRuzU9LsIZAMdirzVjS0UyAwAAAOAMsXIGwMXqLgRc1WJddtVlAAAAAHg0rJwBAAAAAAA4IVbOAAAAAAAAnBArZwAAAAAAAE6IlTMAAAAAAAAnxMoZAAAAAACAE2LlDAAAAAAAwAmxcuZgO9FUN+3tem+qStRrbtcLAAAAAADy+Stn9luxWTXi7u7OlEasNnuzMW6/3YhV4z5nJbZmW46LCmdMqddmEwAAAAAAwIR+5cx+I5ouYAnKKha37MWmidS9unCmt2tqHdCQzgAAAAAAgEzOypmtWDUrsdn2K2X221UycNmudBjTrDZiux9fXTPmksKZbhUN4QwAAAAAAMg0ec0ZHcI0wju7ya6yia6oKUM4AwAAAAAArtnk3Zpi4cx+o64xEwQ2MxHOAAAAAACAazaxcmYrVmqFTLMRbg6jAxt1CtRKNO51Z4LTonJcZDhzU4mGuzYBAAAAAIAMoytnoqc0JS8E3JeSs50uK5yRdo2onbs3VQ0hDQAAAAAASEuunNmaW2oPg5Y+nGnkxv5awHuxbU93ktsK0pnLC2fWhDMAAAAAACBbZOXM3qyYUcFM7BQlE84EpzppY9viLi2cWdfmtCYyGQAAAAAAkCFYOdOvihlb/BI/3Um59nCGCwIDAAAAAIAyzsoZG8w009eM2a706UteCKNW3OjTmpqC2zgRzgAAAAAAgGvWrZzRt8fWq2aiJQhi7AqbYb2VKLgeMOEMAAAAAAC4at3KmbJwRulXyujS6AsEm625CGcAAAAAAMA1S96t6bFcVjizFrW6SxPhDAAAAAAAyBS5W9PjupxwZifWTdXePptwBgAAAAAA5GLlzMHMqUwqlGkLt9EGAAAAAAD5WDlzMCecqSrRrElmAAAAAABAPlbOAAAAAAAAnFC7cmb/J5+OUnIQzgAAAAAAgGvWrpyJBStLlByEMwAAAAAA4JqxcgYAAAAAAOCEWDkDAAAAAABwQqycAQAAAAAAOCF/5czDD8Vv/NN/LO7u7kz5x+Jf/Op/9wKX/Z/8d/Eb/6/dnij/72+I/ybr5iCcAQAAAAAA16xfOfPwG+Ifx4IWVf7pDwlnAAAAAAAAjsBZOfND8S/+338pfuO3+pUy/+23/qUJXP6l+KF5bLSY+v/YrLbJQTgDAAAAAACu2eQ1Z374T1U484/FbzzEt/fFrqjpg5wchDMAAAAAAOCaTd6tKTucCVbNqJKDcAYAAAAAAFyziZUzPxT/wrmGTLyOKsNVM6rkIJwBAAAAAADXbHTlzCGrZlTJQTgDAAAAAACuWXLlzA/NLbX/xW8Nt/klvmpGlRyEMwAAAAAA4JpFVs78d7NiRgUz/kqYaLF3dPJut61LDsIZAAAAAABwzYKVM3YVTM6KGVVs/fipTzkIZwAAAAAAwDVzVs70QUteMCPLyKoZVXIQzgAAAAAAgGvWrZz5b7+qrzGTLIM7No2vmlElB+EMAAAAAAC4Zt3KmeJwZmLVjCo5CGcAAAAAAMA1S96taYmSg3AGAAAAAABcs8jdmpYrOQhnAAAAAADANWPlDAAAAAAAwAmxcgYAAAAAAOCE2pUzNzc3Ryk5CGcAAAAAAMA1a1fOxIKVJUoOwhkAAAAAAHDN2pUzp0Q4AwAAAAAArlm7cuaUCGcAAAAAAMA1Y+UMAAAAAADACZ3hypmdaCpz3ZqqEvV6Zx4HAAAAAAC4PP7Kmf1WbFaNuLu7M6URq83ebAyYuk1XV5ZmJTbbRP2E0XDGlHptNgEAAAAAAFyYfuXMfuMHLW5ZbXWdzlasYvVMGVQfMXZa066pdUBDOgMAAAAAAC6Us3JmK1bBypf9dmUCl5Xc2ttv9OqaZrMV7jqZrn5BOjMWznSraAhnAAAAAADAhZq85sx2pcKZRrhnN9lwZpjBmBU1hDMAAAAAAOD/394dHDcKQwEY3rpcUGpwGSqDCnykCm7pQE1olyAwJgKb3WyUge+b4WLI5P7P0xMveXpbUynO3I9A9TtphumZGPvJm8K3T4gzAAAAwJk9mZzJkzChfTi+9CG2OcbMntCknfuAX4szvy4puLUJAAAAOKDNyZni1MwkLm52yt/+821NC+8hvc1ub7oEkQYAAAA4jtXJmS6Hl/L6mPttTcNS4Dh9v/43Zc/jzE2cAQAAAA6rMDnTh5YxspSnYMb3YTFSM93WVDoGteJZnLm95WNNmgwAAABwQIvJmZjavEdmffpl/KZ03GmcqHm8envLdpyxEBgAAAA4ttnkzD26PDuWdJ+cGW5qGn395Iw4AwAAABzbNDkT2+Vy38UzDy5jhFl5vm7njDgDAAAAHNs0ObMrzvRil5rw+Dfhf12lLc4AAAAAB7V6W9N32Y4zt/TW39IkzgAAAAAHVbit6Xut///3dAuXj+uzxRkAAADgqH7g5Ew+ytRHmY/HNdoAAADAcf3AyZlZnLlcUrgpMwAAAMBx/fCdMwAAAADH9oN3zgAAAAAcnzgDAAAAUJE4AwAAAFCROAMAAABQkTgDAAAAUNFjnIldapuQrtdrfkJq2phfLsXCt92fX/cRZwAAAIAzu8eZ2KYwhZbF03TDN5MuNaXv+ufTt9vEGQAAAODMZpMzXWpCk9ruPvsSuyZHl+bP27uuGUJMmE/K9FM3of89pNVhmwJxBgAAADizpztnhhAzDy55aia0n48w5embsKPOiDMAAADAmf19nCkeX9p6VybOAAAAAGf2JM6UpmRiPr50Tc3sCNTDMuHSVM0KcQYAAAA4s80483lqJpt20aw84gwAAADAS1bjTJenYNZOKPXLgkOeoBmCTL9MuHWsCQAAAGCHQpyJeWJmcWzpFRYCAwAAAOyyiDPzfTL5px1Wj0FtEGcAAACAM5vFmTHMhJ1hJqYYu9SMR5x2Vh1xBgAAADizKc7ENt+0tPbMl/zm40ub37xInAEAAADO7AviTEghNKmLe7PMQJwBAAAAzqywEPh7iTMAAADAmYkzAAAAABWJMwAAAAAViTMAAAAAFYkzAAAAABWJMwAAAAAViTMAAAAAFYkzAAAAABWJMwAAAAAViTMAAAAAFYkzAAAAABWJMwAAAAAViTMAAAAAFYkzAAAAABWJMwAAAAAViTMAAAAA1aT0Gyq422mJYwZ3AAAAAElFTkSuQmCC;" vertex="1" parent="Z4MrF43F7MTzpPwPq6Oa-1">
          <mxGeometry x="390" y="450" width="365.7" height="220" as="geometry" />
        </mxCell>
        <mxCell id="Low0I9aI6rUCc1eLQkSp-0" value="@RequestBody allows u to retrive request body and automatic converted to java object" style="rounded=0;whiteSpace=wrap;html=1;" vertex="1" parent="Z4MrF43F7MTzpPwPq6Oa-1">
          <mxGeometry x="650" y="330" width="210" height="120" as="geometry" />
        </mxCell>
      </root>
    </mxGraphModel>
  </diagram>
</mxfile>
